{
	"patcher" : 	{
		"fileversion" : 1,
		"appversion" : 		{
			"major" : 8,
			"minor" : 5,
			"revision" : 6,
			"architecture" : "x64",
			"modernui" : 1
		}
,
		"classnamespace" : "box",
		"rect" : [ 34.0, 87.0, 1672.0, 700.0 ],
		"openrect" : [ 0.0, 0.0, 1672.0, 700.0 ],
		"bglocked" : 0,
		"openinpresentation" : 1,
		"default_fontsize" : 12.0,
		"default_fontface" : 0,
		"default_fontname" : "Arial",
		"gridonopen" : 1,
		"gridsize" : [ 15.0, 15.0 ],
		"gridsnaponopen" : 1,
		"objectsnaponopen" : 1,
		"statusbarvisible" : 2,
		"toolbarvisible" : 0,
		"lefttoolbarpinned" : 0,
		"toptoolbarpinned" : 0,
		"righttoolbarpinned" : 0,
		"bottomtoolbarpinned" : 0,
		"toolbars_unpinned_last_save" : 0,
		"tallnewobj" : 0,
		"boxanimatetime" : 200,
		"enablehscroll" : 0,
		"enablevscroll" : 0,
		"devicewidth" : 0.0,
		"description" : "",
		"digest" : "",
		"tags" : "",
		"style" : "",
		"subpatcher_template" : "",
		"assistshowspatchername" : 0,
		"boxes" : [ 			{
				"box" : 				{
					"comment" : "",
					"id" : "obj-1",
					"index" : 0,
					"maxclass" : "inlet",
					"numinlets" : 0,
					"numoutlets" : 1,
					"outlettype" : [ "" ],
					"patching_rect" : [ 341.0, 30.499999943603484, 30.0, 30.0 ]
				}

			}
, 			{
				"box" : 				{
					"id" : "obj-42",
					"maxclass" : "newobj",
					"numinlets" : 1,
					"numoutlets" : 1,
					"outlettype" : [ "" ],
					"patching_rect" : [ 806.0, 716.0, 29.0, 22.0 ],
					"text" : "thru"
				}

			}
, 			{
				"box" : 				{
					"id" : "obj-44",
					"maxclass" : "newobj",
					"numinlets" : 1,
					"numoutlets" : 1,
					"outlettype" : [ "" ],
					"patching_rect" : [ 806.0, 682.0, 29.0, 22.0 ],
					"text" : "thru"
				}

			}
, 			{
				"box" : 				{
					"id" : "obj-45",
					"maxclass" : "newobj",
					"numinlets" : 1,
					"numoutlets" : 1,
					"outlettype" : [ "" ],
					"patching_rect" : [ 848.0, 682.0, 29.0, 22.0 ],
					"text" : "thru"
				}

			}
, 			{
				"box" : 				{
					"id" : "obj-39",
					"maxclass" : "newobj",
					"numinlets" : 1,
					"numoutlets" : 1,
					"outlettype" : [ "" ],
					"patching_rect" : [ 24.0, 716.0, 29.0, 22.0 ],
					"text" : "thru"
				}

			}
, 			{
				"box" : 				{
					"id" : "obj-40",
					"maxclass" : "newobj",
					"numinlets" : 1,
					"numoutlets" : 1,
					"outlettype" : [ "" ],
					"patching_rect" : [ 24.0, 682.0, 29.0, 22.0 ],
					"text" : "thru"
				}

			}
, 			{
				"box" : 				{
					"id" : "obj-41",
					"maxclass" : "newobj",
					"numinlets" : 1,
					"numoutlets" : 1,
					"outlettype" : [ "" ],
					"patching_rect" : [ 80.0, 682.0, 29.0, 22.0 ],
					"text" : "thru"
				}

			}
, 			{
				"box" : 				{
					"id" : "obj-18",
					"maxclass" : "newobj",
					"numinlets" : 1,
					"numoutlets" : 1,
					"outlettype" : [ "" ],
					"patching_rect" : [ 24.0, 220.0, 29.0, 22.0 ],
					"text" : "thru"
				}

			}
, 			{
				"box" : 				{
					"id" : "obj-19",
					"maxclass" : "newobj",
					"numinlets" : 1,
					"numoutlets" : 1,
					"outlettype" : [ "" ],
					"patching_rect" : [ 24.0, 182.0, 29.0, 22.0 ],
					"text" : "thru"
				}

			}
, 			{
				"box" : 				{
					"id" : "obj-38",
					"maxclass" : "newobj",
					"numinlets" : 1,
					"numoutlets" : 1,
					"outlettype" : [ "" ],
					"patching_rect" : [ 75.0, 182.0, 29.0, 22.0 ],
					"text" : "thru"
				}

			}
, 			{
				"box" : 				{
					"id" : "obj-17",
					"maxclass" : "newobj",
					"numinlets" : 1,
					"numoutlets" : 1,
					"outlettype" : [ "" ],
					"patching_rect" : [ 806.0, 220.0, 29.0, 22.0 ],
					"text" : "thru"
				}

			}
, 			{
				"box" : 				{
					"id" : "obj-16",
					"maxclass" : "newobj",
					"numinlets" : 1,
					"numoutlets" : 1,
					"outlettype" : [ "" ],
					"patching_rect" : [ 806.0, 182.0, 29.0, 22.0 ],
					"text" : "thru"
				}

			}
, 			{
				"box" : 				{
					"id" : "obj-15",
					"maxclass" : "newobj",
					"numinlets" : 1,
					"numoutlets" : 1,
					"outlettype" : [ "" ],
					"patching_rect" : [ 848.0, 182.0, 29.0, 22.0 ],
					"text" : "thru"
				}

			}
, 			{
				"box" : 				{
					"id" : "obj-37",
					"maxclass" : "newobj",
					"numinlets" : 3,
					"numoutlets" : 3,
					"outlettype" : [ "", "int", "" ],
					"patcher" : 					{
						"fileversion" : 1,
						"appversion" : 						{
							"major" : 8,
							"minor" : 5,
							"revision" : 6,
							"architecture" : "x64",
							"modernui" : 1
						}
,
						"classnamespace" : "box",
						"rect" : [ 59.0, 106.0, 640.0, 480.0 ],
						"bglocked" : 0,
						"openinpresentation" : 0,
						"default_fontsize" : 12.0,
						"default_fontface" : 0,
						"default_fontname" : "Arial",
						"gridonopen" : 1,
						"gridsize" : [ 15.0, 15.0 ],
						"gridsnaponopen" : 1,
						"objectsnaponopen" : 1,
						"statusbarvisible" : 2,
						"toolbarvisible" : 1,
						"lefttoolbarpinned" : 0,
						"toptoolbarpinned" : 0,
						"righttoolbarpinned" : 0,
						"bottomtoolbarpinned" : 0,
						"toolbars_unpinned_last_save" : 0,
						"tallnewobj" : 0,
						"boxanimatetime" : 200,
						"enablehscroll" : 1,
						"enablevscroll" : 1,
						"devicewidth" : 0.0,
						"description" : "",
						"digest" : "",
						"tags" : "",
						"style" : "",
						"subpatcher_template" : "",
						"assistshowspatchername" : 0,
						"boxes" : [ 							{
								"box" : 								{
									"id" : "obj-26",
									"maxclass" : "newobj",
									"numinlets" : 1,
									"numoutlets" : 2,
									"outlettype" : [ "bang", "int" ],
									"patching_rect" : [ 85.0, 259.869564056396484, 29.5, 22.0 ],
									"text" : "t b i"
								}

							}
, 							{
								"box" : 								{
									"id" : "obj-21",
									"maxclass" : "newobj",
									"numinlets" : 3,
									"numoutlets" : 3,
									"outlettype" : [ "bang", "bang", "" ],
									"patching_rect" : [ 85.0, 156.0, 44.0, 22.0 ],
									"text" : "sel 1 2"
								}

							}
, 							{
								"box" : 								{
									"id" : "obj-17",
									"maxclass" : "message",
									"numinlets" : 2,
									"numoutlets" : 1,
									"outlettype" : [ "" ],
									"patching_rect" : [ 85.0, 303.0, 61.0, 22.0 ],
									"text" : "group MX"
								}

							}
, 							{
								"box" : 								{
									"id" : "obj-22",
									"maxclass" : "message",
									"numinlets" : 2,
									"numoutlets" : 1,
									"outlettype" : [ "" ],
									"patching_rect" : [ 97.5, 224.608694672584534, 29.5, 22.0 ],
									"text" : "5"
								}

							}
, 							{
								"box" : 								{
									"id" : "obj-20",
									"maxclass" : "message",
									"numinlets" : 2,
									"numoutlets" : 1,
									"outlettype" : [ "" ],
									"patching_rect" : [ 85.0, 192.869564056396484, 29.5, 22.0 ],
									"text" : "1"
								}

							}
, 							{
								"box" : 								{
									"id" : "obj-18",
									"maxclass" : "message",
									"numinlets" : 2,
									"numoutlets" : 1,
									"outlettype" : [ "" ],
									"patching_rect" : [ 186.5, 389.248826950788498, 262.0, 22.0 ],
									"text" : "window size 2886 727 4558 1427, window exec"
								}

							}
, 							{
								"box" : 								{
									"id" : "obj-16",
									"maxclass" : "newobj",
									"numinlets" : 2,
									"numoutlets" : 2,
									"outlettype" : [ "bang", "" ],
									"patching_rect" : [ 50.0, 100.0, 54.0, 22.0 ],
									"text" : "sel done"
								}

							}
, 							{
								"box" : 								{
									"id" : "obj-8",
									"maxclass" : "newobj",
									"numinlets" : 2,
									"numoutlets" : 2,
									"outlettype" : [ "", "" ],
									"patching_rect" : [ 85.0, 129.0, 67.0, 22.0 ],
									"text" : "route block"
								}

							}
, 							{
								"box" : 								{
									"id" : "obj-54",
									"maxclass" : "message",
									"numinlets" : 2,
									"numoutlets" : 1,
									"outlettype" : [ "" ],
									"patching_rect" : [ 173.333333333333371, 341.869564056396484, 249.0, 22.0 ],
									"text" : "window size 2886 27 4558 727, window exec"
								}

							}
, 							{
								"box" : 								{
									"id" : "obj-44",
									"maxclass" : "message",
									"numinlets" : 2,
									"numoutlets" : 1,
									"outlettype" : [ "" ],
									"patching_rect" : [ 641.524133414629887, 292.0, 175.0, 22.0 ],
									"text" : "window flags title, window exec"
								}

							}
, 							{
								"box" : 								{
									"id" : "obj-49",
									"maxclass" : "message",
									"numinlets" : 2,
									"numoutlets" : 1,
									"outlettype" : [ "" ],
									"patching_rect" : [ 636.234281850760453, 263.0, 184.0, 22.0 ],
									"text" : "window flags close, window exec"
								}

							}
, 							{
								"box" : 								{
									"id" : "obj-46",
									"maxclass" : "message",
									"numinlets" : 2,
									"numoutlets" : 1,
									"outlettype" : [ "" ],
									"patching_rect" : [ 405.524133414629887, 287.0, 188.0, 22.0 ],
									"text" : "window flags notitle, window exec"
								}

							}
, 							{
								"box" : 								{
									"id" : "obj-45",
									"maxclass" : "message",
									"numinlets" : 2,
									"numoutlets" : 1,
									"outlettype" : [ "" ],
									"patching_rect" : [ 426.692177364474446, 263.0, 197.0, 22.0 ],
									"text" : "window flags noclose, window exec"
								}

							}
, 							{
								"box" : 								{
									"comment" : "",
									"id" : "obj-30",
									"index" : 1,
									"maxclass" : "inlet",
									"numinlets" : 0,
									"numoutlets" : 1,
									"outlettype" : [ "" ],
									"patching_rect" : [ 50.0, 39.999999943603513, 30.0, 30.0 ]
								}

							}
, 							{
								"box" : 								{
									"comment" : "",
									"id" : "obj-31",
									"index" : 2,
									"maxclass" : "inlet",
									"numinlets" : 0,
									"numoutlets" : 1,
									"outlettype" : [ "bang" ],
									"patching_rect" : [ 410.108154000000013, 39.999999943603513, 30.0, 30.0 ]
								}

							}
, 							{
								"box" : 								{
									"comment" : "",
									"id" : "obj-32",
									"index" : 3,
									"maxclass" : "inlet",
									"numinlets" : 0,
									"numoutlets" : 1,
									"outlettype" : [ "bang" ],
									"patching_rect" : [ 632.879149999999981, 39.999999943603513, 30.0, 30.0 ]
								}

							}
, 							{
								"box" : 								{
									"comment" : "",
									"id" : "obj-33",
									"index" : 2,
									"maxclass" : "outlet",
									"numinlets" : 1,
									"numoutlets" : 0,
									"patching_rect" : [ 129.0, 471.248813943603523, 30.0, 30.0 ]
								}

							}
, 							{
								"box" : 								{
									"comment" : "",
									"id" : "obj-35",
									"index" : 1,
									"maxclass" : "outlet",
									"numinlets" : 1,
									"numoutlets" : 0,
									"patching_rect" : [ 85.0, 471.248813943603523, 30.0, 30.0 ]
								}

							}
, 							{
								"box" : 								{
									"comment" : "",
									"id" : "obj-36",
									"index" : 3,
									"maxclass" : "outlet",
									"numinlets" : 1,
									"numoutlets" : 0,
									"patching_rect" : [ 405.63464399999998, 471.248813943603523, 30.0, 30.0 ]
								}

							}
 ],
						"lines" : [ 							{
								"patchline" : 								{
									"destination" : [ "obj-8", 0 ],
									"source" : [ "obj-16", 1 ]
								}

							}
, 							{
								"patchline" : 								{
									"destination" : [ "obj-35", 0 ],
									"source" : [ "obj-17", 0 ]
								}

							}
, 							{
								"patchline" : 								{
									"destination" : [ "obj-36", 0 ],
									"source" : [ "obj-18", 0 ]
								}

							}
, 							{
								"patchline" : 								{
									"destination" : [ "obj-26", 0 ],
									"source" : [ "obj-20", 0 ]
								}

							}
, 							{
								"patchline" : 								{
									"destination" : [ "obj-18", 0 ],
									"order" : 0,
									"source" : [ "obj-21", 1 ]
								}

							}
, 							{
								"patchline" : 								{
									"destination" : [ "obj-20", 0 ],
									"order" : 1,
									"source" : [ "obj-21", 0 ]
								}

							}
, 							{
								"patchline" : 								{
									"destination" : [ "obj-22", 0 ],
									"order" : 1,
									"source" : [ "obj-21", 1 ]
								}

							}
, 							{
								"patchline" : 								{
									"destination" : [ "obj-54", 0 ],
									"order" : 0,
									"source" : [ "obj-21", 0 ]
								}

							}
, 							{
								"patchline" : 								{
									"destination" : [ "obj-26", 0 ],
									"source" : [ "obj-22", 0 ]
								}

							}
, 							{
								"patchline" : 								{
									"destination" : [ "obj-17", 0 ],
									"source" : [ "obj-26", 0 ]
								}

							}
, 							{
								"patchline" : 								{
									"destination" : [ "obj-33", 0 ],
									"source" : [ "obj-26", 1 ]
								}

							}
, 							{
								"patchline" : 								{
									"destination" : [ "obj-16", 0 ],
									"source" : [ "obj-30", 0 ]
								}

							}
, 							{
								"patchline" : 								{
									"destination" : [ "obj-45", 0 ],
									"order" : 0,
									"source" : [ "obj-31", 0 ]
								}

							}
, 							{
								"patchline" : 								{
									"destination" : [ "obj-46", 0 ],
									"order" : 1,
									"source" : [ "obj-31", 0 ]
								}

							}
, 							{
								"patchline" : 								{
									"destination" : [ "obj-44", 0 ],
									"order" : 0,
									"source" : [ "obj-32", 0 ]
								}

							}
, 							{
								"patchline" : 								{
									"destination" : [ "obj-49", 0 ],
									"order" : 1,
									"source" : [ "obj-32", 0 ]
								}

							}
, 							{
								"patchline" : 								{
									"destination" : [ "obj-36", 0 ],
									"source" : [ "obj-44", 0 ]
								}

							}
, 							{
								"patchline" : 								{
									"destination" : [ "obj-36", 0 ],
									"source" : [ "obj-45", 0 ]
								}

							}
, 							{
								"patchline" : 								{
									"destination" : [ "obj-36", 0 ],
									"source" : [ "obj-46", 0 ]
								}

							}
, 							{
								"patchline" : 								{
									"destination" : [ "obj-36", 0 ],
									"source" : [ "obj-49", 0 ]
								}

							}
, 							{
								"patchline" : 								{
									"destination" : [ "obj-36", 0 ],
									"source" : [ "obj-54", 0 ]
								}

							}
, 							{
								"patchline" : 								{
									"destination" : [ "obj-21", 0 ],
									"source" : [ "obj-8", 0 ]
								}

							}
 ]
					}
,
					"patching_rect" : [ 1252.0, 38.499999943603484, 95.0, 22.0 ],
					"saved_object_attributes" : 					{
						"description" : "",
						"digest" : "",
						"globalpatchername" : "",
						"tags" : ""
					}
,
					"text" : "p window_setup"
				}

			}
, 			{
				"box" : 				{
					"id" : "obj-13",
					"maxclass" : "message",
					"numinlets" : 2,
					"numoutlets" : 1,
					"outlettype" : [ "" ],
					"patching_rect" : [ 75.0, 155.0, 67.0, 22.0 ],
					"text" : "channel $1"
				}

			}
, 			{
				"box" : 				{
					"id" : "obj-12",
					"maxclass" : "message",
					"numinlets" : 2,
					"numoutlets" : 1,
					"outlettype" : [ "" ],
					"patching_rect" : [ 80.0, 658.0, 67.0, 22.0 ],
					"text" : "channel $1"
				}

			}
, 			{
				"box" : 				{
					"id" : "obj-11",
					"maxclass" : "message",
					"numinlets" : 2,
					"numoutlets" : 1,
					"outlettype" : [ "" ],
					"patching_rect" : [ 848.0, 658.0, 67.0, 22.0 ],
					"text" : "channel $1"
				}

			}
, 			{
				"box" : 				{
					"id" : "obj-10",
					"maxclass" : "message",
					"numinlets" : 2,
					"numoutlets" : 1,
					"outlettype" : [ "" ],
					"patching_rect" : [ 848.0, 155.0, 67.0, 22.0 ],
					"text" : "channel $1"
				}

			}
, 			{
				"box" : 				{
					"id" : "obj-25",
					"maxclass" : "newobj",
					"numinlets" : 2,
					"numoutlets" : 1,
					"outlettype" : [ "int" ],
					"patching_rect" : [ 848.0, 634.0, 29.5, 22.0 ],
					"text" : "+ 3"
				}

			}
, 			{
				"box" : 				{
					"id" : "obj-24",
					"maxclass" : "newobj",
					"numinlets" : 2,
					"numoutlets" : 1,
					"outlettype" : [ "int" ],
					"patching_rect" : [ 80.0, 634.0, 29.5, 22.0 ],
					"text" : "+ 2"
				}

			}
, 			{
				"box" : 				{
					"id" : "obj-23",
					"maxclass" : "newobj",
					"numinlets" : 2,
					"numoutlets" : 1,
					"outlettype" : [ "int" ],
					"patching_rect" : [ 848.0, 129.0, 29.5, 22.0 ],
					"text" : "+ 1"
				}

			}
, 			{
				"box" : 				{
					"id" : "obj-2",
					"maxclass" : "newobj",
					"numinlets" : 1,
					"numoutlets" : 2,
					"outlettype" : [ "", "" ],
					"patching_rect" : [ 1199.0, 6.5, 72.0, 22.0 ],
					"text" : "patcherargs"
				}

			}
, 			{
				"box" : 				{
					"id" : "obj-7",
					"maxclass" : "newobj",
					"numinlets" : 1,
					"numoutlets" : 1,
					"outlettype" : [ "bang" ],
					"patching_rect" : [ 1290.0, 6.5, 58.0, 22.0 ],
					"text" : "loadbang"
				}

			}
, 			{
				"box" : 				{
					"id" : "obj-63",
					"maxclass" : "message",
					"numinlets" : 2,
					"numoutlets" : 1,
					"outlettype" : [ "" ],
					"patching_rect" : [ 1427.524133414629887, 117.5, 154.0, 22.0 ],
					"text" : "34 87 1706 787"
				}

			}
, 			{
				"box" : 				{
					"id" : "obj-60",
					"maxclass" : "newobj",
					"numinlets" : 3,
					"numoutlets" : 3,
					"outlettype" : [ "", "", "" ],
					"patching_rect" : [ 1328.0, 117.5, 89.0, 22.0 ],
					"text" : "route flags size"
				}

			}
, 			{
				"box" : 				{
					"id" : "obj-59",
					"maxclass" : "newobj",
					"numinlets" : 2,
					"numoutlets" : 2,
					"outlettype" : [ "", "" ],
					"patching_rect" : [ 1328.0, 90.5, 79.0, 22.0 ],
					"text" : "route window"
				}

			}
, 			{
				"box" : 				{
					"id" : "obj-55",
					"maxclass" : "message",
					"numinlets" : 2,
					"numoutlets" : 1,
					"outlettype" : [ "" ],
					"patching_rect" : [ 1427.524133414629887, 64.630435943603516, 90.0, 22.0 ],
					"text" : "window getsize"
				}

			}
, 			{
				"box" : 				{
					"bgcolor" : [ 0.2, 0.2, 0.2, 0.0 ],
					"id" : "obj-51",
					"maxclass" : "button",
					"numinlets" : 1,
					"numoutlets" : 1,
					"outlettype" : [ "bang" ],
					"outlinecolor" : [ 0.349019607843137, 0.349019607843137, 0.349019607843137, 0.0 ],
					"parameter_enable" : 0,
					"patching_rect" : [ 1359.524133414629887, 6.5, 24.0, 24.0 ],
					"presentation" : 1,
					"presentation_rect" : [ 45.724635601043701, 7.173913061618805, 24.0, 24.0 ]
				}

			}
, 			{
				"box" : 				{
					"id" : "obj-43",
					"maxclass" : "newobj",
					"numinlets" : 1,
					"numoutlets" : 2,
					"outlettype" : [ "", "" ],
					"patching_rect" : [ 1328.0, 64.630435943603516, 67.0, 22.0 ],
					"save" : [ "#N", "thispatcher", ";", "#Q", "end", ";" ],
					"text" : "thispatcher"
				}

			}
, 			{
				"box" : 				{
					"bgmode" : 0,
					"border" : 0,
					"clickthrough" : 0,
					"enablehscroll" : 0,
					"enablevscroll" : 0,
					"id" : "obj-6",
					"lockeddragscroll" : 0,
					"lockedsize" : 0,
					"maxclass" : "bpatcher",
					"name" : "FX_1ch.maxpat",
					"numinlets" : 1,
					"numoutlets" : 0,
					"offset" : [ 0.0, 0.0 ],
					"patching_rect" : [ 806.0, 755.0, 201.0, 308.0 ],
					"presentation" : 1,
					"presentation_rect" : [ 1254.0, 0.0, 418.0, 700.0 ],
					"varname" : "ch4",
					"viewvisibility" : 1
				}

			}
, 			{
				"box" : 				{
					"bgmode" : 0,
					"border" : 0,
					"clickthrough" : 0,
					"enablehscroll" : 0,
					"enablevscroll" : 0,
					"id" : "obj-5",
					"lockeddragscroll" : 0,
					"lockedsize" : 0,
					"maxclass" : "bpatcher",
					"name" : "FX_1ch.maxpat",
					"numinlets" : 1,
					"numoutlets" : 0,
					"offset" : [ 0.0, 0.0 ],
					"patching_rect" : [ 24.0, 755.0, 186.0, 308.0 ],
					"presentation" : 1,
					"presentation_rect" : [ 836.0, 0.0, 418.0, 700.0 ],
					"varname" : "ch3",
					"viewvisibility" : 1
				}

			}
, 			{
				"box" : 				{
					"bgmode" : 0,
					"border" : 0,
					"clickthrough" : 0,
					"enablehscroll" : 0,
					"enablevscroll" : 0,
					"id" : "obj-4",
					"lockeddragscroll" : 0,
					"lockedsize" : 0,
					"maxclass" : "bpatcher",
					"name" : "FX_1ch.maxpat",
					"numinlets" : 1,
					"numoutlets" : 0,
					"offset" : [ 0.0, 0.0 ],
					"patching_rect" : [ 806.0, 258.0, 201.0, 316.0 ],
					"presentation" : 1,
					"presentation_rect" : [ 418.0, 0.0, 418.0, 700.0 ],
					"varname" : "ch2",
					"viewvisibility" : 1
				}

			}
, 			{
				"box" : 				{
					"bgmode" : 0,
					"border" : 0,
					"clickthrough" : 0,
					"enablehscroll" : 0,
					"enablevscroll" : 0,
					"id" : "obj-3",
					"lockeddragscroll" : 0,
					"lockedsize" : 0,
					"maxclass" : "bpatcher",
					"name" : "FX_1ch.maxpat",
					"numinlets" : 1,
					"numoutlets" : 0,
					"offset" : [ 0.0, 0.0 ],
					"patching_rect" : [ 24.0, 258.0, 186.0, 316.0 ],
					"presentation" : 1,
					"presentation_rect" : [ 0.0, 0.0, 418.0, 700.0 ],
					"varname" : "ch1",
					"viewvisibility" : 1
				}

			}
 ],
		"lines" : [ 			{
				"patchline" : 				{
					"destination" : [ "obj-15", 0 ],
					"source" : [ "obj-10", 0 ]
				}

			}
, 			{
				"patchline" : 				{
					"destination" : [ "obj-45", 0 ],
					"source" : [ "obj-11", 0 ]
				}

			}
, 			{
				"patchline" : 				{
					"destination" : [ "obj-41", 0 ],
					"source" : [ "obj-12", 0 ]
				}

			}
, 			{
				"patchline" : 				{
					"destination" : [ "obj-38", 0 ],
					"source" : [ "obj-13", 0 ]
				}

			}
, 			{
				"patchline" : 				{
					"destination" : [ "obj-17", 0 ],
					"source" : [ "obj-15", 0 ]
				}

			}
, 			{
				"patchline" : 				{
					"destination" : [ "obj-17", 0 ],
					"source" : [ "obj-16", 0 ]
				}

			}
, 			{
				"patchline" : 				{
					"destination" : [ "obj-4", 0 ],
					"source" : [ "obj-17", 0 ]
				}

			}
, 			{
				"patchline" : 				{
					"destination" : [ "obj-3", 0 ],
					"source" : [ "obj-18", 0 ]
				}

			}
, 			{
				"patchline" : 				{
					"destination" : [ "obj-18", 0 ],
					"source" : [ "obj-19", 0 ]
				}

			}
, 			{
				"patchline" : 				{
					"destination" : [ "obj-37", 0 ],
					"source" : [ "obj-2", 1 ]
				}

			}
, 			{
				"patchline" : 				{
					"destination" : [ "obj-10", 0 ],
					"source" : [ "obj-23", 0 ]
				}

			}
, 			{
				"patchline" : 				{
					"destination" : [ "obj-12", 0 ],
					"source" : [ "obj-24", 0 ]
				}

			}
, 			{
				"patchline" : 				{
					"destination" : [ "obj-11", 0 ],
					"source" : [ "obj-25", 0 ]
				}

			}
, 			{
				"patchline" : 				{
					"destination" : [ "obj-13", 0 ],
					"midpoints" : [ 1299.5, 114.0, 84.5, 114.0 ],
					"order" : 3,
					"source" : [ "obj-37", 1 ]
				}

			}
, 			{
				"patchline" : 				{
					"destination" : [ "obj-16", 0 ],
					"midpoints" : [ 1261.5, 114.0, 815.5, 114.0 ],
					"order" : 1,
					"source" : [ "obj-37", 0 ]
				}

			}
, 			{
				"patchline" : 				{
					"destination" : [ "obj-19", 0 ],
					"midpoints" : [ 1261.5, 114.0, 33.5, 114.0 ],
					"order" : 3,
					"source" : [ "obj-37", 0 ]
				}

			}
, 			{
				"patchline" : 				{
					"destination" : [ "obj-23", 0 ],
					"midpoints" : [ 1299.5, 114.0, 857.5, 114.0 ],
					"order" : 1,
					"source" : [ "obj-37", 1 ]
				}

			}
, 			{
				"patchline" : 				{
					"destination" : [ "obj-24", 0 ],
					"midpoints" : [ 1299.5, 621.0, 89.5, 621.0 ],
					"order" : 2,
					"source" : [ "obj-37", 1 ]
				}

			}
, 			{
				"patchline" : 				{
					"destination" : [ "obj-25", 0 ],
					"midpoints" : [ 1299.5, 621.0, 857.5, 621.0 ],
					"order" : 0,
					"source" : [ "obj-37", 1 ]
				}

			}
, 			{
				"patchline" : 				{
					"destination" : [ "obj-40", 0 ],
					"midpoints" : [ 1261.5, 621.0, 33.5, 621.0 ],
					"order" : 2,
					"source" : [ "obj-37", 0 ]
				}

			}
, 			{
				"patchline" : 				{
					"destination" : [ "obj-43", 0 ],
					"source" : [ "obj-37", 2 ]
				}

			}
, 			{
				"patchline" : 				{
					"destination" : [ "obj-44", 0 ],
					"midpoints" : [ 1261.5, 621.0, 815.5, 621.0 ],
					"order" : 0,
					"source" : [ "obj-37", 0 ]
				}

			}
, 			{
				"patchline" : 				{
					"destination" : [ "obj-18", 0 ],
					"source" : [ "obj-38", 0 ]
				}

			}
, 			{
				"patchline" : 				{
					"destination" : [ "obj-5", 0 ],
					"source" : [ "obj-39", 0 ]
				}

			}
, 			{
				"patchline" : 				{
					"destination" : [ "obj-39", 0 ],
					"source" : [ "obj-40", 0 ]
				}

			}
, 			{
				"patchline" : 				{
					"destination" : [ "obj-39", 0 ],
					"source" : [ "obj-41", 0 ]
				}

			}
, 			{
				"patchline" : 				{
					"destination" : [ "obj-6", 0 ],
					"source" : [ "obj-42", 0 ]
				}

			}
, 			{
				"patchline" : 				{
					"destination" : [ "obj-59", 0 ],
					"source" : [ "obj-43", 0 ]
				}

			}
, 			{
				"patchline" : 				{
					"destination" : [ "obj-42", 0 ],
					"source" : [ "obj-44", 0 ]
				}

			}
, 			{
				"patchline" : 				{
					"destination" : [ "obj-42", 0 ],
					"source" : [ "obj-45", 0 ]
				}

			}
, 			{
				"patchline" : 				{
					"destination" : [ "obj-37", 1 ],
					"order" : 1,
					"source" : [ "obj-51", 0 ]
				}

			}
, 			{
				"patchline" : 				{
					"destination" : [ "obj-55", 0 ],
					"order" : 0,
					"source" : [ "obj-51", 0 ]
				}

			}
, 			{
				"patchline" : 				{
					"destination" : [ "obj-43", 0 ],
					"source" : [ "obj-55", 0 ]
				}

			}
, 			{
				"patchline" : 				{
					"destination" : [ "obj-60", 0 ],
					"source" : [ "obj-59", 0 ]
				}

			}
, 			{
				"patchline" : 				{
					"destination" : [ "obj-63", 1 ],
					"source" : [ "obj-60", 1 ]
				}

			}
, 			{
				"patchline" : 				{
					"destination" : [ "obj-37", 2 ],
					"source" : [ "obj-7", 0 ]
				}

			}
 ],
		"parameters" : 		{
			"obj-3::obj-100" : [ "VST4_size", "size", 0 ],
			"obj-3::obj-107" : [ "vst~[61]", "vst~[3]", 0 ],
			"obj-3::obj-111" : [ "VST2_HPF", "live.text[8]", 0 ],
			"obj-3::obj-112" : [ "VST2_LPF", "live.text[8]", 0 ],
			"obj-3::obj-113" : [ "VST2_HPFfreq", "freq.", 0 ],
			"obj-3::obj-115" : [ "VST2_LPFfreq", "freq.", 0 ],
			"obj-3::obj-116" : [ "VST2_LPFq", "Q", 0 ],
			"obj-3::obj-119" : [ "VST2_HPFq", "Q", 0 ],
			"obj-3::obj-11::obj-71" : [ "bCueIn[2]", "live.text", 0 ],
			"obj-3::obj-125" : [ "VST2_drywet", "dry/wet", 0 ],
			"obj-3::obj-138" : [ "VST4_lowcut", "low-cut", 0 ],
			"obj-3::obj-139" : [ "VST4_highcut", "high-cut", 0 ],
			"obj-3::obj-143" : [ "VST4_damplow", "live.text[10]", 0 ],
			"obj-3::obj-145" : [ "VST4_damphigh", "live.text[10]", 0 ],
			"obj-3::obj-148" : [ "VST4_damplowfreq", "freq.", 0 ],
			"obj-3::obj-150" : [ "VST2_HPFslope", "VST2_HPFslope", 0 ],
			"obj-3::obj-156" : [ "VST2_LPFslope", "umenu", 0 ],
			"obj-3::obj-15::obj-13" : [ "fGainOut[2]", "out", 0 ],
			"obj-3::obj-15::obj-71" : [ "bCueOut[2]", "live.text", 0 ],
			"obj-3::obj-170" : [ "VST1_LPF", "live.text[8]", 0 ],
			"obj-3::obj-171" : [ "VST1_HPF", "live.text[8]", 0 ],
			"obj-3::obj-196" : [ "VST4_predelay", "slider", 0 ],
			"obj-3::obj-1::obj-13" : [ "fGainOut[1]", "out", 0 ],
			"obj-3::obj-1::obj-71" : [ "bCueOut[1]", "live.text", 0 ],
			"obj-3::obj-214" : [ "VST4_damphighfreq", "freq.", 0 ],
			"obj-3::obj-23::obj-71" : [ "bCueIn[3]", "live.text", 0 ],
			"obj-3::obj-25::obj-13" : [ "fGainOut[3]", "out", 0 ],
			"obj-3::obj-25::obj-71" : [ "bCueOut[3]", "live.text", 0 ],
			"obj-3::obj-286" : [ "VST4_drywet", "dry/wet", 0 ],
			"obj-3::obj-297" : [ "VST4_length", "length", 0 ],
			"obj-3::obj-33" : [ "VST3_freeze", "live.text[12]", 0 ],
			"obj-3::obj-35::obj-13" : [ "fGainOut", "out", 0 ],
			"obj-3::obj-35::obj-71" : [ "bCueOut", "live.text", 0 ],
			"obj-3::obj-38" : [ "bDelTap[2]", "tap", 0 ],
			"obj-3::obj-42" : [ "VST3_time", "slider", 0 ],
			"obj-3::obj-5" : [ "vst~[60]", "vst~", 0 ],
			"obj-3::obj-51" : [ "VST3_drywet", "dry/wet", 0 ],
			"obj-3::obj-52" : [ "VST3_mode", "live.tab", 0 ],
			"obj-3::obj-65::obj-71" : [ "bCueIn", "live.text", 0 ],
			"obj-3::obj-66::obj-71" : [ "bCueIn[1]", "live.text", 0 ],
			"obj-3::obj-69" : [ "VST3_feedback", "feedback", 0 ],
			"obj-3::obj-85" : [ "vst~[58]", "vst~[1]", 0 ],
			"obj-3::obj-86" : [ "vst~[59]", "vst~[1]", 0 ],
			"obj-3::obj-92" : [ "amxd~[5]", "live.text", 0 ],
			"obj-3::obj-93" : [ "VST1_threshold", "VST1_threshold", 0 ],
			"obj-3::obj-97" : [ "amxd~[6]", "live.text", 0 ],
			"obj-3::obj-98" : [ "amxd~[3]", "live.text", 0 ],
			"obj-3::obj-99" : [ "amxd~[4]", "live.text", 0 ],
			"obj-4::obj-100" : [ "VST4_size[1]", "size", 0 ],
			"obj-4::obj-107" : [ "vst~[2]", "vst~[3]", 0 ],
			"obj-4::obj-111" : [ "VST2_HPF[1]", "live.text[8]", 0 ],
			"obj-4::obj-112" : [ "VST2_LPF[1]", "live.text[8]", 0 ],
			"obj-4::obj-113" : [ "VST2_HPFfreq[1]", "freq.", 0 ],
			"obj-4::obj-115" : [ "VST2_LPFfreq[1]", "freq.", 0 ],
			"obj-4::obj-116" : [ "VST2_LPFq[1]", "Q", 0 ],
			"obj-4::obj-119" : [ "VST2_HPFq[1]", "Q", 0 ],
			"obj-4::obj-11::obj-71" : [ "bCueIn[6]", "live.text", 0 ],
			"obj-4::obj-125" : [ "VST2_drywet[1]", "dry/wet", 0 ],
			"obj-4::obj-138" : [ "VST4_lowcut[1]", "low-cut", 0 ],
			"obj-4::obj-139" : [ "VST4_highcut[1]", "high-cut", 0 ],
			"obj-4::obj-143" : [ "VST4_damplow[1]", "live.text[10]", 0 ],
			"obj-4::obj-145" : [ "VST4_damphigh[1]", "live.text[10]", 0 ],
			"obj-4::obj-148" : [ "VST4_damplowfreq[1]", "freq.", 0 ],
			"obj-4::obj-150" : [ "VST2_HPFslope[1]", "VST2_HPFslope", 0 ],
			"obj-4::obj-156" : [ "VST2_LPFslope[1]", "umenu", 0 ],
			"obj-4::obj-15::obj-13" : [ "fGainOut[6]", "out", 0 ],
			"obj-4::obj-15::obj-71" : [ "bCueOut[6]", "live.text", 0 ],
			"obj-4::obj-170" : [ "VST1_LPF[1]", "live.text[8]", 0 ],
			"obj-4::obj-171" : [ "VST1_HPF[1]", "live.text[8]", 0 ],
			"obj-4::obj-196" : [ "VST4_predelay[1]", "slider", 0 ],
			"obj-4::obj-1::obj-13" : [ "fGainOut[5]", "out", 0 ],
			"obj-4::obj-1::obj-71" : [ "bCueOut[5]", "live.text", 0 ],
			"obj-4::obj-214" : [ "VST4_damphighfreq[1]", "freq.", 0 ],
			"obj-4::obj-23::obj-71" : [ "bCueIn[7]", "live.text", 0 ],
			"obj-4::obj-25::obj-13" : [ "fGainOut[7]", "out", 0 ],
			"obj-4::obj-25::obj-71" : [ "bCueOut[7]", "live.text", 0 ],
			"obj-4::obj-286" : [ "VST4_drywet[1]", "dry/wet", 0 ],
			"obj-4::obj-297" : [ "VST4_length[1]", "length", 0 ],
			"obj-4::obj-33" : [ "VST3_freeze[1]", "live.text[12]", 0 ],
			"obj-4::obj-35::obj-13" : [ "fGainOut[4]", "out", 0 ],
			"obj-4::obj-35::obj-71" : [ "bCueOut[4]", "live.text", 0 ],
			"obj-4::obj-38" : [ "bDelTap[3]", "tap", 0 ],
			"obj-4::obj-42" : [ "VST3_time[1]", "slider", 0 ],
			"obj-4::obj-5" : [ "vst~[1]", "vst~", 0 ],
			"obj-4::obj-51" : [ "VST3_drywet[1]", "dry/wet", 0 ],
			"obj-4::obj-52" : [ "VST3_mode[1]", "live.tab", 0 ],
			"obj-4::obj-65::obj-71" : [ "bCueIn[4]", "live.text", 0 ],
			"obj-4::obj-66::obj-71" : [ "bCueIn[5]", "live.text", 0 ],
			"obj-4::obj-69" : [ "VST3_feedback[1]", "feedback", 0 ],
			"obj-4::obj-85" : [ "vst~[3]", "vst~[1]", 0 ],
			"obj-4::obj-86" : [ "vst~[4]", "vst~[1]", 0 ],
			"obj-4::obj-92" : [ "amxd~[10]", "live.text", 0 ],
			"obj-4::obj-93" : [ "VST1_threshold[1]", "VST1_threshold", 0 ],
			"obj-4::obj-97" : [ "amxd~[7]", "live.text", 0 ],
			"obj-4::obj-98" : [ "amxd~[8]", "live.text", 0 ],
			"obj-4::obj-99" : [ "amxd~[9]", "live.text", 0 ],
			"obj-5::obj-100" : [ "VST4_size[2]", "size", 0 ],
			"obj-5::obj-107" : [ "vst~[5]", "vst~[3]", 0 ],
			"obj-5::obj-111" : [ "VST2_HPF[2]", "live.text[8]", 0 ],
			"obj-5::obj-112" : [ "VST2_LPF[2]", "live.text[8]", 0 ],
			"obj-5::obj-113" : [ "VST2_HPFfreq[2]", "freq.", 0 ],
			"obj-5::obj-115" : [ "VST2_LPFfreq[2]", "freq.", 0 ],
			"obj-5::obj-116" : [ "VST2_LPFq[2]", "Q", 0 ],
			"obj-5::obj-119" : [ "VST2_HPFq[2]", "Q", 0 ],
			"obj-5::obj-11::obj-71" : [ "bCueIn[10]", "live.text", 0 ],
			"obj-5::obj-125" : [ "VST2_drywet[2]", "dry/wet", 0 ],
			"obj-5::obj-138" : [ "VST4_lowcut[2]", "low-cut", 0 ],
			"obj-5::obj-139" : [ "VST4_highcut[2]", "high-cut", 0 ],
			"obj-5::obj-143" : [ "VST4_damplow[2]", "live.text[10]", 0 ],
			"obj-5::obj-145" : [ "VST4_damphigh[2]", "live.text[10]", 0 ],
			"obj-5::obj-148" : [ "VST4_damplowfreq[2]", "freq.", 0 ],
			"obj-5::obj-150" : [ "VST2_HPFslope[2]", "VST2_HPFslope", 0 ],
			"obj-5::obj-156" : [ "VST2_LPFslope[2]", "umenu", 0 ],
			"obj-5::obj-15::obj-13" : [ "fGainOut[10]", "out", 0 ],
			"obj-5::obj-15::obj-71" : [ "bCueOut[10]", "live.text", 0 ],
			"obj-5::obj-170" : [ "VST1_LPF[2]", "live.text[8]", 0 ],
			"obj-5::obj-171" : [ "VST1_HPF[2]", "live.text[8]", 0 ],
			"obj-5::obj-196" : [ "VST4_predelay[2]", "slider", 0 ],
			"obj-5::obj-1::obj-13" : [ "fGainOut[9]", "out", 0 ],
			"obj-5::obj-1::obj-71" : [ "bCueOut[9]", "live.text", 0 ],
			"obj-5::obj-214" : [ "VST4_damphighfreq[2]", "freq.", 0 ],
			"obj-5::obj-23::obj-71" : [ "bCueIn[11]", "live.text", 0 ],
			"obj-5::obj-25::obj-13" : [ "fGainOut[11]", "out", 0 ],
			"obj-5::obj-25::obj-71" : [ "bCueOut[11]", "live.text", 0 ],
			"obj-5::obj-286" : [ "VST4_drywet[2]", "dry/wet", 0 ],
			"obj-5::obj-297" : [ "VST4_length[2]", "length", 0 ],
			"obj-5::obj-33" : [ "VST3_freeze[2]", "live.text[12]", 0 ],
			"obj-5::obj-35::obj-13" : [ "fGainOut[8]", "out", 0 ],
			"obj-5::obj-35::obj-71" : [ "bCueOut[8]", "live.text", 0 ],
			"obj-5::obj-38" : [ "bDelTap[4]", "tap", 0 ],
			"obj-5::obj-42" : [ "VST3_time[2]", "slider", 0 ],
			"obj-5::obj-5" : [ "vst~[6]", "vst~", 0 ],
			"obj-5::obj-51" : [ "VST3_drywet[2]", "dry/wet", 0 ],
			"obj-5::obj-52" : [ "VST3_mode[2]", "live.tab", 0 ],
			"obj-5::obj-65::obj-71" : [ "bCueIn[8]", "live.text", 0 ],
			"obj-5::obj-66::obj-71" : [ "bCueIn[9]", "live.text", 0 ],
			"obj-5::obj-69" : [ "VST3_feedback[2]", "feedback", 0 ],
			"obj-5::obj-85" : [ "vst~[7]", "vst~[1]", 0 ],
			"obj-5::obj-86" : [ "vst~[8]", "vst~[1]", 0 ],
			"obj-5::obj-92" : [ "amxd~[14]", "live.text", 0 ],
			"obj-5::obj-93" : [ "VST1_threshold[2]", "VST1_threshold", 0 ],
			"obj-5::obj-97" : [ "amxd~[11]", "live.text", 0 ],
			"obj-5::obj-98" : [ "amxd~[12]", "live.text", 0 ],
			"obj-5::obj-99" : [ "amxd~[13]", "live.text", 0 ],
			"obj-6::obj-100" : [ "VST4_size[3]", "size", 0 ],
			"obj-6::obj-107" : [ "vst~[11]", "vst~[3]", 0 ],
			"obj-6::obj-111" : [ "VST2_HPF[3]", "live.text[8]", 0 ],
			"obj-6::obj-112" : [ "VST2_LPF[3]", "live.text[8]", 0 ],
			"obj-6::obj-113" : [ "VST2_HPFfreq[3]", "freq.", 0 ],
			"obj-6::obj-115" : [ "VST2_LPFfreq[3]", "freq.", 0 ],
			"obj-6::obj-116" : [ "VST2_LPFq[3]", "Q", 0 ],
			"obj-6::obj-119" : [ "VST2_HPFq[3]", "Q", 0 ],
			"obj-6::obj-11::obj-71" : [ "bCueIn[14]", "live.text", 0 ],
			"obj-6::obj-125" : [ "VST2_drywet[3]", "dry/wet", 0 ],
			"obj-6::obj-138" : [ "VST4_lowcut[3]", "low-cut", 0 ],
			"obj-6::obj-139" : [ "VST4_highcut[3]", "high-cut", 0 ],
			"obj-6::obj-143" : [ "VST4_damplow[3]", "live.text[10]", 0 ],
			"obj-6::obj-145" : [ "VST4_damphigh[3]", "live.text[10]", 0 ],
			"obj-6::obj-148" : [ "VST4_damplowfreq[3]", "freq.", 0 ],
			"obj-6::obj-150" : [ "VST2_HPFslope[3]", "VST2_HPFslope", 0 ],
			"obj-6::obj-156" : [ "VST2_LPFslope[3]", "umenu", 0 ],
			"obj-6::obj-15::obj-13" : [ "fGainOut[14]", "out", 0 ],
			"obj-6::obj-15::obj-71" : [ "bCueOut[14]", "live.text", 0 ],
			"obj-6::obj-170" : [ "VST1_LPF[3]", "live.text[8]", 0 ],
			"obj-6::obj-171" : [ "VST1_HPF[3]", "live.text[8]", 0 ],
			"obj-6::obj-196" : [ "VST4_predelay[3]", "slider", 0 ],
			"obj-6::obj-1::obj-13" : [ "fGainOut[13]", "out", 0 ],
			"obj-6::obj-1::obj-71" : [ "bCueOut[13]", "live.text", 0 ],
			"obj-6::obj-214" : [ "VST4_damphighfreq[3]", "freq.", 0 ],
			"obj-6::obj-23::obj-71" : [ "bCueIn[15]", "live.text", 0 ],
			"obj-6::obj-25::obj-13" : [ "fGainOut[15]", "out", 0 ],
			"obj-6::obj-25::obj-71" : [ "bCueOut[15]", "live.text", 0 ],
			"obj-6::obj-286" : [ "VST4_drywet[3]", "dry/wet", 0 ],
			"obj-6::obj-297" : [ "VST4_length[3]", "length", 0 ],
			"obj-6::obj-33" : [ "VST3_freeze[3]", "live.text[12]", 0 ],
			"obj-6::obj-35::obj-13" : [ "fGainOut[12]", "out", 0 ],
			"obj-6::obj-35::obj-71" : [ "bCueOut[12]", "live.text", 0 ],
			"obj-6::obj-38" : [ "bDelTap[5]", "tap", 0 ],
			"obj-6::obj-42" : [ "VST3_time[3]", "slider", 0 ],
			"obj-6::obj-5" : [ "vst~[9]", "vst~", 0 ],
			"obj-6::obj-51" : [ "VST3_drywet[3]", "dry/wet", 0 ],
			"obj-6::obj-52" : [ "VST3_mode[3]", "live.tab", 0 ],
			"obj-6::obj-65::obj-71" : [ "bCueIn[12]", "live.text", 0 ],
			"obj-6::obj-66::obj-71" : [ "bCueIn[13]", "live.text", 0 ],
			"obj-6::obj-69" : [ "VST3_feedback[3]", "feedback", 0 ],
			"obj-6::obj-85" : [ "vst~[10]", "vst~[1]", 0 ],
			"obj-6::obj-86" : [ "vst~[12]", "vst~[1]", 0 ],
			"obj-6::obj-92" : [ "amxd~[18]", "live.text", 0 ],
			"obj-6::obj-93" : [ "VST1_threshold[3]", "VST1_threshold", 0 ],
			"obj-6::obj-97" : [ "amxd~[17]", "live.text", 0 ],
			"obj-6::obj-98" : [ "amxd~[16]", "live.text", 0 ],
			"obj-6::obj-99" : [ "amxd~[15]", "live.text", 0 ],
			"parameterbanks" : 			{
				"0" : 				{
					"index" : 0,
					"name" : "",
					"parameters" : [ "-", "-", "-", "-", "-", "-", "-", "-" ]
				}

			}
,
			"parameter_overrides" : 			{
				"obj-3::obj-11::obj-71" : 				{
					"parameter_longname" : "bCueIn[2]"
				}
,
				"obj-3::obj-15::obj-13" : 				{
					"parameter_longname" : "fGainOut[2]"
				}
,
				"obj-3::obj-15::obj-71" : 				{
					"parameter_longname" : "bCueOut[2]"
				}
,
				"obj-3::obj-1::obj-13" : 				{
					"parameter_longname" : "fGainOut[1]"
				}
,
				"obj-3::obj-1::obj-71" : 				{
					"parameter_longname" : "bCueOut[1]"
				}
,
				"obj-3::obj-23::obj-71" : 				{
					"parameter_longname" : "bCueIn[3]"
				}
,
				"obj-3::obj-25::obj-13" : 				{
					"parameter_longname" : "fGainOut[3]"
				}
,
				"obj-3::obj-25::obj-71" : 				{
					"parameter_longname" : "bCueOut[3]"
				}
,
				"obj-3::obj-66::obj-71" : 				{
					"parameter_longname" : "bCueIn[1]"
				}
,
				"obj-4::obj-100" : 				{
					"parameter_longname" : "VST4_size[1]"
				}
,
				"obj-4::obj-111" : 				{
					"parameter_longname" : "VST2_HPF[1]"
				}
,
				"obj-4::obj-112" : 				{
					"parameter_longname" : "VST2_LPF[1]"
				}
,
				"obj-4::obj-113" : 				{
					"parameter_longname" : "VST2_HPFfreq[1]"
				}
,
				"obj-4::obj-115" : 				{
					"parameter_longname" : "VST2_LPFfreq[1]"
				}
,
				"obj-4::obj-116" : 				{
					"parameter_longname" : "VST2_LPFq[1]"
				}
,
				"obj-4::obj-119" : 				{
					"parameter_longname" : "VST2_HPFq[1]"
				}
,
				"obj-4::obj-11::obj-71" : 				{
					"parameter_longname" : "bCueIn[6]"
				}
,
				"obj-4::obj-125" : 				{
					"parameter_longname" : "VST2_drywet[1]"
				}
,
				"obj-4::obj-138" : 				{
					"parameter_longname" : "VST4_lowcut[1]"
				}
,
				"obj-4::obj-139" : 				{
					"parameter_longname" : "VST4_highcut[1]"
				}
,
				"obj-4::obj-143" : 				{
					"parameter_longname" : "VST4_damplow[1]"
				}
,
				"obj-4::obj-145" : 				{
					"parameter_longname" : "VST4_damphigh[1]"
				}
,
				"obj-4::obj-148" : 				{
					"parameter_longname" : "VST4_damplowfreq[1]"
				}
,
				"obj-4::obj-15::obj-13" : 				{
					"parameter_longname" : "fGainOut[6]"
				}
,
				"obj-4::obj-15::obj-71" : 				{
					"parameter_longname" : "bCueOut[6]"
				}
,
				"obj-4::obj-170" : 				{
					"parameter_longname" : "VST1_LPF[1]"
				}
,
				"obj-4::obj-171" : 				{
					"parameter_longname" : "VST1_HPF[1]"
				}
,
				"obj-4::obj-1::obj-13" : 				{
					"parameter_longname" : "fGainOut[5]"
				}
,
				"obj-4::obj-1::obj-71" : 				{
					"parameter_longname" : "bCueOut[5]"
				}
,
				"obj-4::obj-214" : 				{
					"parameter_longname" : "VST4_damphighfreq[1]"
				}
,
				"obj-4::obj-23::obj-71" : 				{
					"parameter_longname" : "bCueIn[7]"
				}
,
				"obj-4::obj-25::obj-13" : 				{
					"parameter_longname" : "fGainOut[7]"
				}
,
				"obj-4::obj-25::obj-71" : 				{
					"parameter_longname" : "bCueOut[7]"
				}
,
				"obj-4::obj-286" : 				{
					"parameter_longname" : "VST4_drywet[1]"
				}
,
				"obj-4::obj-297" : 				{
					"parameter_longname" : "VST4_length[1]"
				}
,
				"obj-4::obj-33" : 				{
					"parameter_longname" : "VST3_freeze[1]"
				}
,
				"obj-4::obj-35::obj-13" : 				{
					"parameter_longname" : "fGainOut[4]"
				}
,
				"obj-4::obj-35::obj-71" : 				{
					"parameter_longname" : "bCueOut[4]"
				}
,
				"obj-4::obj-38" : 				{
					"parameter_longname" : "bDelTap[3]"
				}
,
				"obj-4::obj-51" : 				{
					"parameter_longname" : "VST3_drywet[1]"
				}
,
				"obj-4::obj-52" : 				{
					"parameter_longname" : "VST3_mode[1]"
				}
,
				"obj-4::obj-65::obj-71" : 				{
					"parameter_longname" : "bCueIn[4]"
				}
,
				"obj-4::obj-66::obj-71" : 				{
					"parameter_longname" : "bCueIn[5]"
				}
,
				"obj-4::obj-69" : 				{
					"parameter_longname" : "VST3_feedback[1]"
				}
,
				"obj-4::obj-92" : 				{
					"parameter_longname" : "amxd~[10]"
				}
,
				"obj-4::obj-97" : 				{
					"parameter_longname" : "amxd~[7]"
				}
,
				"obj-4::obj-98" : 				{
					"parameter_longname" : "amxd~[8]"
				}
,
				"obj-4::obj-99" : 				{
					"parameter_longname" : "amxd~[9]"
				}
,
				"obj-5::obj-100" : 				{
					"parameter_longname" : "VST4_size[2]"
				}
,
				"obj-5::obj-111" : 				{
					"parameter_longname" : "VST2_HPF[2]"
				}
,
				"obj-5::obj-112" : 				{
					"parameter_longname" : "VST2_LPF[2]"
				}
,
				"obj-5::obj-113" : 				{
					"parameter_longname" : "VST2_HPFfreq[2]"
				}
,
				"obj-5::obj-115" : 				{
					"parameter_longname" : "VST2_LPFfreq[2]"
				}
,
				"obj-5::obj-116" : 				{
					"parameter_longname" : "VST2_LPFq[2]"
				}
,
				"obj-5::obj-119" : 				{
					"parameter_longname" : "VST2_HPFq[2]"
				}
,
				"obj-5::obj-11::obj-71" : 				{
					"parameter_longname" : "bCueIn[10]"
				}
,
				"obj-5::obj-125" : 				{
					"parameter_longname" : "VST2_drywet[2]"
				}
,
				"obj-5::obj-138" : 				{
					"parameter_longname" : "VST4_lowcut[2]"
				}
,
				"obj-5::obj-139" : 				{
					"parameter_longname" : "VST4_highcut[2]"
				}
,
				"obj-5::obj-143" : 				{
					"parameter_longname" : "VST4_damplow[2]"
				}
,
				"obj-5::obj-145" : 				{
					"parameter_longname" : "VST4_damphigh[2]"
				}
,
				"obj-5::obj-148" : 				{
					"parameter_longname" : "VST4_damplowfreq[2]"
				}
,
				"obj-5::obj-15::obj-13" : 				{
					"parameter_longname" : "fGainOut[10]"
				}
,
				"obj-5::obj-15::obj-71" : 				{
					"parameter_longname" : "bCueOut[10]"
				}
,
				"obj-5::obj-170" : 				{
					"parameter_longname" : "VST1_LPF[2]"
				}
,
				"obj-5::obj-171" : 				{
					"parameter_longname" : "VST1_HPF[2]"
				}
,
				"obj-5::obj-1::obj-13" : 				{
					"parameter_longname" : "fGainOut[9]"
				}
,
				"obj-5::obj-1::obj-71" : 				{
					"parameter_longname" : "bCueOut[9]"
				}
,
				"obj-5::obj-214" : 				{
					"parameter_longname" : "VST4_damphighfreq[2]"
				}
,
				"obj-5::obj-23::obj-71" : 				{
					"parameter_longname" : "bCueIn[11]"
				}
,
				"obj-5::obj-25::obj-13" : 				{
					"parameter_longname" : "fGainOut[11]"
				}
,
				"obj-5::obj-25::obj-71" : 				{
					"parameter_longname" : "bCueOut[11]"
				}
,
				"obj-5::obj-286" : 				{
					"parameter_longname" : "VST4_drywet[2]"
				}
,
				"obj-5::obj-297" : 				{
					"parameter_longname" : "VST4_length[2]"
				}
,
				"obj-5::obj-33" : 				{
					"parameter_longname" : "VST3_freeze[2]"
				}
,
				"obj-5::obj-35::obj-13" : 				{
					"parameter_longname" : "fGainOut[8]"
				}
,
				"obj-5::obj-35::obj-71" : 				{
					"parameter_longname" : "bCueOut[8]"
				}
,
				"obj-5::obj-38" : 				{
					"parameter_longname" : "bDelTap[4]"
				}
,
				"obj-5::obj-51" : 				{
					"parameter_longname" : "VST3_drywet[2]"
				}
,
				"obj-5::obj-52" : 				{
					"parameter_longname" : "VST3_mode[2]"
				}
,
				"obj-5::obj-65::obj-71" : 				{
					"parameter_longname" : "bCueIn[8]"
				}
,
				"obj-5::obj-66::obj-71" : 				{
					"parameter_longname" : "bCueIn[9]"
				}
,
				"obj-5::obj-69" : 				{
					"parameter_longname" : "VST3_feedback[2]"
				}
,
				"obj-5::obj-92" : 				{
					"parameter_longname" : "amxd~[14]"
				}
,
				"obj-5::obj-97" : 				{
					"parameter_longname" : "amxd~[11]"
				}
,
				"obj-5::obj-98" : 				{
					"parameter_longname" : "amxd~[12]"
				}
,
				"obj-5::obj-99" : 				{
					"parameter_longname" : "amxd~[13]"
				}
,
				"obj-6::obj-100" : 				{
					"parameter_longname" : "VST4_size[3]"
				}
,
				"obj-6::obj-111" : 				{
					"parameter_longname" : "VST2_HPF[3]"
				}
,
				"obj-6::obj-112" : 				{
					"parameter_longname" : "VST2_LPF[3]"
				}
,
				"obj-6::obj-113" : 				{
					"parameter_longname" : "VST2_HPFfreq[3]"
				}
,
				"obj-6::obj-115" : 				{
					"parameter_longname" : "VST2_LPFfreq[3]"
				}
,
				"obj-6::obj-116" : 				{
					"parameter_longname" : "VST2_LPFq[3]"
				}
,
				"obj-6::obj-119" : 				{
					"parameter_longname" : "VST2_HPFq[3]"
				}
,
				"obj-6::obj-11::obj-71" : 				{
					"parameter_longname" : "bCueIn[14]"
				}
,
				"obj-6::obj-125" : 				{
					"parameter_longname" : "VST2_drywet[3]"
				}
,
				"obj-6::obj-138" : 				{
					"parameter_longname" : "VST4_lowcut[3]"
				}
,
				"obj-6::obj-139" : 				{
					"parameter_longname" : "VST4_highcut[3]"
				}
,
				"obj-6::obj-143" : 				{
					"parameter_longname" : "VST4_damplow[3]"
				}
,
				"obj-6::obj-145" : 				{
					"parameter_longname" : "VST4_damphigh[3]"
				}
,
				"obj-6::obj-148" : 				{
					"parameter_longname" : "VST4_damplowfreq[3]"
				}
,
				"obj-6::obj-15::obj-13" : 				{
					"parameter_longname" : "fGainOut[14]"
				}
,
				"obj-6::obj-15::obj-71" : 				{
					"parameter_longname" : "bCueOut[14]"
				}
,
				"obj-6::obj-170" : 				{
					"parameter_longname" : "VST1_LPF[3]"
				}
,
				"obj-6::obj-171" : 				{
					"parameter_longname" : "VST1_HPF[3]"
				}
,
				"obj-6::obj-1::obj-13" : 				{
					"parameter_longname" : "fGainOut[13]"
				}
,
				"obj-6::obj-1::obj-71" : 				{
					"parameter_longname" : "bCueOut[13]"
				}
,
				"obj-6::obj-214" : 				{
					"parameter_longname" : "VST4_damphighfreq[3]"
				}
,
				"obj-6::obj-23::obj-71" : 				{
					"parameter_longname" : "bCueIn[15]"
				}
,
				"obj-6::obj-25::obj-13" : 				{
					"parameter_longname" : "fGainOut[15]"
				}
,
				"obj-6::obj-25::obj-71" : 				{
					"parameter_longname" : "bCueOut[15]"
				}
,
				"obj-6::obj-286" : 				{
					"parameter_longname" : "VST4_drywet[3]"
				}
,
				"obj-6::obj-297" : 				{
					"parameter_longname" : "VST4_length[3]"
				}
,
				"obj-6::obj-33" : 				{
					"parameter_longname" : "VST3_freeze[3]"
				}
,
				"obj-6::obj-35::obj-13" : 				{
					"parameter_longname" : "fGainOut[12]"
				}
,
				"obj-6::obj-35::obj-71" : 				{
					"parameter_longname" : "bCueOut[12]"
				}
,
				"obj-6::obj-38" : 				{
					"parameter_longname" : "bDelTap[5]"
				}
,
				"obj-6::obj-51" : 				{
					"parameter_longname" : "VST3_drywet[3]"
				}
,
				"obj-6::obj-52" : 				{
					"parameter_longname" : "VST3_mode[3]"
				}
,
				"obj-6::obj-65::obj-71" : 				{
					"parameter_longname" : "bCueIn[12]"
				}
,
				"obj-6::obj-66::obj-71" : 				{
					"parameter_longname" : "bCueIn[13]"
				}
,
				"obj-6::obj-69" : 				{
					"parameter_longname" : "VST3_feedback[3]"
				}
,
				"obj-6::obj-92" : 				{
					"parameter_longname" : "amxd~[18]"
				}
,
				"obj-6::obj-97" : 				{
					"parameter_longname" : "amxd~[17]"
				}
,
				"obj-6::obj-98" : 				{
					"parameter_longname" : "amxd~[16]"
				}
,
				"obj-6::obj-99" : 				{
					"parameter_longname" : "amxd~[15]"
				}

			}
,
			"inherited_shortname" : 1
		}
,
		"dependency_cache" : [ 			{
				"name" : "FX_1ch.maxpat",
				"bootpath" : "~/Desktop/StS_producer/StS_producer/patchers",
				"patcherrelativepath" : ".",
				"type" : "JSON",
				"implicit" : 1
			}
, 			{
				"name" : "thru.maxpat",
				"bootpath" : "C74:/patchers/m4l/Pluggo for Live resources/patches",
				"type" : "JSON",
				"implicit" : 1
			}
, 			{
				"name" : "utils_cueIN.maxpat",
				"bootpath" : "~/Desktop/StS_producer/StS_producer/patchers",
				"patcherrelativepath" : ".",
				"type" : "JSON",
				"implicit" : 1
			}
, 			{
				"name" : "utils_cueOUT.maxpat",
				"bootpath" : "~/Desktop/StS_producer/StS_producer/patchers",
				"patcherrelativepath" : ".",
				"type" : "JSON",
				"implicit" : 1
			}
 ],
		"autosave" : 0
	}

}
