{
	"patcher" : 	{
		"fileversion" : 1,
		"appversion" : 		{
			"major" : 8,
			"minor" : 2,
			"revision" : 2,
			"architecture" : "x64",
			"modernui" : 1
		}
,
		"classnamespace" : "box",
		"rect" : [ 34.0, 77.0, 1326.0, 1059.0 ],
		"bglocked" : 0,
		"openinpresentation" : 1,
		"default_fontsize" : 12.0,
		"default_fontface" : 0,
		"default_fontname" : "Arial",
		"gridonopen" : 1,
		"gridsize" : [ 15.0, 15.0 ],
		"gridsnaponopen" : 1,
		"objectsnaponopen" : 1,
		"statusbarvisible" : 2,
		"toolbarvisible" : 1,
		"lefttoolbarpinned" : 0,
		"toptoolbarpinned" : 0,
		"righttoolbarpinned" : 0,
		"bottomtoolbarpinned" : 0,
		"toolbars_unpinned_last_save" : 0,
		"tallnewobj" : 0,
		"boxanimatetime" : 200,
		"enablehscroll" : 1,
		"enablevscroll" : 1,
		"devicewidth" : 0.0,
		"description" : "",
		"digest" : "",
		"tags" : "",
		"style" : "",
		"subpatcher_template" : "",
		"assistshowspatchername" : 0,
		"boxes" : [ 			{
				"box" : 				{
					"bgmode" : 0,
					"border" : 0,
					"clickthrough" : 0,
					"enablehscroll" : 0,
					"enablevscroll" : 0,
					"id" : "obj-44",
					"lockeddragscroll" : 0,
					"lockedsize" : 0,
					"maxclass" : "bpatcher",
					"name" : "fxSend.maxpat",
					"numinlets" : 1,
					"numoutlets" : 0,
					"offset" : [ 1.0, 1.0 ],
					"patching_rect" : [ 1058.78430300951004, 368.0, 136.0, 300.0 ],
					"presentation" : 1,
					"presentation_rect" : [ 998.28430300951004, 125.105261325836182, 136.0, 300.0 ],
					"viewvisibility" : 1
				}

			}
, 			{
				"box" : 				{
					"bgmode" : 0,
					"border" : 0,
					"clickthrough" : 0,
					"enablehscroll" : 0,
					"enablevscroll" : 0,
					"id" : "obj-45",
					"lockeddragscroll" : 0,
					"lockedsize" : 0,
					"maxclass" : "bpatcher",
					"name" : "fxSend.maxpat",
					"numinlets" : 1,
					"numoutlets" : 0,
					"offset" : [ 2.0, 0.0 ],
					"patching_rect" : [ 918.78430300951004, 368.0, 136.0, 300.0 ],
					"presentation" : 1,
					"presentation_rect" : [ 858.28430300951004, 125.105261325836182, 136.0, 300.0 ],
					"viewvisibility" : 1
				}

			}
, 			{
				"box" : 				{
					"bgmode" : 0,
					"border" : 0,
					"clickthrough" : 0,
					"enablehscroll" : 0,
					"enablevscroll" : 0,
					"id" : "obj-41",
					"lockeddragscroll" : 0,
					"lockedsize" : 0,
					"maxclass" : "bpatcher",
					"name" : "fxSend.maxpat",
					"numinlets" : 1,
					"numoutlets" : 0,
					"offset" : [ 1.0, 1.0 ],
					"patching_rect" : [ 778.5, 368.0, 136.0, 300.0 ],
					"presentation" : 1,
					"presentation_rect" : [ 718.0, 125.105261325836182, 136.0, 300.0 ],
					"viewvisibility" : 1
				}

			}
, 			{
				"box" : 				{
					"bgmode" : 0,
					"border" : 0,
					"clickthrough" : 0,
					"enablehscroll" : 0,
					"enablevscroll" : 0,
					"id" : "obj-42",
					"lockeddragscroll" : 0,
					"lockedsize" : 0,
					"maxclass" : "bpatcher",
					"name" : "fxSend.maxpat",
					"numinlets" : 1,
					"numoutlets" : 0,
					"offset" : [ 2.0, 0.0 ],
					"patching_rect" : [ 638.5, 368.0, 136.0, 300.0 ],
					"presentation" : 1,
					"presentation_rect" : [ 578.0, 125.105261325836182, 136.0, 300.0 ],
					"viewvisibility" : 1
				}

			}
, 			{
				"box" : 				{
					"bgmode" : 0,
					"border" : 0,
					"clickthrough" : 0,
					"enablehscroll" : 0,
					"enablevscroll" : 0,
					"id" : "obj-43",
					"lockeddragscroll" : 0,
					"lockedsize" : 0,
					"maxclass" : "bpatcher",
					"name" : "fxSend.maxpat",
					"numinlets" : 1,
					"numoutlets" : 0,
					"offset" : [ 1.0, -1.0 ],
					"patching_rect" : [ 498.5, 368.0, 136.0, 300.0 ],
					"presentation" : 1,
					"presentation_rect" : [ 438.0, 125.105261325836182, 136.0, 300.0 ],
					"viewvisibility" : 1
				}

			}
, 			{
				"box" : 				{
					"bgmode" : 0,
					"border" : 0,
					"clickthrough" : 0,
					"enablehscroll" : 0,
					"enablevscroll" : 0,
					"id" : "obj-40",
					"lockeddragscroll" : 0,
					"lockedsize" : 0,
					"maxclass" : "bpatcher",
					"name" : "fxSend.maxpat",
					"numinlets" : 1,
					"numoutlets" : 0,
					"offset" : [ 1.0, 1.0 ],
					"patching_rect" : [ 360.0, 368.0, 136.0, 300.0 ],
					"presentation" : 1,
					"presentation_rect" : [ 299.5, 125.105261325836182, 136.0, 300.0 ],
					"viewvisibility" : 1
				}

			}
, 			{
				"box" : 				{
					"bgmode" : 0,
					"border" : 0,
					"clickthrough" : 0,
					"enablehscroll" : 0,
					"enablevscroll" : 0,
					"id" : "obj-36",
					"lockeddragscroll" : 0,
					"lockedsize" : 0,
					"maxclass" : "bpatcher",
					"name" : "fxSend.maxpat",
					"numinlets" : 1,
					"numoutlets" : 0,
					"offset" : [ 2.0, 0.0 ],
					"patching_rect" : [ 220.0, 368.0, 136.0, 300.0 ],
					"presentation" : 1,
					"presentation_rect" : [ 159.5, 125.105261325836182, 136.0, 300.0 ],
					"viewvisibility" : 1
				}

			}
, 			{
				"box" : 				{
					"bgmode" : 0,
					"border" : 0,
					"clickthrough" : 0,
					"enablehscroll" : 0,
					"enablevscroll" : 0,
					"id" : "obj-120",
					"lockeddragscroll" : 0,
					"lockedsize" : 0,
					"maxclass" : "bpatcher",
					"name" : "fxSend.maxpat",
					"numinlets" : 1,
					"numoutlets" : 0,
					"offset" : [ 0.0, 0.0 ],
					"patching_rect" : [ 80.0, 368.0, 136.0, 300.0 ],
					"presentation" : 1,
					"presentation_rect" : [ 21.5, 125.105261325836182, 136.0, 300.0 ],
					"viewvisibility" : 1
				}

			}
, 			{
				"box" : 				{
					"id" : "obj-58",
					"maxclass" : "meter~",
					"numinlets" : 1,
					"numoutlets" : 1,
					"outlettype" : [ "float" ],
					"patching_rect" : [ 887.0, 169.0, 12.0, 88.0 ],
					"presentation" : 1,
					"presentation_rect" : [ 1060.28430300951004, 35.105261325836182, 12.0, 88.0 ]
				}

			}
, 			{
				"box" : 				{
					"id" : "obj-60",
					"maxclass" : "newobj",
					"numinlets" : 1,
					"numoutlets" : 0,
					"patching_rect" : [ 843.0, 259.0, 101.0, 22.0 ],
					"text" : "send~ to_phones"
				}

			}
, 			{
				"box" : 				{
					"id" : "obj-62",
					"maxclass" : "newobj",
					"numinlets" : 2,
					"numoutlets" : 1,
					"outlettype" : [ "signal" ],
					"patching_rect" : [ 843.0, 131.0, 39.0, 22.0 ],
					"text" : "gate~"
				}

			}
, 			{
				"box" : 				{
					"activebgcolor" : [ 1.0, 1.0, 1.0, 1.0 ],
					"activetextcolor" : [ 0.501960784313725, 0.501960784313725, 0.501960784313725, 1.0 ],
					"activetextoncolor" : [ 0.501960784313725, 0.501960784313725, 0.501960784313725, 1.0 ],
					"bgcolor" : [ 1.0, 1.0, 1.0, 1.0 ],
					"bordercolor" : [ 0.501960784313725, 0.501960784313725, 0.501960784313725, 0.0 ],
					"focusbordercolor" : [ 0.501960784313725, 0.501960784313725, 0.501960784313725, 0.0 ],
					"fontface" : 1,
					"fontsize" : 12.0,
					"id" : "obj-63",
					"inactivelcdcolor" : [ 0.501960784313725, 0.501960784313725, 0.501960784313725, 1.0 ],
					"lcdbgcolor" : [ 1.0, 1.0, 1.0, 1.0 ],
					"lcdcolor" : [ 0.501960784313725, 0.501960784313725, 0.501960784313725, 1.0 ],
					"maxclass" : "live.text",
					"numinlets" : 1,
					"numoutlets" : 2,
					"outlettype" : [ "", "" ],
					"parameter_enable" : 1,
					"patching_rect" : [ 843.0, 101.105261325836182, 37.77777773141861, 22.0 ],
					"presentation" : 1,
					"presentation_rect" : [ 1026.506525278091431, 35.105261325836182, 37.77777773141861, 22.0 ],
					"saved_attribute_attributes" : 					{
						"activebgcolor" : 						{
							"expression" : ""
						}
,
						"activetextcolor" : 						{
							"expression" : ""
						}
,
						"activetextoncolor" : 						{
							"expression" : ""
						}
,
						"bgcolor" : 						{
							"expression" : ""
						}
,
						"bordercolor" : 						{
							"expression" : ""
						}
,
						"focusbordercolor" : 						{
							"expression" : ""
						}
,
						"inactivelcdcolor" : 						{
							"expression" : ""
						}
,
						"lcdbgcolor" : 						{
							"expression" : ""
						}
,
						"lcdcolor" : 						{
							"expression" : ""
						}
,
						"valueof" : 						{
							"parameter_enum" : [ "val1", "val2" ],
							"parameter_longname" : "live.text[7]",
							"parameter_mmax" : 1.0,
							"parameter_shortname" : "live.text",
							"parameter_type" : 1
						}

					}
,
					"text" : "PFL",
					"texton" : "PFL",
					"varname" : "live.text[7]"
				}

			}
, 			{
				"box" : 				{
					"id" : "obj-38",
					"maxclass" : "meter~",
					"numinlets" : 1,
					"numoutlets" : 1,
					"outlettype" : [ "float" ],
					"patching_rect" : [ 778.0, 169.0, 12.0, 88.0 ],
					"presentation" : 1,
					"presentation_rect" : [ 920.28430300951004, 35.105261325836182, 12.0, 88.0 ]
				}

			}
, 			{
				"box" : 				{
					"id" : "obj-39",
					"maxclass" : "newobj",
					"numinlets" : 1,
					"numoutlets" : 0,
					"patching_rect" : [ 734.0, 259.0, 101.0, 22.0 ],
					"text" : "send~ to_phones"
				}

			}
, 			{
				"box" : 				{
					"id" : "obj-54",
					"maxclass" : "newobj",
					"numinlets" : 2,
					"numoutlets" : 1,
					"outlettype" : [ "signal" ],
					"patching_rect" : [ 734.0, 131.0, 39.0, 22.0 ],
					"text" : "gate~"
				}

			}
, 			{
				"box" : 				{
					"activebgcolor" : [ 1.0, 1.0, 1.0, 1.0 ],
					"activetextcolor" : [ 0.501960784313725, 0.501960784313725, 0.501960784313725, 1.0 ],
					"activetextoncolor" : [ 0.501960784313725, 0.501960784313725, 0.501960784313725, 1.0 ],
					"bgcolor" : [ 1.0, 1.0, 1.0, 1.0 ],
					"bordercolor" : [ 0.501960784313725, 0.501960784313725, 0.501960784313725, 0.0 ],
					"focusbordercolor" : [ 0.501960784313725, 0.501960784313725, 0.501960784313725, 0.0 ],
					"fontface" : 1,
					"fontsize" : 12.0,
					"id" : "obj-56",
					"inactivelcdcolor" : [ 0.501960784313725, 0.501960784313725, 0.501960784313725, 1.0 ],
					"lcdbgcolor" : [ 1.0, 1.0, 1.0, 1.0 ],
					"lcdcolor" : [ 0.501960784313725, 0.501960784313725, 0.501960784313725, 1.0 ],
					"maxclass" : "live.text",
					"numinlets" : 1,
					"numoutlets" : 2,
					"outlettype" : [ "", "" ],
					"parameter_enable" : 1,
					"patching_rect" : [ 734.0, 101.105261325836182, 37.77777773141861, 22.0 ],
					"presentation" : 1,
					"presentation_rect" : [ 885.72222226858139, 35.105261325836182, 37.77777773141861, 22.0 ],
					"saved_attribute_attributes" : 					{
						"activebgcolor" : 						{
							"expression" : ""
						}
,
						"activetextcolor" : 						{
							"expression" : ""
						}
,
						"activetextoncolor" : 						{
							"expression" : ""
						}
,
						"bgcolor" : 						{
							"expression" : ""
						}
,
						"bordercolor" : 						{
							"expression" : ""
						}
,
						"focusbordercolor" : 						{
							"expression" : ""
						}
,
						"inactivelcdcolor" : 						{
							"expression" : ""
						}
,
						"lcdbgcolor" : 						{
							"expression" : ""
						}
,
						"lcdcolor" : 						{
							"expression" : ""
						}
,
						"valueof" : 						{
							"parameter_enum" : [ "val1", "val2" ],
							"parameter_longname" : "live.text[6]",
							"parameter_mmax" : 1.0,
							"parameter_shortname" : "live.text",
							"parameter_type" : 1
						}

					}
,
					"text" : "PFL",
					"texton" : "PFL",
					"varname" : "live.text[6]"
				}

			}
, 			{
				"box" : 				{
					"id" : "obj-33",
					"maxclass" : "meter~",
					"numinlets" : 1,
					"numoutlets" : 1,
					"outlettype" : [ "float" ],
					"patching_rect" : [ 669.0, 169.0, 12.0, 88.0 ],
					"presentation" : 1,
					"presentation_rect" : [ 780.0, 35.105261325836182, 12.0, 88.0 ]
				}

			}
, 			{
				"box" : 				{
					"id" : "obj-34",
					"maxclass" : "newobj",
					"numinlets" : 1,
					"numoutlets" : 0,
					"patching_rect" : [ 625.0, 259.0, 101.0, 22.0 ],
					"text" : "send~ to_phones"
				}

			}
, 			{
				"box" : 				{
					"id" : "obj-35",
					"maxclass" : "newobj",
					"numinlets" : 2,
					"numoutlets" : 1,
					"outlettype" : [ "signal" ],
					"patching_rect" : [ 625.0, 131.0, 39.0, 22.0 ],
					"text" : "gate~"
				}

			}
, 			{
				"box" : 				{
					"activebgcolor" : [ 1.0, 1.0, 1.0, 1.0 ],
					"activetextcolor" : [ 0.501960784313725, 0.501960784313725, 0.501960784313725, 1.0 ],
					"activetextoncolor" : [ 0.501960784313725, 0.501960784313725, 0.501960784313725, 1.0 ],
					"bgcolor" : [ 1.0, 1.0, 1.0, 1.0 ],
					"bordercolor" : [ 0.501960784313725, 0.501960784313725, 0.501960784313725, 0.0 ],
					"focusbordercolor" : [ 0.501960784313725, 0.501960784313725, 0.501960784313725, 0.0 ],
					"fontface" : 1,
					"fontsize" : 12.0,
					"id" : "obj-37",
					"inactivelcdcolor" : [ 0.501960784313725, 0.501960784313725, 0.501960784313725, 1.0 ],
					"lcdbgcolor" : [ 1.0, 1.0, 1.0, 1.0 ],
					"lcdcolor" : [ 0.501960784313725, 0.501960784313725, 0.501960784313725, 1.0 ],
					"maxclass" : "live.text",
					"numinlets" : 1,
					"numoutlets" : 2,
					"outlettype" : [ "", "" ],
					"parameter_enable" : 1,
					"patching_rect" : [ 625.0, 101.105261325836182, 37.77777773141861, 22.0 ],
					"presentation" : 1,
					"presentation_rect" : [ 745.72222226858139, 35.105261325836182, 37.77777773141861, 22.0 ],
					"saved_attribute_attributes" : 					{
						"activebgcolor" : 						{
							"expression" : ""
						}
,
						"activetextcolor" : 						{
							"expression" : ""
						}
,
						"activetextoncolor" : 						{
							"expression" : ""
						}
,
						"bgcolor" : 						{
							"expression" : ""
						}
,
						"bordercolor" : 						{
							"expression" : ""
						}
,
						"focusbordercolor" : 						{
							"expression" : ""
						}
,
						"inactivelcdcolor" : 						{
							"expression" : ""
						}
,
						"lcdbgcolor" : 						{
							"expression" : ""
						}
,
						"lcdcolor" : 						{
							"expression" : ""
						}
,
						"valueof" : 						{
							"parameter_enum" : [ "val1", "val2" ],
							"parameter_longname" : "live.text[5]",
							"parameter_mmax" : 1.0,
							"parameter_shortname" : "live.text",
							"parameter_type" : 1
						}

					}
,
					"text" : "PFL",
					"texton" : "PFL",
					"varname" : "live.text[5]"
				}

			}
, 			{
				"box" : 				{
					"id" : "obj-28",
					"maxclass" : "meter~",
					"numinlets" : 1,
					"numoutlets" : 1,
					"outlettype" : [ "float" ],
					"patching_rect" : [ 560.0, 169.0, 12.0, 88.0 ],
					"presentation" : 1,
					"presentation_rect" : [ 640.0, 35.105261325836182, 12.0, 88.0 ]
				}

			}
, 			{
				"box" : 				{
					"id" : "obj-30",
					"maxclass" : "newobj",
					"numinlets" : 1,
					"numoutlets" : 0,
					"patching_rect" : [ 516.0, 259.0, 101.0, 22.0 ],
					"text" : "send~ to_phones"
				}

			}
, 			{
				"box" : 				{
					"id" : "obj-31",
					"maxclass" : "newobj",
					"numinlets" : 2,
					"numoutlets" : 1,
					"outlettype" : [ "signal" ],
					"patching_rect" : [ 516.0, 131.0, 39.0, 22.0 ],
					"text" : "gate~"
				}

			}
, 			{
				"box" : 				{
					"activebgcolor" : [ 1.0, 1.0, 1.0, 1.0 ],
					"activetextcolor" : [ 0.501960784313725, 0.501960784313725, 0.501960784313725, 1.0 ],
					"activetextoncolor" : [ 0.501960784313725, 0.501960784313725, 0.501960784313725, 1.0 ],
					"bgcolor" : [ 1.0, 1.0, 1.0, 1.0 ],
					"bordercolor" : [ 0.501960784313725, 0.501960784313725, 0.501960784313725, 0.0 ],
					"focusbordercolor" : [ 0.501960784313725, 0.501960784313725, 0.501960784313725, 0.0 ],
					"fontface" : 1,
					"fontsize" : 12.0,
					"id" : "obj-32",
					"inactivelcdcolor" : [ 0.501960784313725, 0.501960784313725, 0.501960784313725, 1.0 ],
					"lcdbgcolor" : [ 1.0, 1.0, 1.0, 1.0 ],
					"lcdcolor" : [ 0.501960784313725, 0.501960784313725, 0.501960784313725, 1.0 ],
					"maxclass" : "live.text",
					"numinlets" : 1,
					"numoutlets" : 2,
					"outlettype" : [ "", "" ],
					"parameter_enable" : 1,
					"patching_rect" : [ 516.0, 101.105261325836182, 37.77777773141861, 22.0 ],
					"presentation" : 1,
					"presentation_rect" : [ 606.72222226858139, 35.105261325836182, 37.77777773141861, 22.0 ],
					"saved_attribute_attributes" : 					{
						"activebgcolor" : 						{
							"expression" : ""
						}
,
						"activetextcolor" : 						{
							"expression" : ""
						}
,
						"activetextoncolor" : 						{
							"expression" : ""
						}
,
						"bgcolor" : 						{
							"expression" : ""
						}
,
						"bordercolor" : 						{
							"expression" : ""
						}
,
						"focusbordercolor" : 						{
							"expression" : ""
						}
,
						"inactivelcdcolor" : 						{
							"expression" : ""
						}
,
						"lcdbgcolor" : 						{
							"expression" : ""
						}
,
						"lcdcolor" : 						{
							"expression" : ""
						}
,
						"valueof" : 						{
							"parameter_enum" : [ "val1", "val2" ],
							"parameter_longname" : "live.text[4]",
							"parameter_mmax" : 1.0,
							"parameter_shortname" : "live.text",
							"parameter_type" : 1
						}

					}
,
					"text" : "PFL",
					"texton" : "PFL",
					"varname" : "live.text[4]"
				}

			}
, 			{
				"box" : 				{
					"id" : "obj-24",
					"maxclass" : "meter~",
					"numinlets" : 1,
					"numoutlets" : 1,
					"outlettype" : [ "float" ],
					"patching_rect" : [ 451.0, 169.0, 12.0, 88.0 ],
					"presentation" : 1,
					"presentation_rect" : [ 500.0, 35.105261325836182, 12.0, 88.0 ]
				}

			}
, 			{
				"box" : 				{
					"id" : "obj-25",
					"maxclass" : "newobj",
					"numinlets" : 1,
					"numoutlets" : 0,
					"patching_rect" : [ 407.0, 259.0, 101.0, 22.0 ],
					"text" : "send~ to_phones"
				}

			}
, 			{
				"box" : 				{
					"id" : "obj-26",
					"maxclass" : "newobj",
					"numinlets" : 2,
					"numoutlets" : 1,
					"outlettype" : [ "signal" ],
					"patching_rect" : [ 407.0, 131.0, 39.0, 22.0 ],
					"text" : "gate~"
				}

			}
, 			{
				"box" : 				{
					"activebgcolor" : [ 1.0, 1.0, 1.0, 1.0 ],
					"activetextcolor" : [ 0.501960784313725, 0.501960784313725, 0.501960784313725, 1.0 ],
					"activetextoncolor" : [ 0.501960784313725, 0.501960784313725, 0.501960784313725, 1.0 ],
					"bgcolor" : [ 1.0, 1.0, 1.0, 1.0 ],
					"bordercolor" : [ 0.501960784313725, 0.501960784313725, 0.501960784313725, 0.0 ],
					"focusbordercolor" : [ 0.501960784313725, 0.501960784313725, 0.501960784313725, 0.0 ],
					"fontface" : 1,
					"fontsize" : 12.0,
					"id" : "obj-27",
					"inactivelcdcolor" : [ 0.501960784313725, 0.501960784313725, 0.501960784313725, 1.0 ],
					"lcdbgcolor" : [ 1.0, 1.0, 1.0, 1.0 ],
					"lcdcolor" : [ 0.501960784313725, 0.501960784313725, 0.501960784313725, 1.0 ],
					"maxclass" : "live.text",
					"numinlets" : 1,
					"numoutlets" : 2,
					"outlettype" : [ "", "" ],
					"parameter_enable" : 1,
					"patching_rect" : [ 407.0, 101.105261325836182, 37.77777773141861, 22.0 ],
					"presentation" : 1,
					"presentation_rect" : [ 466.72222226858139, 35.105261325836182, 37.77777773141861, 22.0 ],
					"saved_attribute_attributes" : 					{
						"activebgcolor" : 						{
							"expression" : ""
						}
,
						"activetextcolor" : 						{
							"expression" : ""
						}
,
						"activetextoncolor" : 						{
							"expression" : ""
						}
,
						"bgcolor" : 						{
							"expression" : ""
						}
,
						"bordercolor" : 						{
							"expression" : ""
						}
,
						"focusbordercolor" : 						{
							"expression" : ""
						}
,
						"inactivelcdcolor" : 						{
							"expression" : ""
						}
,
						"lcdbgcolor" : 						{
							"expression" : ""
						}
,
						"lcdcolor" : 						{
							"expression" : ""
						}
,
						"valueof" : 						{
							"parameter_enum" : [ "val1", "val2" ],
							"parameter_longname" : "live.text[3]",
							"parameter_mmax" : 1.0,
							"parameter_shortname" : "live.text",
							"parameter_type" : 1
						}

					}
,
					"text" : "PFL",
					"texton" : "PFL",
					"varname" : "live.text[3]"
				}

			}
, 			{
				"box" : 				{
					"id" : "obj-20",
					"maxclass" : "meter~",
					"numinlets" : 1,
					"numoutlets" : 1,
					"outlettype" : [ "float" ],
					"patching_rect" : [ 342.0, 169.0, 12.0, 88.0 ],
					"presentation" : 1,
					"presentation_rect" : [ 361.5, 35.105261325836182, 12.0, 88.0 ]
				}

			}
, 			{
				"box" : 				{
					"id" : "obj-21",
					"maxclass" : "newobj",
					"numinlets" : 1,
					"numoutlets" : 0,
					"patching_rect" : [ 298.0, 259.0, 101.0, 22.0 ],
					"text" : "send~ to_phones"
				}

			}
, 			{
				"box" : 				{
					"id" : "obj-22",
					"maxclass" : "newobj",
					"numinlets" : 2,
					"numoutlets" : 1,
					"outlettype" : [ "signal" ],
					"patching_rect" : [ 298.0, 131.0, 39.0, 22.0 ],
					"text" : "gate~"
				}

			}
, 			{
				"box" : 				{
					"activebgcolor" : [ 1.0, 1.0, 1.0, 1.0 ],
					"activetextcolor" : [ 0.501960784313725, 0.501960784313725, 0.501960784313725, 1.0 ],
					"activetextoncolor" : [ 0.501960784313725, 0.501960784313725, 0.501960784313725, 1.0 ],
					"bgcolor" : [ 1.0, 1.0, 1.0, 1.0 ],
					"bordercolor" : [ 0.501960784313725, 0.501960784313725, 0.501960784313725, 0.0 ],
					"focusbordercolor" : [ 0.501960784313725, 0.501960784313725, 0.501960784313725, 0.0 ],
					"fontface" : 1,
					"fontsize" : 12.0,
					"id" : "obj-23",
					"inactivelcdcolor" : [ 0.501960784313725, 0.501960784313725, 0.501960784313725, 1.0 ],
					"lcdbgcolor" : [ 1.0, 1.0, 1.0, 1.0 ],
					"lcdcolor" : [ 0.501960784313725, 0.501960784313725, 0.501960784313725, 1.0 ],
					"maxclass" : "live.text",
					"numinlets" : 1,
					"numoutlets" : 2,
					"outlettype" : [ "", "" ],
					"parameter_enable" : 1,
					"patching_rect" : [ 298.0, 101.105261325836182, 37.77777773141861, 22.0 ],
					"presentation" : 1,
					"presentation_rect" : [ 321.72222226858139, 35.105261325836182, 37.77777773141861, 22.0 ],
					"saved_attribute_attributes" : 					{
						"activebgcolor" : 						{
							"expression" : ""
						}
,
						"activetextcolor" : 						{
							"expression" : ""
						}
,
						"activetextoncolor" : 						{
							"expression" : ""
						}
,
						"bgcolor" : 						{
							"expression" : ""
						}
,
						"bordercolor" : 						{
							"expression" : ""
						}
,
						"focusbordercolor" : 						{
							"expression" : ""
						}
,
						"inactivelcdcolor" : 						{
							"expression" : ""
						}
,
						"lcdbgcolor" : 						{
							"expression" : ""
						}
,
						"lcdcolor" : 						{
							"expression" : ""
						}
,
						"valueof" : 						{
							"parameter_enum" : [ "val1", "val2" ],
							"parameter_longname" : "live.text[2]",
							"parameter_mmax" : 1.0,
							"parameter_shortname" : "live.text",
							"parameter_type" : 1
						}

					}
,
					"text" : "PFL",
					"texton" : "PFL",
					"varname" : "live.text[2]"
				}

			}
, 			{
				"box" : 				{
					"id" : "obj-11",
					"maxclass" : "meter~",
					"numinlets" : 1,
					"numoutlets" : 1,
					"outlettype" : [ "float" ],
					"patching_rect" : [ 233.0, 169.0, 12.0, 88.0 ],
					"presentation" : 1,
					"presentation_rect" : [ 221.71569699048996, 35.105261325836182, 12.0, 88.0 ]
				}

			}
, 			{
				"box" : 				{
					"id" : "obj-13",
					"maxclass" : "newobj",
					"numinlets" : 1,
					"numoutlets" : 0,
					"patching_rect" : [ 189.0, 259.0, 101.0, 22.0 ],
					"text" : "send~ to_phones"
				}

			}
, 			{
				"box" : 				{
					"id" : "obj-14",
					"maxclass" : "newobj",
					"numinlets" : 2,
					"numoutlets" : 1,
					"outlettype" : [ "signal" ],
					"patching_rect" : [ 189.0, 131.0, 39.0, 22.0 ],
					"text" : "gate~"
				}

			}
, 			{
				"box" : 				{
					"activebgcolor" : [ 1.0, 1.0, 1.0, 1.0 ],
					"activetextcolor" : [ 0.501960784313725, 0.501960784313725, 0.501960784313725, 1.0 ],
					"activetextoncolor" : [ 0.501960784313725, 0.501960784313725, 0.501960784313725, 1.0 ],
					"bgcolor" : [ 1.0, 1.0, 1.0, 1.0 ],
					"bordercolor" : [ 0.501960784313725, 0.501960784313725, 0.501960784313725, 0.0 ],
					"focusbordercolor" : [ 0.501960784313725, 0.501960784313725, 0.501960784313725, 0.0 ],
					"fontface" : 1,
					"fontsize" : 12.0,
					"id" : "obj-19",
					"inactivelcdcolor" : [ 0.501960784313725, 0.501960784313725, 0.501960784313725, 1.0 ],
					"lcdbgcolor" : [ 1.0, 1.0, 1.0, 1.0 ],
					"lcdcolor" : [ 0.501960784313725, 0.501960784313725, 0.501960784313725, 1.0 ],
					"maxclass" : "live.text",
					"numinlets" : 1,
					"numoutlets" : 2,
					"outlettype" : [ "", "" ],
					"parameter_enable" : 1,
					"patching_rect" : [ 189.0, 101.105261325836182, 37.77777773141861, 22.0 ],
					"presentation" : 1,
					"presentation_rect" : [ 181.72222226858139, 35.105261325836182, 37.77777773141861, 22.0 ],
					"saved_attribute_attributes" : 					{
						"activebgcolor" : 						{
							"expression" : ""
						}
,
						"activetextcolor" : 						{
							"expression" : ""
						}
,
						"activetextoncolor" : 						{
							"expression" : ""
						}
,
						"bgcolor" : 						{
							"expression" : ""
						}
,
						"bordercolor" : 						{
							"expression" : ""
						}
,
						"focusbordercolor" : 						{
							"expression" : ""
						}
,
						"inactivelcdcolor" : 						{
							"expression" : ""
						}
,
						"lcdbgcolor" : 						{
							"expression" : ""
						}
,
						"lcdcolor" : 						{
							"expression" : ""
						}
,
						"valueof" : 						{
							"parameter_enum" : [ "val1", "val2" ],
							"parameter_longname" : "live.text[1]",
							"parameter_mmax" : 1.0,
							"parameter_shortname" : "live.text",
							"parameter_type" : 1
						}

					}
,
					"text" : "PFL",
					"texton" : "PFL",
					"varname" : "live.text[1]"
				}

			}
, 			{
				"box" : 				{
					"id" : "obj-10",
					"maxclass" : "meter~",
					"numinlets" : 1,
					"numoutlets" : 1,
					"outlettype" : [ "float" ],
					"patching_rect" : [ 124.0, 169.0, 12.0, 88.0 ],
					"presentation" : 1,
					"presentation_rect" : [ 83.5, 35.105261325836182, 12.0, 88.0 ]
				}

			}
, 			{
				"box" : 				{
					"id" : "obj-9",
					"maxclass" : "newobj",
					"numinlets" : 1,
					"numoutlets" : 0,
					"patching_rect" : [ 80.0, 259.0, 101.0, 22.0 ],
					"text" : "send~ to_phones"
				}

			}
, 			{
				"box" : 				{
					"id" : "obj-8",
					"maxclass" : "newobj",
					"numinlets" : 2,
					"numoutlets" : 1,
					"outlettype" : [ "signal" ],
					"patching_rect" : [ 80.0, 131.0, 39.0, 22.0 ],
					"text" : "gate~"
				}

			}
, 			{
				"box" : 				{
					"activebgcolor" : [ 1.0, 1.0, 1.0, 1.0 ],
					"activetextcolor" : [ 0.501960784313725, 0.501960784313725, 0.501960784313725, 1.0 ],
					"activetextoncolor" : [ 0.501960784313725, 0.501960784313725, 0.501960784313725, 1.0 ],
					"bgcolor" : [ 1.0, 1.0, 1.0, 1.0 ],
					"bordercolor" : [ 0.501960784313725, 0.501960784313725, 0.501960784313725, 0.0 ],
					"focusbordercolor" : [ 0.501960784313725, 0.501960784313725, 0.501960784313725, 0.0 ],
					"fontface" : 1,
					"fontsize" : 12.0,
					"id" : "obj-29",
					"inactivelcdcolor" : [ 0.501960784313725, 0.501960784313725, 0.501960784313725, 1.0 ],
					"lcdbgcolor" : [ 1.0, 1.0, 1.0, 1.0 ],
					"lcdcolor" : [ 0.501960784313725, 0.501960784313725, 0.501960784313725, 1.0 ],
					"maxclass" : "live.text",
					"numinlets" : 1,
					"numoutlets" : 2,
					"outlettype" : [ "", "" ],
					"parameter_enable" : 1,
					"patching_rect" : [ 80.0, 101.105261325836182, 37.77777773141861, 22.0 ],
					"presentation" : 1,
					"presentation_rect" : [ 43.72222226858139, 35.105261325836182, 37.77777773141861, 22.0 ],
					"saved_attribute_attributes" : 					{
						"activebgcolor" : 						{
							"expression" : ""
						}
,
						"activetextcolor" : 						{
							"expression" : ""
						}
,
						"activetextoncolor" : 						{
							"expression" : ""
						}
,
						"bgcolor" : 						{
							"expression" : ""
						}
,
						"bordercolor" : 						{
							"expression" : ""
						}
,
						"focusbordercolor" : 						{
							"expression" : ""
						}
,
						"inactivelcdcolor" : 						{
							"expression" : ""
						}
,
						"lcdbgcolor" : 						{
							"expression" : ""
						}
,
						"lcdcolor" : 						{
							"expression" : ""
						}
,
						"valueof" : 						{
							"parameter_enum" : [ "val1", "val2" ],
							"parameter_longname" : "live.text",
							"parameter_mmax" : 1.0,
							"parameter_shortname" : "live.text",
							"parameter_type" : 1
						}

					}
,
					"text" : "PFL",
					"texton" : "PFL",
					"varname" : "live.text"
				}

			}
, 			{
				"box" : 				{
					"id" : "obj-77",
					"maxclass" : "comment",
					"numinlets" : 1,
					"numoutlets" : 0,
					"patching_rect" : [ 844.509878933429718, 17.0, 19.0, 20.0 ],
					"presentation" : 1,
					"presentation_rect" : [ 1056.78430300951004, 17.0, 19.0, 20.0 ],
					"text" : "8",
					"textjustification" : 1
				}

			}
, 			{
				"box" : 				{
					"id" : "obj-75",
					"maxclass" : "comment",
					"numinlets" : 1,
					"numoutlets" : 0,
					"patching_rect" : [ 735.093140125274658, 17.0, 19.0, 20.0 ],
					"presentation" : 1,
					"presentation_rect" : [ 916.78430300951004, 17.0, 19.0, 20.0 ],
					"text" : "7",
					"textjustification" : 1
				}

			}
, 			{
				"box" : 				{
					"id" : "obj-73",
					"maxclass" : "comment",
					"numinlets" : 1,
					"numoutlets" : 0,
					"patching_rect" : [ 626.078484952449799, 17.0, 19.0, 20.0 ],
					"presentation" : 1,
					"presentation_rect" : [ 776.5, 17.0, 19.0, 20.0 ],
					"text" : "6",
					"textjustification" : 1
				}

			}
, 			{
				"box" : 				{
					"id" : "obj-71",
					"maxclass" : "comment",
					"numinlets" : 1,
					"numoutlets" : 0,
					"patching_rect" : [ 516.0, 17.0, 19.0, 20.0 ],
					"presentation" : 1,
					"presentation_rect" : [ 636.5, 17.0, 19.0, 20.0 ],
					"text" : "5",
					"textjustification" : 1
				}

			}
, 			{
				"box" : 				{
					"id" : "obj-69",
					"maxclass" : "comment",
					"numinlets" : 1,
					"numoutlets" : 0,
					"patching_rect" : [ 407.647090971469879, 17.0, 19.0, 20.0 ],
					"presentation" : 1,
					"presentation_rect" : [ 496.5, 17.0, 19.0, 20.0 ],
					"text" : "4",
					"textjustification" : 1
				}

			}
, 			{
				"box" : 				{
					"id" : "obj-67",
					"maxclass" : "comment",
					"numinlets" : 1,
					"numoutlets" : 0,
					"patching_rect" : [ 298.431393980979919, 17.0, 19.0, 20.0 ],
					"presentation" : 1,
					"presentation_rect" : [ 358.0, 17.0, 19.0, 20.0 ],
					"text" : "3",
					"textjustification" : 1
				}

			}
, 			{
				"box" : 				{
					"id" : "obj-65",
					"maxclass" : "comment",
					"numinlets" : 1,
					"numoutlets" : 0,
					"patching_rect" : [ 189.21569699048996, 17.0, 19.0, 20.0 ],
					"presentation" : 1,
					"presentation_rect" : [ 218.21569699048996, 17.0, 19.0, 20.0 ],
					"text" : "2",
					"textjustification" : 1
				}

			}
, 			{
				"box" : 				{
					"id" : "obj-59",
					"maxclass" : "comment",
					"numinlets" : 1,
					"numoutlets" : 0,
					"patching_rect" : [ 80.0, 17.0, 19.0, 20.0 ],
					"presentation" : 1,
					"presentation_rect" : [ 80.0, 17.0, 19.0, 20.0 ],
					"text" : "1",
					"textjustification" : 1
				}

			}
, 			{
				"box" : 				{
					"id" : "obj-57",
					"maxclass" : "comment",
					"numinlets" : 1,
					"numoutlets" : 0,
					"patching_rect" : [ 15.0, 17.0, 51.0, 20.0 ],
					"presentation" : 1,
					"presentation_rect" : [ 15.0, 17.0, 51.0, 20.0 ],
					"text" : "AUX"
				}

			}
, 			{
				"box" : 				{
					"id" : "obj-55",
					"maxclass" : "comment",
					"numinlets" : 1,
					"numoutlets" : 0,
					"patching_rect" : [ 951.78430300951004, 175.912728071212769, 70.0, 20.0 ],
					"presentation" : 1,
					"presentation_rect" : [ 1142.15930300951004, 47.876506149768829, 70.0, 20.0 ],
					"text" : "phone level"
				}

			}
, 			{
				"box" : 				{
					"id" : "obj-7",
					"maxclass" : "newobj",
					"numinlets" : 1,
					"numoutlets" : 1,
					"outlettype" : [ "signal" ],
					"patching_rect" : [ 843.0, 65.0, 107.0, 22.0 ],
					"text" : "receive~ to_aux_8"
				}

			}
, 			{
				"box" : 				{
					"id" : "obj-6",
					"maxclass" : "newobj",
					"numinlets" : 1,
					"numoutlets" : 1,
					"outlettype" : [ "signal" ],
					"patching_rect" : [ 734.0, 65.0, 107.0, 22.0 ],
					"text" : "receive~ to_aux_7"
				}

			}
, 			{
				"box" : 				{
					"id" : "obj-5",
					"maxclass" : "newobj",
					"numinlets" : 1,
					"numoutlets" : 1,
					"outlettype" : [ "signal" ],
					"patching_rect" : [ 625.0, 65.0, 107.0, 22.0 ],
					"text" : "receive~ to_aux_6"
				}

			}
, 			{
				"box" : 				{
					"id" : "obj-4",
					"maxclass" : "newobj",
					"numinlets" : 1,
					"numoutlets" : 1,
					"outlettype" : [ "signal" ],
					"patching_rect" : [ 516.0, 65.0, 107.0, 22.0 ],
					"text" : "receive~ to_aux_5"
				}

			}
, 			{
				"box" : 				{
					"id" : "obj-3",
					"maxclass" : "newobj",
					"numinlets" : 1,
					"numoutlets" : 1,
					"outlettype" : [ "signal" ],
					"patching_rect" : [ 407.0, 65.0, 107.0, 22.0 ],
					"text" : "receive~ to_aux_4"
				}

			}
, 			{
				"box" : 				{
					"id" : "obj-2",
					"maxclass" : "newobj",
					"numinlets" : 1,
					"numoutlets" : 1,
					"outlettype" : [ "signal" ],
					"patching_rect" : [ 298.0, 65.0, 107.0, 22.0 ],
					"text" : "receive~ to_aux_3"
				}

			}
, 			{
				"box" : 				{
					"id" : "obj-1",
					"maxclass" : "newobj",
					"numinlets" : 1,
					"numoutlets" : 1,
					"outlettype" : [ "signal" ],
					"patching_rect" : [ 189.0, 65.0, 107.0, 22.0 ],
					"text" : "receive~ to_aux_2"
				}

			}
, 			{
				"box" : 				{
					"id" : "obj-18",
					"maxclass" : "newobj",
					"numinlets" : 1,
					"numoutlets" : 1,
					"outlettype" : [ "signal" ],
					"patching_rect" : [ 80.0, 65.0, 107.0, 22.0 ],
					"text" : "receive~ to_aux_1"
				}

			}
, 			{
				"box" : 				{
					"channels" : 1,
					"id" : "obj-17",
					"lastchannelcount" : 0,
					"maxclass" : "live.gain~",
					"numinlets" : 1,
					"numoutlets" : 4,
					"orientation" : 1,
					"outlettype" : [ "signal", "", "float", "list" ],
					"parameter_enable" : 1,
					"patching_rect" : [ 951.78430300951004, 197.141483247280121, 114.0, 20.0 ],
					"presentation" : 1,
					"presentation_rect" : [ 1142.15930300951004, 69.105261325836182, 114.0, 20.0 ],
					"saved_attribute_attributes" : 					{
						"valueof" : 						{
							"parameter_longname" : "live.gain~[16]",
							"parameter_mmax" : 6.0,
							"parameter_mmin" : -70.0,
							"parameter_shortname" : "live.gain~[16]",
							"parameter_type" : 0,
							"parameter_unitstyle" : 4
						}

					}
,
					"showname" : 0,
					"shownumber" : 0,
					"varname" : "live.gain~"
				}

			}
, 			{
				"box" : 				{
					"id" : "obj-16",
					"maxclass" : "newobj",
					"numinlets" : 2,
					"numoutlets" : 0,
					"patching_rect" : [ 952.0, 259.0, 62.0, 22.0 ],
					"text" : "dac~ 9 10"
				}

			}
, 			{
				"box" : 				{
					"id" : "obj-15",
					"maxclass" : "newobj",
					"numinlets" : 1,
					"numoutlets" : 1,
					"outlettype" : [ "signal" ],
					"patching_rect" : [ 952.0, 65.0, 114.0, 22.0 ],
					"text" : "receive~ to_phones"
				}

			}
 ],
		"lines" : [ 			{
				"patchline" : 				{
					"destination" : [ "obj-11", 0 ],
					"order" : 0,
					"source" : [ "obj-1", 0 ]
				}

			}
, 			{
				"patchline" : 				{
					"destination" : [ "obj-14", 1 ],
					"order" : 1,
					"source" : [ "obj-1", 0 ]
				}

			}
, 			{
				"patchline" : 				{
					"destination" : [ "obj-36", 0 ],
					"order" : 2,
					"source" : [ "obj-1", 0 ]
				}

			}
, 			{
				"patchline" : 				{
					"destination" : [ "obj-13", 0 ],
					"source" : [ "obj-14", 0 ]
				}

			}
, 			{
				"patchline" : 				{
					"destination" : [ "obj-17", 0 ],
					"source" : [ "obj-15", 0 ]
				}

			}
, 			{
				"patchline" : 				{
					"destination" : [ "obj-16", 1 ],
					"order" : 0,
					"source" : [ "obj-17", 0 ]
				}

			}
, 			{
				"patchline" : 				{
					"destination" : [ "obj-16", 0 ],
					"order" : 1,
					"source" : [ "obj-17", 0 ]
				}

			}
, 			{
				"patchline" : 				{
					"destination" : [ "obj-10", 0 ],
					"order" : 0,
					"source" : [ "obj-18", 0 ]
				}

			}
, 			{
				"patchline" : 				{
					"destination" : [ "obj-120", 0 ],
					"order" : 2,
					"source" : [ "obj-18", 0 ]
				}

			}
, 			{
				"patchline" : 				{
					"destination" : [ "obj-8", 1 ],
					"order" : 1,
					"source" : [ "obj-18", 0 ]
				}

			}
, 			{
				"patchline" : 				{
					"destination" : [ "obj-14", 0 ],
					"source" : [ "obj-19", 0 ]
				}

			}
, 			{
				"patchline" : 				{
					"destination" : [ "obj-20", 0 ],
					"order" : 0,
					"source" : [ "obj-2", 0 ]
				}

			}
, 			{
				"patchline" : 				{
					"destination" : [ "obj-22", 1 ],
					"order" : 1,
					"source" : [ "obj-2", 0 ]
				}

			}
, 			{
				"patchline" : 				{
					"destination" : [ "obj-40", 0 ],
					"order" : 2,
					"source" : [ "obj-2", 0 ]
				}

			}
, 			{
				"patchline" : 				{
					"destination" : [ "obj-21", 0 ],
					"source" : [ "obj-22", 0 ]
				}

			}
, 			{
				"patchline" : 				{
					"destination" : [ "obj-22", 0 ],
					"source" : [ "obj-23", 0 ]
				}

			}
, 			{
				"patchline" : 				{
					"destination" : [ "obj-25", 0 ],
					"source" : [ "obj-26", 0 ]
				}

			}
, 			{
				"patchline" : 				{
					"destination" : [ "obj-26", 0 ],
					"source" : [ "obj-27", 0 ]
				}

			}
, 			{
				"patchline" : 				{
					"destination" : [ "obj-8", 0 ],
					"source" : [ "obj-29", 0 ]
				}

			}
, 			{
				"patchline" : 				{
					"destination" : [ "obj-24", 0 ],
					"order" : 0,
					"source" : [ "obj-3", 0 ]
				}

			}
, 			{
				"patchline" : 				{
					"destination" : [ "obj-26", 1 ],
					"order" : 1,
					"source" : [ "obj-3", 0 ]
				}

			}
, 			{
				"patchline" : 				{
					"destination" : [ "obj-43", 0 ],
					"order" : 2,
					"source" : [ "obj-3", 0 ]
				}

			}
, 			{
				"patchline" : 				{
					"destination" : [ "obj-30", 0 ],
					"source" : [ "obj-31", 0 ]
				}

			}
, 			{
				"patchline" : 				{
					"destination" : [ "obj-31", 0 ],
					"source" : [ "obj-32", 0 ]
				}

			}
, 			{
				"patchline" : 				{
					"destination" : [ "obj-34", 0 ],
					"source" : [ "obj-35", 0 ]
				}

			}
, 			{
				"patchline" : 				{
					"destination" : [ "obj-35", 0 ],
					"source" : [ "obj-37", 0 ]
				}

			}
, 			{
				"patchline" : 				{
					"destination" : [ "obj-28", 0 ],
					"order" : 0,
					"source" : [ "obj-4", 0 ]
				}

			}
, 			{
				"patchline" : 				{
					"destination" : [ "obj-31", 1 ],
					"order" : 1,
					"source" : [ "obj-4", 0 ]
				}

			}
, 			{
				"patchline" : 				{
					"destination" : [ "obj-42", 0 ],
					"order" : 2,
					"source" : [ "obj-4", 0 ]
				}

			}
, 			{
				"patchline" : 				{
					"destination" : [ "obj-33", 0 ],
					"order" : 0,
					"source" : [ "obj-5", 0 ]
				}

			}
, 			{
				"patchline" : 				{
					"destination" : [ "obj-35", 1 ],
					"order" : 1,
					"source" : [ "obj-5", 0 ]
				}

			}
, 			{
				"patchline" : 				{
					"destination" : [ "obj-41", 0 ],
					"order" : 2,
					"source" : [ "obj-5", 0 ]
				}

			}
, 			{
				"patchline" : 				{
					"destination" : [ "obj-39", 0 ],
					"source" : [ "obj-54", 0 ]
				}

			}
, 			{
				"patchline" : 				{
					"destination" : [ "obj-54", 0 ],
					"source" : [ "obj-56", 0 ]
				}

			}
, 			{
				"patchline" : 				{
					"destination" : [ "obj-38", 0 ],
					"order" : 0,
					"source" : [ "obj-6", 0 ]
				}

			}
, 			{
				"patchline" : 				{
					"destination" : [ "obj-45", 0 ],
					"order" : 2,
					"source" : [ "obj-6", 0 ]
				}

			}
, 			{
				"patchline" : 				{
					"destination" : [ "obj-54", 1 ],
					"order" : 1,
					"source" : [ "obj-6", 0 ]
				}

			}
, 			{
				"patchline" : 				{
					"destination" : [ "obj-60", 0 ],
					"source" : [ "obj-62", 0 ]
				}

			}
, 			{
				"patchline" : 				{
					"destination" : [ "obj-62", 0 ],
					"source" : [ "obj-63", 0 ]
				}

			}
, 			{
				"patchline" : 				{
					"destination" : [ "obj-44", 0 ],
					"order" : 2,
					"source" : [ "obj-7", 0 ]
				}

			}
, 			{
				"patchline" : 				{
					"destination" : [ "obj-58", 0 ],
					"order" : 0,
					"source" : [ "obj-7", 0 ]
				}

			}
, 			{
				"patchline" : 				{
					"destination" : [ "obj-62", 1 ],
					"order" : 1,
					"source" : [ "obj-7", 0 ]
				}

			}
, 			{
				"patchline" : 				{
					"destination" : [ "obj-9", 0 ],
					"source" : [ "obj-8", 0 ]
				}

			}
 ],
		"parameters" : 		{
			"obj-120::obj-1" : [ "direct.out", "DO", 0 ],
			"obj-120::obj-25" : [ "direct.out[1]", "FX1", 0 ],
			"obj-120::obj-29" : [ "direct.out[2]", "FX2", 0 ],
			"obj-120::obj-33" : [ "direct.out[3]", "FX3", 0 ],
			"obj-120::obj-37" : [ "direct.out[4]", "FX4", 0 ],
			"obj-120::obj-41" : [ "direct.out[5]", "FX5", 0 ],
			"obj-120::obj-45" : [ "direct.out[6]", "FX6", 0 ],
			"obj-120::obj-51" : [ "direct.out[7]", "FX7", 0 ],
			"obj-120::obj-56" : [ "direct.out[8]", "FX8", 0 ],
			"obj-17" : [ "live.gain~[16]", "live.gain~[16]", 0 ],
			"obj-19" : [ "live.text[1]", "live.text", 0 ],
			"obj-23" : [ "live.text[2]", "live.text", 0 ],
			"obj-27" : [ "live.text[3]", "live.text", 0 ],
			"obj-29" : [ "live.text", "live.text", 0 ],
			"obj-32" : [ "live.text[4]", "live.text", 0 ],
			"obj-36::obj-1" : [ "direct.out[9]", "DO", 0 ],
			"obj-36::obj-25" : [ "FX1", "FX1", 0 ],
			"obj-36::obj-29" : [ "FX2", "FX2", 0 ],
			"obj-36::obj-33" : [ "FX3", "FX3", 0 ],
			"obj-36::obj-37" : [ "FX4", "FX4", 0 ],
			"obj-36::obj-41" : [ "FX5", "FX5", 0 ],
			"obj-36::obj-45" : [ "FX6", "FX6", 0 ],
			"obj-36::obj-51" : [ "FX7", "FX7", 0 ],
			"obj-36::obj-56" : [ "FX8", "FX8", 0 ],
			"obj-37" : [ "live.text[5]", "live.text", 0 ],
			"obj-40::obj-1" : [ "direct.out[10]", "DO", 0 ],
			"obj-40::obj-25" : [ "FX1[1]", "FX1", 0 ],
			"obj-40::obj-29" : [ "FX2[1]", "FX2", 0 ],
			"obj-40::obj-33" : [ "FX3[1]", "FX3", 0 ],
			"obj-40::obj-37" : [ "FX4[1]", "FX4", 0 ],
			"obj-40::obj-41" : [ "FX5[1]", "FX5", 0 ],
			"obj-40::obj-45" : [ "FX6[1]", "FX6", 0 ],
			"obj-40::obj-51" : [ "FX7[1]", "FX7", 0 ],
			"obj-40::obj-56" : [ "FX8[1]", "FX8", 0 ],
			"obj-41::obj-1" : [ "direct.out[13]", "DO", 0 ],
			"obj-41::obj-25" : [ "FX1[4]", "FX1", 0 ],
			"obj-41::obj-29" : [ "FX2[4]", "FX2", 0 ],
			"obj-41::obj-33" : [ "FX3[4]", "FX3", 0 ],
			"obj-41::obj-37" : [ "FX4[4]", "FX4", 0 ],
			"obj-41::obj-41" : [ "FX5[4]", "FX5", 0 ],
			"obj-41::obj-45" : [ "FX6[4]", "FX6", 0 ],
			"obj-41::obj-51" : [ "FX7[4]", "FX7", 0 ],
			"obj-41::obj-56" : [ "FX8[4]", "FX8", 0 ],
			"obj-42::obj-1" : [ "direct.out[12]", "DO", 0 ],
			"obj-42::obj-25" : [ "FX1[3]", "FX1", 0 ],
			"obj-42::obj-29" : [ "FX2[3]", "FX2", 0 ],
			"obj-42::obj-33" : [ "FX3[3]", "FX3", 0 ],
			"obj-42::obj-37" : [ "FX4[3]", "FX4", 0 ],
			"obj-42::obj-41" : [ "FX5[3]", "FX5", 0 ],
			"obj-42::obj-45" : [ "FX6[3]", "FX6", 0 ],
			"obj-42::obj-51" : [ "FX7[3]", "FX7", 0 ],
			"obj-42::obj-56" : [ "FX8[3]", "FX8", 0 ],
			"obj-43::obj-1" : [ "direct.out[11]", "DO", 0 ],
			"obj-43::obj-25" : [ "FX1[2]", "FX1", 0 ],
			"obj-43::obj-29" : [ "FX2[2]", "FX2", 0 ],
			"obj-43::obj-33" : [ "FX3[2]", "FX3", 0 ],
			"obj-43::obj-37" : [ "FX4[2]", "FX4", 0 ],
			"obj-43::obj-41" : [ "FX5[2]", "FX5", 0 ],
			"obj-43::obj-45" : [ "FX6[2]", "FX6", 0 ],
			"obj-43::obj-51" : [ "FX7[2]", "FX7", 0 ],
			"obj-43::obj-56" : [ "FX8[2]", "FX8", 0 ],
			"obj-44::obj-1" : [ "direct.out[15]", "DO", 0 ],
			"obj-44::obj-25" : [ "FX1[6]", "FX1", 0 ],
			"obj-44::obj-29" : [ "FX2[6]", "FX2", 0 ],
			"obj-44::obj-33" : [ "FX3[6]", "FX3", 0 ],
			"obj-44::obj-37" : [ "FX4[6]", "FX4", 0 ],
			"obj-44::obj-41" : [ "FX5[6]", "FX5", 0 ],
			"obj-44::obj-45" : [ "FX6[6]", "FX6", 0 ],
			"obj-44::obj-51" : [ "FX7[6]", "FX7", 0 ],
			"obj-44::obj-56" : [ "FX8[6]", "FX8", 0 ],
			"obj-45::obj-1" : [ "direct.out[14]", "DO", 0 ],
			"obj-45::obj-25" : [ "FX1[5]", "FX1", 0 ],
			"obj-45::obj-29" : [ "FX2[5]", "FX2", 0 ],
			"obj-45::obj-33" : [ "FX3[5]", "FX3", 0 ],
			"obj-45::obj-37" : [ "FX4[5]", "FX4", 0 ],
			"obj-45::obj-41" : [ "FX5[5]", "FX5", 0 ],
			"obj-45::obj-45" : [ "FX6[5]", "FX6", 0 ],
			"obj-45::obj-51" : [ "FX7[5]", "FX7", 0 ],
			"obj-45::obj-56" : [ "FX8[5]", "FX8", 0 ],
			"obj-56" : [ "live.text[6]", "live.text", 0 ],
			"obj-63" : [ "live.text[7]", "live.text", 0 ],
			"parameterbanks" : 			{

			}
,
			"parameter_overrides" : 			{
				"obj-120::obj-25" : 				{
					"parameter_longname" : "direct.out[1]"
				}
,
				"obj-120::obj-29" : 				{
					"parameter_longname" : "direct.out[2]"
				}
,
				"obj-120::obj-33" : 				{
					"parameter_longname" : "direct.out[3]"
				}
,
				"obj-120::obj-37" : 				{
					"parameter_longname" : "direct.out[4]"
				}
,
				"obj-120::obj-41" : 				{
					"parameter_longname" : "direct.out[5]"
				}
,
				"obj-120::obj-45" : 				{
					"parameter_longname" : "direct.out[6]"
				}
,
				"obj-120::obj-51" : 				{
					"parameter_longname" : "direct.out[7]"
				}
,
				"obj-120::obj-56" : 				{
					"parameter_longname" : "direct.out[8]"
				}
,
				"obj-36::obj-1" : 				{
					"parameter_longname" : "direct.out[9]"
				}
,
				"obj-40::obj-1" : 				{
					"parameter_longname" : "direct.out[10]"
				}
,
				"obj-40::obj-25" : 				{
					"parameter_longname" : "FX1[1]"
				}
,
				"obj-40::obj-29" : 				{
					"parameter_longname" : "FX2[1]"
				}
,
				"obj-40::obj-33" : 				{
					"parameter_longname" : "FX3[1]"
				}
,
				"obj-40::obj-37" : 				{
					"parameter_longname" : "FX4[1]"
				}
,
				"obj-40::obj-41" : 				{
					"parameter_longname" : "FX5[1]"
				}
,
				"obj-40::obj-45" : 				{
					"parameter_longname" : "FX6[1]"
				}
,
				"obj-40::obj-51" : 				{
					"parameter_longname" : "FX7[1]"
				}
,
				"obj-40::obj-56" : 				{
					"parameter_longname" : "FX8[1]"
				}
,
				"obj-41::obj-1" : 				{
					"parameter_longname" : "direct.out[13]"
				}
,
				"obj-41::obj-25" : 				{
					"parameter_longname" : "FX1[4]"
				}
,
				"obj-41::obj-29" : 				{
					"parameter_longname" : "FX2[4]"
				}
,
				"obj-41::obj-33" : 				{
					"parameter_longname" : "FX3[4]"
				}
,
				"obj-41::obj-37" : 				{
					"parameter_longname" : "FX4[4]"
				}
,
				"obj-41::obj-41" : 				{
					"parameter_longname" : "FX5[4]"
				}
,
				"obj-41::obj-45" : 				{
					"parameter_longname" : "FX6[4]"
				}
,
				"obj-41::obj-51" : 				{
					"parameter_longname" : "FX7[4]"
				}
,
				"obj-41::obj-56" : 				{
					"parameter_longname" : "FX8[4]"
				}
,
				"obj-42::obj-1" : 				{
					"parameter_longname" : "direct.out[12]"
				}
,
				"obj-42::obj-25" : 				{
					"parameter_longname" : "FX1[3]"
				}
,
				"obj-42::obj-29" : 				{
					"parameter_longname" : "FX2[3]"
				}
,
				"obj-42::obj-33" : 				{
					"parameter_longname" : "FX3[3]"
				}
,
				"obj-42::obj-37" : 				{
					"parameter_longname" : "FX4[3]"
				}
,
				"obj-42::obj-41" : 				{
					"parameter_longname" : "FX5[3]"
				}
,
				"obj-42::obj-45" : 				{
					"parameter_longname" : "FX6[3]"
				}
,
				"obj-42::obj-51" : 				{
					"parameter_longname" : "FX7[3]"
				}
,
				"obj-42::obj-56" : 				{
					"parameter_longname" : "FX8[3]"
				}
,
				"obj-43::obj-1" : 				{
					"parameter_longname" : "direct.out[11]"
				}
,
				"obj-43::obj-25" : 				{
					"parameter_longname" : "FX1[2]"
				}
,
				"obj-43::obj-29" : 				{
					"parameter_longname" : "FX2[2]"
				}
,
				"obj-43::obj-33" : 				{
					"parameter_longname" : "FX3[2]"
				}
,
				"obj-43::obj-37" : 				{
					"parameter_longname" : "FX4[2]"
				}
,
				"obj-43::obj-41" : 				{
					"parameter_longname" : "FX5[2]"
				}
,
				"obj-43::obj-45" : 				{
					"parameter_longname" : "FX6[2]"
				}
,
				"obj-43::obj-51" : 				{
					"parameter_longname" : "FX7[2]"
				}
,
				"obj-43::obj-56" : 				{
					"parameter_longname" : "FX8[2]"
				}
,
				"obj-44::obj-1" : 				{
					"parameter_longname" : "direct.out[15]"
				}
,
				"obj-44::obj-25" : 				{
					"parameter_longname" : "FX1[6]"
				}
,
				"obj-44::obj-29" : 				{
					"parameter_longname" : "FX2[6]"
				}
,
				"obj-44::obj-33" : 				{
					"parameter_longname" : "FX3[6]"
				}
,
				"obj-44::obj-37" : 				{
					"parameter_longname" : "FX4[6]"
				}
,
				"obj-44::obj-41" : 				{
					"parameter_longname" : "FX5[6]"
				}
,
				"obj-44::obj-45" : 				{
					"parameter_longname" : "FX6[6]"
				}
,
				"obj-44::obj-51" : 				{
					"parameter_longname" : "FX7[6]"
				}
,
				"obj-44::obj-56" : 				{
					"parameter_longname" : "FX8[6]"
				}
,
				"obj-45::obj-1" : 				{
					"parameter_longname" : "direct.out[14]"
				}
,
				"obj-45::obj-25" : 				{
					"parameter_longname" : "FX1[5]"
				}
,
				"obj-45::obj-29" : 				{
					"parameter_longname" : "FX2[5]"
				}
,
				"obj-45::obj-33" : 				{
					"parameter_longname" : "FX3[5]"
				}
,
				"obj-45::obj-37" : 				{
					"parameter_longname" : "FX4[5]"
				}
,
				"obj-45::obj-41" : 				{
					"parameter_longname" : "FX5[5]"
				}
,
				"obj-45::obj-45" : 				{
					"parameter_longname" : "FX6[5]"
				}
,
				"obj-45::obj-51" : 				{
					"parameter_longname" : "FX7[5]"
				}
,
				"obj-45::obj-56" : 				{
					"parameter_longname" : "FX8[5]"
				}

			}
,
			"inherited_shortname" : 1
		}
,
		"dependency_cache" : [ 			{
				"name" : "fxSend.maxpat",
				"bootpath" : "C:/_MYdocs/07-code/3.01-max/StS_monitor/source",
				"patcherrelativepath" : ".",
				"type" : "JSON",
				"implicit" : 1
			}
 ],
		"autosave" : 0,
		"styles" : [ 			{
				"name" : "Audiomix",
				"default" : 				{
					"bgfillcolor" : 					{
						"type" : "gradient",
						"color1" : [ 0.376471, 0.384314, 0.4, 1.0 ],
						"color2" : [ 0.290196, 0.309804, 0.301961, 1.0 ],
						"color" : [ 0.290196, 0.309804, 0.301961, 1.0 ],
						"angle" : 270.0,
						"proportion" : 0.39
					}

				}
,
				"parentstyle" : "",
				"multi" : 0
			}
 ]
	}

}
