{
	"patcher" : 	{
		"fileversion" : 1,
		"appversion" : 		{
			"major" : 8,
			"minor" : 3,
			"revision" : 0,
			"architecture" : "x64",
			"modernui" : 1
		}
,
		"classnamespace" : "box",
		"rect" : [ 34.0, 77.0, 1852.0, 1059.0 ],
		"bglocked" : 0,
		"openinpresentation" : 1,
		"default_fontsize" : 12.0,
		"default_fontface" : 0,
		"default_fontname" : "Arial",
		"gridonopen" : 1,
		"gridsize" : [ 15.0, 15.0 ],
		"gridsnaponopen" : 1,
		"objectsnaponopen" : 1,
		"statusbarvisible" : 2,
		"toolbarvisible" : 1,
		"lefttoolbarpinned" : 0,
		"toptoolbarpinned" : 0,
		"righttoolbarpinned" : 0,
		"bottomtoolbarpinned" : 0,
		"toolbars_unpinned_last_save" : 0,
		"tallnewobj" : 0,
		"boxanimatetime" : 200,
		"enablehscroll" : 1,
		"enablevscroll" : 1,
		"devicewidth" : 0.0,
		"description" : "",
		"digest" : "",
		"tags" : "",
		"style" : "",
		"subpatcher_template" : "",
		"assistshowspatchername" : 0,
		"boxes" : [ 			{
				"box" : 				{
					"id" : "obj-117",
					"maxclass" : "newobj",
					"numinlets" : 2,
					"numoutlets" : 0,
					"patching_rect" : [ 1072.566457986831665, 777.536238372325897, 62.0, 22.0 ],
					"text" : "dac~ 9 10"
				}

			}
, 			{
				"box" : 				{
					"id" : "obj-116",
					"maxclass" : "newobj",
					"numinlets" : 2,
					"numoutlets" : 0,
					"patching_rect" : [ 454.0, 777.536238372325897, 55.0, 22.0 ],
					"text" : "dac~ 1 2"
				}

			}
, 			{
				"box" : 				{
					"id" : "obj-111",
					"maxclass" : "newobj",
					"numinlets" : 2,
					"numoutlets" : 1,
					"outlettype" : [ "float" ],
					"patching_rect" : [ 932.0, 443.642853140830994, 29.5, 22.0 ],
					"text" : "+ 1."
				}

			}
, 			{
				"box" : 				{
					"id" : "obj-112",
					"maxclass" : "newobj",
					"numinlets" : 2,
					"numoutlets" : 1,
					"outlettype" : [ "float" ],
					"patching_rect" : [ 932.0, 419.642853140830994, 31.0, 22.0 ],
					"text" : "* -1."
				}

			}
, 			{
				"box" : 				{
					"id" : "obj-113",
					"maxclass" : "newobj",
					"numinlets" : 2,
					"numoutlets" : 1,
					"outlettype" : [ "signal" ],
					"patching_rect" : [ 932.0, 474.107138335704803, 40.0, 22.0 ],
					"text" : "*~ 0.5"
				}

			}
, 			{
				"box" : 				{
					"id" : "obj-114",
					"maxclass" : "newobj",
					"numinlets" : 2,
					"numoutlets" : 1,
					"outlettype" : [ "signal" ],
					"patching_rect" : [ 890.0, 474.107138335704803, 40.0, 22.0 ],
					"text" : "*~ 0.5"
				}

			}
, 			{
				"box" : 				{
					"id" : "obj-115",
					"maxclass" : "live.dial",
					"numinlets" : 1,
					"numoutlets" : 2,
					"outlettype" : [ "", "float" ],
					"parameter_enable" : 1,
					"patching_rect" : [ 910.0, 356.252858445644392, 41.0, 48.0 ],
					"presentation" : 1,
					"presentation_rect" : [ 267.581094026565552, 198.718427419662476, 27.0, 48.0 ],
					"saved_attribute_attributes" : 					{
						"valueof" : 						{
							"parameter_initial" : [ 50 ],
							"parameter_initial_enable" : 1,
							"parameter_linknames" : 1,
							"parameter_longname" : "pan1[7]",
							"parameter_mmax" : 100.0,
							"parameter_shortname" : "pan",
							"parameter_type" : 0,
							"parameter_unitstyle" : 0
						}

					}
,
					"varname" : "pan1[7]"
				}

			}
, 			{
				"box" : 				{
					"id" : "obj-106",
					"maxclass" : "newobj",
					"numinlets" : 2,
					"numoutlets" : 1,
					"outlettype" : [ "float" ],
					"patching_rect" : [ 807.0, 443.642853140830994, 29.5, 22.0 ],
					"text" : "+ 1."
				}

			}
, 			{
				"box" : 				{
					"id" : "obj-107",
					"maxclass" : "newobj",
					"numinlets" : 2,
					"numoutlets" : 1,
					"outlettype" : [ "float" ],
					"patching_rect" : [ 807.0, 419.642853140830994, 31.0, 22.0 ],
					"text" : "* -1."
				}

			}
, 			{
				"box" : 				{
					"id" : "obj-108",
					"maxclass" : "newobj",
					"numinlets" : 2,
					"numoutlets" : 1,
					"outlettype" : [ "signal" ],
					"patching_rect" : [ 807.0, 474.107138335704803, 40.0, 22.0 ],
					"text" : "*~ 0.5"
				}

			}
, 			{
				"box" : 				{
					"id" : "obj-109",
					"maxclass" : "newobj",
					"numinlets" : 2,
					"numoutlets" : 1,
					"outlettype" : [ "signal" ],
					"patching_rect" : [ 765.0, 474.107138335704803, 40.0, 22.0 ],
					"text" : "*~ 0.5"
				}

			}
, 			{
				"box" : 				{
					"id" : "obj-110",
					"maxclass" : "live.dial",
					"numinlets" : 1,
					"numoutlets" : 2,
					"outlettype" : [ "", "float" ],
					"parameter_enable" : 1,
					"patching_rect" : [ 785.0, 356.252858445644392, 41.0, 48.0 ],
					"presentation" : 1,
					"presentation_rect" : [ 230.581094026565552, 198.718427419662476, 27.0, 48.0 ],
					"saved_attribute_attributes" : 					{
						"valueof" : 						{
							"parameter_initial" : [ 50 ],
							"parameter_initial_enable" : 1,
							"parameter_linknames" : 1,
							"parameter_longname" : "pan1[6]",
							"parameter_mmax" : 100.0,
							"parameter_shortname" : "pan",
							"parameter_type" : 0,
							"parameter_unitstyle" : 0
						}

					}
,
					"varname" : "pan1[6]"
				}

			}
, 			{
				"box" : 				{
					"id" : "obj-101",
					"maxclass" : "newobj",
					"numinlets" : 2,
					"numoutlets" : 1,
					"outlettype" : [ "float" ],
					"patching_rect" : [ 682.0, 443.642853140830994, 29.5, 22.0 ],
					"text" : "+ 1."
				}

			}
, 			{
				"box" : 				{
					"id" : "obj-102",
					"maxclass" : "newobj",
					"numinlets" : 2,
					"numoutlets" : 1,
					"outlettype" : [ "float" ],
					"patching_rect" : [ 682.0, 419.642853140830994, 31.0, 22.0 ],
					"text" : "* -1."
				}

			}
, 			{
				"box" : 				{
					"id" : "obj-103",
					"maxclass" : "newobj",
					"numinlets" : 2,
					"numoutlets" : 1,
					"outlettype" : [ "signal" ],
					"patching_rect" : [ 682.0, 474.107138335704803, 40.0, 22.0 ],
					"text" : "*~ 0.5"
				}

			}
, 			{
				"box" : 				{
					"id" : "obj-104",
					"maxclass" : "newobj",
					"numinlets" : 2,
					"numoutlets" : 1,
					"outlettype" : [ "signal" ],
					"patching_rect" : [ 640.0, 474.107138335704803, 40.0, 22.0 ],
					"text" : "*~ 0.5"
				}

			}
, 			{
				"box" : 				{
					"id" : "obj-105",
					"maxclass" : "live.dial",
					"numinlets" : 1,
					"numoutlets" : 2,
					"outlettype" : [ "", "float" ],
					"parameter_enable" : 1,
					"patching_rect" : [ 660.0, 356.252858445644392, 41.0, 48.0 ],
					"presentation" : 1,
					"presentation_rect" : [ 190.5, 198.718427419662476, 27.0, 48.0 ],
					"saved_attribute_attributes" : 					{
						"valueof" : 						{
							"parameter_initial" : [ 50 ],
							"parameter_initial_enable" : 1,
							"parameter_linknames" : 1,
							"parameter_longname" : "pan1[5]",
							"parameter_mmax" : 100.0,
							"parameter_shortname" : "pan",
							"parameter_type" : 0,
							"parameter_unitstyle" : 0
						}

					}
,
					"varname" : "pan1[5]"
				}

			}
, 			{
				"box" : 				{
					"id" : "obj-96",
					"maxclass" : "newobj",
					"numinlets" : 2,
					"numoutlets" : 1,
					"outlettype" : [ "float" ],
					"patching_rect" : [ 557.0, 443.642853140830994, 29.5, 22.0 ],
					"text" : "+ 1."
				}

			}
, 			{
				"box" : 				{
					"id" : "obj-97",
					"maxclass" : "newobj",
					"numinlets" : 2,
					"numoutlets" : 1,
					"outlettype" : [ "float" ],
					"patching_rect" : [ 557.0, 419.642853140830994, 31.0, 22.0 ],
					"text" : "* -1."
				}

			}
, 			{
				"box" : 				{
					"id" : "obj-98",
					"maxclass" : "newobj",
					"numinlets" : 2,
					"numoutlets" : 1,
					"outlettype" : [ "signal" ],
					"patching_rect" : [ 557.0, 474.107138335704803, 40.0, 22.0 ],
					"text" : "*~ 0.5"
				}

			}
, 			{
				"box" : 				{
					"id" : "obj-99",
					"maxclass" : "newobj",
					"numinlets" : 2,
					"numoutlets" : 1,
					"outlettype" : [ "signal" ],
					"patching_rect" : [ 515.0, 474.107138335704803, 40.0, 22.0 ],
					"text" : "*~ 0.5"
				}

			}
, 			{
				"box" : 				{
					"id" : "obj-100",
					"maxclass" : "live.dial",
					"numinlets" : 1,
					"numoutlets" : 2,
					"outlettype" : [ "", "float" ],
					"parameter_enable" : 1,
					"patching_rect" : [ 535.0, 356.252858445644392, 41.0, 48.0 ],
					"presentation" : 1,
					"presentation_rect" : [ 153.5, 198.718427419662476, 27.0, 48.0 ],
					"saved_attribute_attributes" : 					{
						"valueof" : 						{
							"parameter_initial" : [ 50 ],
							"parameter_initial_enable" : 1,
							"parameter_linknames" : 1,
							"parameter_longname" : "pan1[4]",
							"parameter_mmax" : 100.0,
							"parameter_shortname" : "pan",
							"parameter_type" : 0,
							"parameter_unitstyle" : 0
						}

					}
,
					"varname" : "pan1[4]"
				}

			}
, 			{
				"box" : 				{
					"id" : "obj-91",
					"maxclass" : "newobj",
					"numinlets" : 2,
					"numoutlets" : 1,
					"outlettype" : [ "float" ],
					"patching_rect" : [ 432.0, 443.642853140830994, 29.5, 22.0 ],
					"text" : "+ 1."
				}

			}
, 			{
				"box" : 				{
					"id" : "obj-92",
					"maxclass" : "newobj",
					"numinlets" : 2,
					"numoutlets" : 1,
					"outlettype" : [ "float" ],
					"patching_rect" : [ 432.0, 419.642853140830994, 31.0, 22.0 ],
					"text" : "* -1."
				}

			}
, 			{
				"box" : 				{
					"id" : "obj-93",
					"maxclass" : "newobj",
					"numinlets" : 2,
					"numoutlets" : 1,
					"outlettype" : [ "signal" ],
					"patching_rect" : [ 432.0, 474.107138335704803, 40.0, 22.0 ],
					"text" : "*~ 0.5"
				}

			}
, 			{
				"box" : 				{
					"id" : "obj-94",
					"maxclass" : "newobj",
					"numinlets" : 2,
					"numoutlets" : 1,
					"outlettype" : [ "signal" ],
					"patching_rect" : [ 390.0, 474.107138335704803, 40.0, 22.0 ],
					"text" : "*~ 0.5"
				}

			}
, 			{
				"box" : 				{
					"id" : "obj-95",
					"maxclass" : "live.dial",
					"numinlets" : 1,
					"numoutlets" : 2,
					"outlettype" : [ "", "float" ],
					"parameter_enable" : 1,
					"patching_rect" : [ 410.0, 356.252858445644392, 41.0, 48.0 ],
					"presentation" : 1,
					"presentation_rect" : [ 116.5, 198.718427419662476, 27.0, 48.0 ],
					"saved_attribute_attributes" : 					{
						"valueof" : 						{
							"parameter_initial" : [ 50 ],
							"parameter_initial_enable" : 1,
							"parameter_linknames" : 1,
							"parameter_longname" : "pan1[3]",
							"parameter_mmax" : 100.0,
							"parameter_shortname" : "pan",
							"parameter_type" : 0,
							"parameter_unitstyle" : 0
						}

					}
,
					"varname" : "pan1[3]"
				}

			}
, 			{
				"box" : 				{
					"id" : "obj-86",
					"maxclass" : "newobj",
					"numinlets" : 2,
					"numoutlets" : 1,
					"outlettype" : [ "float" ],
					"patching_rect" : [ 307.0, 443.642853140830994, 29.5, 22.0 ],
					"text" : "+ 1."
				}

			}
, 			{
				"box" : 				{
					"id" : "obj-87",
					"maxclass" : "newobj",
					"numinlets" : 2,
					"numoutlets" : 1,
					"outlettype" : [ "float" ],
					"patching_rect" : [ 307.0, 419.642853140830994, 31.0, 22.0 ],
					"text" : "* -1."
				}

			}
, 			{
				"box" : 				{
					"id" : "obj-88",
					"maxclass" : "newobj",
					"numinlets" : 2,
					"numoutlets" : 1,
					"outlettype" : [ "signal" ],
					"patching_rect" : [ 307.0, 474.107138335704803, 40.0, 22.0 ],
					"text" : "*~ 0.5"
				}

			}
, 			{
				"box" : 				{
					"id" : "obj-89",
					"maxclass" : "newobj",
					"numinlets" : 2,
					"numoutlets" : 1,
					"outlettype" : [ "signal" ],
					"patching_rect" : [ 265.0, 474.107138335704803, 40.0, 22.0 ],
					"text" : "*~ 0.5"
				}

			}
, 			{
				"box" : 				{
					"id" : "obj-90",
					"maxclass" : "live.dial",
					"numinlets" : 1,
					"numoutlets" : 2,
					"outlettype" : [ "", "float" ],
					"parameter_enable" : 1,
					"patching_rect" : [ 285.0, 356.252858445644392, 41.0, 48.0 ],
					"presentation" : 1,
					"presentation_rect" : [ 79.5, 198.718427419662476, 27.0, 48.0 ],
					"saved_attribute_attributes" : 					{
						"valueof" : 						{
							"parameter_initial" : [ 50 ],
							"parameter_initial_enable" : 1,
							"parameter_linknames" : 1,
							"parameter_longname" : "pan1[2]",
							"parameter_mmax" : 100.0,
							"parameter_shortname" : "pan",
							"parameter_type" : 0,
							"parameter_unitstyle" : 0
						}

					}
,
					"varname" : "pan1[2]"
				}

			}
, 			{
				"box" : 				{
					"id" : "obj-80",
					"maxclass" : "newobj",
					"numinlets" : 2,
					"numoutlets" : 1,
					"outlettype" : [ "float" ],
					"patching_rect" : [ 182.0, 443.642853140830994, 29.5, 22.0 ],
					"text" : "+ 1."
				}

			}
, 			{
				"box" : 				{
					"id" : "obj-81",
					"maxclass" : "newobj",
					"numinlets" : 2,
					"numoutlets" : 1,
					"outlettype" : [ "float" ],
					"patching_rect" : [ 182.0, 419.642853140830994, 31.0, 22.0 ],
					"text" : "* -1."
				}

			}
, 			{
				"box" : 				{
					"id" : "obj-83",
					"maxclass" : "newobj",
					"numinlets" : 2,
					"numoutlets" : 1,
					"outlettype" : [ "signal" ],
					"patching_rect" : [ 182.0, 474.107138335704803, 40.0, 22.0 ],
					"text" : "*~ 0.5"
				}

			}
, 			{
				"box" : 				{
					"id" : "obj-84",
					"maxclass" : "newobj",
					"numinlets" : 2,
					"numoutlets" : 1,
					"outlettype" : [ "signal" ],
					"patching_rect" : [ 140.0, 474.107138335704803, 40.0, 22.0 ],
					"text" : "*~ 0.5"
				}

			}
, 			{
				"box" : 				{
					"id" : "obj-85",
					"maxclass" : "live.dial",
					"numinlets" : 1,
					"numoutlets" : 2,
					"outlettype" : [ "", "float" ],
					"parameter_enable" : 1,
					"patching_rect" : [ 160.0, 356.252858445644392, 41.0, 48.0 ],
					"presentation" : 1,
					"presentation_rect" : [ 42.5, 198.718427419662476, 27.0, 48.0 ],
					"saved_attribute_attributes" : 					{
						"valueof" : 						{
							"parameter_initial" : [ 50 ],
							"parameter_initial_enable" : 1,
							"parameter_linknames" : 1,
							"parameter_longname" : "pan1[1]",
							"parameter_mmax" : 100.0,
							"parameter_shortname" : "pan",
							"parameter_type" : 0,
							"parameter_unitstyle" : 0
						}

					}
,
					"varname" : "pan1[1]"
				}

			}
, 			{
				"box" : 				{
					"id" : "obj-76",
					"maxclass" : "newobj",
					"numinlets" : 2,
					"numoutlets" : 1,
					"outlettype" : [ "float" ],
					"patching_rect" : [ 57.0, 443.642853140830994, 29.5, 22.0 ],
					"text" : "+ 1."
				}

			}
, 			{
				"box" : 				{
					"id" : "obj-75",
					"maxclass" : "newobj",
					"numinlets" : 2,
					"numoutlets" : 1,
					"outlettype" : [ "float" ],
					"patching_rect" : [ 57.0, 419.642853140830994, 31.0, 22.0 ],
					"text" : "* -1."
				}

			}
, 			{
				"box" : 				{
					"id" : "obj-17",
					"maxclass" : "newobj",
					"numinlets" : 2,
					"numoutlets" : 1,
					"outlettype" : [ "signal" ],
					"patching_rect" : [ 57.0, 474.107138335704803, 40.0, 22.0 ],
					"text" : "*~ 0.5"
				}

			}
, 			{
				"box" : 				{
					"id" : "obj-16",
					"maxclass" : "newobj",
					"numinlets" : 2,
					"numoutlets" : 1,
					"outlettype" : [ "signal" ],
					"patching_rect" : [ 15.0, 474.107138335704803, 40.0, 22.0 ],
					"text" : "*~ 0.5"
				}

			}
, 			{
				"box" : 				{
					"id" : "obj-15",
					"maxclass" : "live.dial",
					"numinlets" : 1,
					"numoutlets" : 2,
					"outlettype" : [ "", "float" ],
					"parameter_enable" : 1,
					"patching_rect" : [ 35.0, 356.252858445644392, 41.0, 48.0 ],
					"presentation" : 1,
					"presentation_rect" : [ 5.5, 198.718427419662476, 27.0, 48.0 ],
					"saved_attribute_attributes" : 					{
						"valueof" : 						{
							"parameter_initial" : [ 50 ],
							"parameter_initial_enable" : 1,
							"parameter_linknames" : 1,
							"parameter_longname" : "pan1",
							"parameter_mmax" : 100.0,
							"parameter_shortname" : "pan",
							"parameter_type" : 0,
							"parameter_unitstyle" : 0
						}

					}
,
					"varname" : "pan1"
				}

			}
, 			{
				"box" : 				{
					"id" : "obj-12",
					"lastchannelcount" : 0,
					"maxclass" : "live.gain~",
					"numinlets" : 2,
					"numoutlets" : 5,
					"outlettype" : [ "signal", "signal", "", "float", "list" ],
					"parameter_enable" : 1,
					"patching_rect" : [ 454.0, 597.140269041061401, 48.0, 136.0 ],
					"presentation" : 1,
					"presentation_rect" : [ 339.787638765785232, 60.718427419662476, 48.0, 136.0 ],
					"saved_attribute_attributes" : 					{
						"valueof" : 						{
							"parameter_initial" : [ 0.0 ],
							"parameter_initial_enable" : 1,
							"parameter_linknames" : 1,
							"parameter_longname" : "master",
							"parameter_mmax" : 6.0,
							"parameter_mmin" : -70.0,
							"parameter_shortname" : "master",
							"parameter_type" : 0,
							"parameter_unitstyle" : 4
						}

					}
,
					"varname" : "master"
				}

			}
, 			{
				"box" : 				{
					"id" : "obj-11",
					"maxclass" : "newobj",
					"numinlets" : 2,
					"numoutlets" : 1,
					"outlettype" : [ "signal" ],
					"patching_rect" : [ 1072.566457986831665, 157.522136569023132, 34.0, 22.0 ],
					"text" : "*~ 0."
				}

			}
, 			{
				"box" : 				{
					"id" : "obj-5",
					"maxclass" : "live.dial",
					"numinlets" : 1,
					"numoutlets" : 2,
					"outlettype" : [ "", "float" ],
					"parameter_enable" : 1,
					"patching_rect" : [ 1135.398321449756622, 74.32438188791275, 41.0, 48.0 ],
					"presentation" : 1,
					"presentation_rect" : [ 347.787638765785232, 1.218427419662476, 32.0, 48.0 ],
					"saved_attribute_attributes" : 					{
						"valueof" : 						{
							"parameter_linknames" : 1,
							"parameter_longname" : "phones",
							"parameter_mmax" : 100.0,
							"parameter_shortname" : "phones",
							"parameter_type" : 0,
							"parameter_unitstyle" : 0
						}

					}
,
					"varname" : "phones"
				}

			}
, 			{
				"box" : 				{
					"id" : "obj-66",
					"maxclass" : "message",
					"numinlets" : 2,
					"numoutlets" : 1,
					"outlettype" : [ "" ],
					"patching_rect" : [ 918.77777773141861, 68.129691123962402, 57.0, 22.0 ],
					"text" : "active $1"
				}

			}
, 			{
				"box" : 				{
					"id" : "obj-67",
					"maxclass" : "meter~",
					"numinlets" : 1,
					"numoutlets" : 1,
					"outlettype" : [ "float" ],
					"patching_rect" : [ 882.5, 157.218427419662476, 12.0, 160.0 ],
					"presentation" : 1,
					"presentation_rect" : [ 265.581094026565552, 73.968427419662476, 12.0, 69.5 ]
				}

			}
, 			{
				"box" : 				{
					"id" : "obj-69",
					"maxclass" : "newobj",
					"numinlets" : 2,
					"numoutlets" : 1,
					"outlettype" : [ "signal" ],
					"patching_rect" : [ 879.0, 112.218427419662476, 39.0, 22.0 ],
					"text" : "gate~"
				}

			}
, 			{
				"box" : 				{
					"id" : "obj-70",
					"maxclass" : "newobj",
					"numinlets" : 2,
					"numoutlets" : 1,
					"outlettype" : [ "signal" ],
					"patching_rect" : [ 918.77777773141861, 324.218427419662476, 39.0, 22.0 ],
					"text" : "gate~"
				}

			}
, 			{
				"box" : 				{
					"activebgcolor" : [ 1.0, 1.0, 1.0, 1.0 ],
					"activetextcolor" : [ 0.501960784313725, 0.501960784313725, 0.501960784313725, 1.0 ],
					"activetextoncolor" : [ 0.501960784313725, 0.501960784313725, 0.501960784313725, 1.0 ],
					"bgcolor" : [ 1.0, 1.0, 1.0, 1.0 ],
					"bordercolor" : [ 0.501960784313725, 0.501960784313725, 0.501960784313725, 0.0 ],
					"focusbordercolor" : [ 0.501960784313725, 0.501960784313725, 0.501960784313725, 0.0 ],
					"fontface" : 1,
					"fontsize" : 12.0,
					"id" : "obj-71",
					"inactivelcdcolor" : [ 0.501960784313725, 0.501960784313725, 0.501960784313725, 1.0 ],
					"lcdbgcolor" : [ 1.0, 1.0, 1.0, 1.0 ],
					"lcdcolor" : [ 0.501960784313725, 0.501960784313725, 0.501960784313725, 1.0 ],
					"maxclass" : "live.text",
					"numinlets" : 1,
					"numoutlets" : 2,
					"outlettype" : [ "", "" ],
					"parameter_enable" : 1,
					"patching_rect" : [ 918.77777773141861, 40.484641313552856, 37.77777773141861, 22.0 ],
					"presentation" : 1,
					"presentation_rect" : [ 266.817205160856247, 1.218427419662476, 28.52777773141861, 17.5 ],
					"saved_attribute_attributes" : 					{
						"activebgcolor" : 						{
							"expression" : ""
						}
,
						"activetextcolor" : 						{
							"expression" : ""
						}
,
						"activetextoncolor" : 						{
							"expression" : ""
						}
,
						"bgcolor" : 						{
							"expression" : ""
						}
,
						"bordercolor" : 						{
							"expression" : ""
						}
,
						"focusbordercolor" : 						{
							"expression" : ""
						}
,
						"inactivelcdcolor" : 						{
							"expression" : ""
						}
,
						"lcdbgcolor" : 						{
							"expression" : ""
						}
,
						"lcdcolor" : 						{
							"expression" : ""
						}
,
						"valueof" : 						{
							"parameter_enum" : [ "val1", "val2" ],
							"parameter_longname" : "live.text[14]",
							"parameter_mmax" : 1.0,
							"parameter_shortname" : "live.text",
							"parameter_type" : 1
						}

					}
,
					"text" : "ON",
					"texton" : "ON",
					"varname" : "live.text[14]"
				}

			}
, 			{
				"box" : 				{
					"activebgcolor" : [ 1.0, 1.0, 1.0, 1.0 ],
					"activetextcolor" : [ 0.501960784313725, 0.501960784313725, 0.501960784313725, 1.0 ],
					"activetextoncolor" : [ 0.501960784313725, 0.501960784313725, 0.501960784313725, 1.0 ],
					"bgcolor" : [ 1.0, 1.0, 1.0, 1.0 ],
					"bordercolor" : [ 0.501960784313725, 0.501960784313725, 0.501960784313725, 0.0 ],
					"focusbordercolor" : [ 0.501960784313725, 0.501960784313725, 0.501960784313725, 0.0 ],
					"fontface" : 1,
					"fontsize" : 9.0,
					"id" : "obj-72",
					"inactivelcdcolor" : [ 0.501960784313725, 0.501960784313725, 0.501960784313725, 1.0 ],
					"lcdbgcolor" : [ 1.0, 1.0, 1.0, 1.0 ],
					"lcdcolor" : [ 0.501960784313725, 0.501960784313725, 0.501960784313725, 1.0 ],
					"maxclass" : "live.text",
					"numinlets" : 1,
					"numoutlets" : 2,
					"outlettype" : [ "", "" ],
					"parameter_enable" : 1,
					"patching_rect" : [ 879.0, 40.484641313552856, 37.77777773141861, 22.0 ],
					"presentation" : 1,
					"presentation_rect" : [ 263.581094026565552, 57.968427419662476, 16.0, 16.0 ],
					"saved_attribute_attributes" : 					{
						"activebgcolor" : 						{
							"expression" : ""
						}
,
						"activetextcolor" : 						{
							"expression" : ""
						}
,
						"activetextoncolor" : 						{
							"expression" : ""
						}
,
						"bgcolor" : 						{
							"expression" : ""
						}
,
						"bordercolor" : 						{
							"expression" : ""
						}
,
						"focusbordercolor" : 						{
							"expression" : ""
						}
,
						"inactivelcdcolor" : 						{
							"expression" : ""
						}
,
						"lcdbgcolor" : 						{
							"expression" : ""
						}
,
						"lcdcolor" : 						{
							"expression" : ""
						}
,
						"valueof" : 						{
							"parameter_enum" : [ "val1", "val2" ],
							"parameter_longname" : "live.text[15]",
							"parameter_mmax" : 1.0,
							"parameter_shortname" : "live.text",
							"parameter_type" : 1
						}

					}
,
					"text" : "P",
					"texton" : "P",
					"varname" : "live.text[15]"
				}

			}
, 			{
				"box" : 				{
					"channels" : 1,
					"id" : "obj-73",
					"lastchannelcount" : 0,
					"maxclass" : "live.gain~",
					"numinlets" : 1,
					"numoutlets" : 4,
					"outlettype" : [ "signal", "", "float", "list" ],
					"parameter_enable" : 1,
					"patching_rect" : [ 910.0, 112.218427419662476, 48.0, 205.0 ],
					"presentation" : 1,
					"presentation_rect" : [ 265.581094026565552, 20.718427419662476, 31.0, 176.0 ],
					"saved_attribute_attributes" : 					{
						"valueof" : 						{
							"parameter_initial" : [ "-inf" ],
							"parameter_initial_enable" : 1,
							"parameter_linknames" : 1,
							"parameter_longname" : "FX8",
							"parameter_mmax" : 6.0,
							"parameter_mmin" : -70.0,
							"parameter_shortname" : "FX8",
							"parameter_type" : 0,
							"parameter_unitstyle" : 4
						}

					}
,
					"varname" : "FX8"
				}

			}
, 			{
				"box" : 				{
					"id" : "obj-74",
					"maxclass" : "newobj",
					"numinlets" : 1,
					"numoutlets" : 1,
					"outlettype" : [ "signal" ],
					"patching_rect" : [ 879.0, 4.0, 123.0, 22.0 ],
					"text" : "receive~ fromFXbus8"
				}

			}
, 			{
				"box" : 				{
					"id" : "obj-58",
					"maxclass" : "message",
					"numinlets" : 2,
					"numoutlets" : 1,
					"outlettype" : [ "" ],
					"patching_rect" : [ 793.77777773141861, 68.129691123962402, 57.0, 22.0 ],
					"text" : "active $1"
				}

			}
, 			{
				"box" : 				{
					"id" : "obj-59",
					"maxclass" : "meter~",
					"numinlets" : 1,
					"numoutlets" : 1,
					"outlettype" : [ "float" ],
					"patching_rect" : [ 757.5, 157.218427419662476, 12.0, 160.0 ],
					"presentation" : 1,
					"presentation_rect" : [ 225.5, 73.968427419662476, 12.0, 69.5 ]
				}

			}
, 			{
				"box" : 				{
					"id" : "obj-60",
					"maxclass" : "newobj",
					"numinlets" : 2,
					"numoutlets" : 1,
					"outlettype" : [ "signal" ],
					"patching_rect" : [ 754.0, 112.218427419662476, 39.0, 22.0 ],
					"text" : "gate~"
				}

			}
, 			{
				"box" : 				{
					"id" : "obj-61",
					"maxclass" : "newobj",
					"numinlets" : 2,
					"numoutlets" : 1,
					"outlettype" : [ "signal" ],
					"patching_rect" : [ 793.77777773141861, 324.218427419662476, 39.0, 22.0 ],
					"text" : "gate~"
				}

			}
, 			{
				"box" : 				{
					"activebgcolor" : [ 1.0, 1.0, 1.0, 1.0 ],
					"activetextcolor" : [ 0.501960784313725, 0.501960784313725, 0.501960784313725, 1.0 ],
					"activetextoncolor" : [ 0.501960784313725, 0.501960784313725, 0.501960784313725, 1.0 ],
					"bgcolor" : [ 1.0, 1.0, 1.0, 1.0 ],
					"bordercolor" : [ 0.501960784313725, 0.501960784313725, 0.501960784313725, 0.0 ],
					"focusbordercolor" : [ 0.501960784313725, 0.501960784313725, 0.501960784313725, 0.0 ],
					"fontface" : 1,
					"fontsize" : 12.0,
					"id" : "obj-62",
					"inactivelcdcolor" : [ 0.501960784313725, 0.501960784313725, 0.501960784313725, 1.0 ],
					"lcdbgcolor" : [ 1.0, 1.0, 1.0, 1.0 ],
					"lcdcolor" : [ 0.501960784313725, 0.501960784313725, 0.501960784313725, 1.0 ],
					"maxclass" : "live.text",
					"numinlets" : 1,
					"numoutlets" : 2,
					"outlettype" : [ "", "" ],
					"parameter_enable" : 1,
					"patching_rect" : [ 793.77777773141861, 40.484641313552856, 37.77777773141861, 22.0 ],
					"presentation" : 1,
					"presentation_rect" : [ 229.817205160856247, 1.218427419662476, 28.52777773141861, 17.5 ],
					"saved_attribute_attributes" : 					{
						"activebgcolor" : 						{
							"expression" : ""
						}
,
						"activetextcolor" : 						{
							"expression" : ""
						}
,
						"activetextoncolor" : 						{
							"expression" : ""
						}
,
						"bgcolor" : 						{
							"expression" : ""
						}
,
						"bordercolor" : 						{
							"expression" : ""
						}
,
						"focusbordercolor" : 						{
							"expression" : ""
						}
,
						"inactivelcdcolor" : 						{
							"expression" : ""
						}
,
						"lcdbgcolor" : 						{
							"expression" : ""
						}
,
						"lcdcolor" : 						{
							"expression" : ""
						}
,
						"valueof" : 						{
							"parameter_enum" : [ "val1", "val2" ],
							"parameter_longname" : "live.text[12]",
							"parameter_mmax" : 1.0,
							"parameter_shortname" : "live.text",
							"parameter_type" : 1
						}

					}
,
					"text" : "ON",
					"texton" : "ON",
					"varname" : "live.text[12]"
				}

			}
, 			{
				"box" : 				{
					"activebgcolor" : [ 1.0, 1.0, 1.0, 1.0 ],
					"activetextcolor" : [ 0.501960784313725, 0.501960784313725, 0.501960784313725, 1.0 ],
					"activetextoncolor" : [ 0.501960784313725, 0.501960784313725, 0.501960784313725, 1.0 ],
					"bgcolor" : [ 1.0, 1.0, 1.0, 1.0 ],
					"bordercolor" : [ 0.501960784313725, 0.501960784313725, 0.501960784313725, 0.0 ],
					"focusbordercolor" : [ 0.501960784313725, 0.501960784313725, 0.501960784313725, 0.0 ],
					"fontface" : 1,
					"fontsize" : 9.0,
					"id" : "obj-63",
					"inactivelcdcolor" : [ 0.501960784313725, 0.501960784313725, 0.501960784313725, 1.0 ],
					"lcdbgcolor" : [ 1.0, 1.0, 1.0, 1.0 ],
					"lcdcolor" : [ 0.501960784313725, 0.501960784313725, 0.501960784313725, 1.0 ],
					"maxclass" : "live.text",
					"numinlets" : 1,
					"numoutlets" : 2,
					"outlettype" : [ "", "" ],
					"parameter_enable" : 1,
					"patching_rect" : [ 754.0, 40.484641313552856, 37.77777773141861, 22.0 ],
					"presentation" : 1,
					"presentation_rect" : [ 223.5, 57.968427419662476, 16.0, 16.0 ],
					"saved_attribute_attributes" : 					{
						"activebgcolor" : 						{
							"expression" : ""
						}
,
						"activetextcolor" : 						{
							"expression" : ""
						}
,
						"activetextoncolor" : 						{
							"expression" : ""
						}
,
						"bgcolor" : 						{
							"expression" : ""
						}
,
						"bordercolor" : 						{
							"expression" : ""
						}
,
						"focusbordercolor" : 						{
							"expression" : ""
						}
,
						"inactivelcdcolor" : 						{
							"expression" : ""
						}
,
						"lcdbgcolor" : 						{
							"expression" : ""
						}
,
						"lcdcolor" : 						{
							"expression" : ""
						}
,
						"valueof" : 						{
							"parameter_enum" : [ "val1", "val2" ],
							"parameter_longname" : "live.text[13]",
							"parameter_mmax" : 1.0,
							"parameter_shortname" : "live.text",
							"parameter_type" : 1
						}

					}
,
					"text" : "P",
					"texton" : "P",
					"varname" : "live.text[13]"
				}

			}
, 			{
				"box" : 				{
					"channels" : 1,
					"id" : "obj-64",
					"lastchannelcount" : 0,
					"maxclass" : "live.gain~",
					"numinlets" : 1,
					"numoutlets" : 4,
					"outlettype" : [ "signal", "", "float", "list" ],
					"parameter_enable" : 1,
					"patching_rect" : [ 785.0, 112.218427419662476, 48.0, 205.0 ],
					"presentation" : 1,
					"presentation_rect" : [ 228.581094026565552, 20.718427419662476, 31.0, 176.0 ],
					"saved_attribute_attributes" : 					{
						"valueof" : 						{
							"parameter_initial" : [ "-inf" ],
							"parameter_initial_enable" : 1,
							"parameter_linknames" : 1,
							"parameter_longname" : "FX7",
							"parameter_mmax" : 6.0,
							"parameter_mmin" : -70.0,
							"parameter_shortname" : "FX7",
							"parameter_type" : 0,
							"parameter_unitstyle" : 4
						}

					}
,
					"varname" : "FX7"
				}

			}
, 			{
				"box" : 				{
					"id" : "obj-65",
					"maxclass" : "newobj",
					"numinlets" : 1,
					"numoutlets" : 1,
					"outlettype" : [ "signal" ],
					"patching_rect" : [ 754.0, 4.0, 123.0, 22.0 ],
					"text" : "receive~ fromFXbus7"
				}

			}
, 			{
				"box" : 				{
					"id" : "obj-50",
					"maxclass" : "message",
					"numinlets" : 2,
					"numoutlets" : 1,
					"outlettype" : [ "" ],
					"patching_rect" : [ 668.77777773141861, 68.129691123962402, 57.0, 22.0 ],
					"text" : "active $1"
				}

			}
, 			{
				"box" : 				{
					"id" : "obj-51",
					"maxclass" : "meter~",
					"numinlets" : 1,
					"numoutlets" : 1,
					"outlettype" : [ "float" ],
					"patching_rect" : [ 632.5, 157.218427419662476, 12.0, 160.0 ],
					"presentation" : 1,
					"presentation_rect" : [ 188.5, 73.968427419662476, 12.0, 69.5 ]
				}

			}
, 			{
				"box" : 				{
					"id" : "obj-52",
					"maxclass" : "newobj",
					"numinlets" : 2,
					"numoutlets" : 1,
					"outlettype" : [ "signal" ],
					"patching_rect" : [ 629.0, 112.218427419662476, 39.0, 22.0 ],
					"text" : "gate~"
				}

			}
, 			{
				"box" : 				{
					"id" : "obj-53",
					"maxclass" : "newobj",
					"numinlets" : 2,
					"numoutlets" : 1,
					"outlettype" : [ "signal" ],
					"patching_rect" : [ 668.77777773141861, 324.218427419662476, 39.0, 22.0 ],
					"text" : "gate~"
				}

			}
, 			{
				"box" : 				{
					"activebgcolor" : [ 1.0, 1.0, 1.0, 1.0 ],
					"activetextcolor" : [ 0.501960784313725, 0.501960784313725, 0.501960784313725, 1.0 ],
					"activetextoncolor" : [ 0.501960784313725, 0.501960784313725, 0.501960784313725, 1.0 ],
					"bgcolor" : [ 1.0, 1.0, 1.0, 1.0 ],
					"bordercolor" : [ 0.501960784313725, 0.501960784313725, 0.501960784313725, 0.0 ],
					"focusbordercolor" : [ 0.501960784313725, 0.501960784313725, 0.501960784313725, 0.0 ],
					"fontface" : 1,
					"fontsize" : 12.0,
					"id" : "obj-54",
					"inactivelcdcolor" : [ 0.501960784313725, 0.501960784313725, 0.501960784313725, 1.0 ],
					"lcdbgcolor" : [ 1.0, 1.0, 1.0, 1.0 ],
					"lcdcolor" : [ 0.501960784313725, 0.501960784313725, 0.501960784313725, 1.0 ],
					"maxclass" : "live.text",
					"numinlets" : 1,
					"numoutlets" : 2,
					"outlettype" : [ "", "" ],
					"parameter_enable" : 1,
					"patching_rect" : [ 668.77777773141861, 40.484641313552856, 37.77777773141861, 22.0 ],
					"presentation" : 1,
					"presentation_rect" : [ 189.736111134290695, 1.218427419662476, 28.52777773141861, 17.5 ],
					"saved_attribute_attributes" : 					{
						"activebgcolor" : 						{
							"expression" : ""
						}
,
						"activetextcolor" : 						{
							"expression" : ""
						}
,
						"activetextoncolor" : 						{
							"expression" : ""
						}
,
						"bgcolor" : 						{
							"expression" : ""
						}
,
						"bordercolor" : 						{
							"expression" : ""
						}
,
						"focusbordercolor" : 						{
							"expression" : ""
						}
,
						"inactivelcdcolor" : 						{
							"expression" : ""
						}
,
						"lcdbgcolor" : 						{
							"expression" : ""
						}
,
						"lcdcolor" : 						{
							"expression" : ""
						}
,
						"valueof" : 						{
							"parameter_enum" : [ "val1", "val2" ],
							"parameter_longname" : "live.text[10]",
							"parameter_mmax" : 1.0,
							"parameter_shortname" : "live.text",
							"parameter_type" : 1
						}

					}
,
					"text" : "ON",
					"texton" : "ON",
					"varname" : "live.text[10]"
				}

			}
, 			{
				"box" : 				{
					"activebgcolor" : [ 1.0, 1.0, 1.0, 1.0 ],
					"activetextcolor" : [ 0.501960784313725, 0.501960784313725, 0.501960784313725, 1.0 ],
					"activetextoncolor" : [ 0.501960784313725, 0.501960784313725, 0.501960784313725, 1.0 ],
					"bgcolor" : [ 1.0, 1.0, 1.0, 1.0 ],
					"bordercolor" : [ 0.501960784313725, 0.501960784313725, 0.501960784313725, 0.0 ],
					"focusbordercolor" : [ 0.501960784313725, 0.501960784313725, 0.501960784313725, 0.0 ],
					"fontface" : 1,
					"fontsize" : 9.0,
					"id" : "obj-55",
					"inactivelcdcolor" : [ 0.501960784313725, 0.501960784313725, 0.501960784313725, 1.0 ],
					"lcdbgcolor" : [ 1.0, 1.0, 1.0, 1.0 ],
					"lcdcolor" : [ 0.501960784313725, 0.501960784313725, 0.501960784313725, 1.0 ],
					"maxclass" : "live.text",
					"numinlets" : 1,
					"numoutlets" : 2,
					"outlettype" : [ "", "" ],
					"parameter_enable" : 1,
					"patching_rect" : [ 629.0, 40.484641313552856, 37.77777773141861, 22.0 ],
					"presentation" : 1,
					"presentation_rect" : [ 186.5, 57.968427419662476, 16.0, 16.0 ],
					"saved_attribute_attributes" : 					{
						"activebgcolor" : 						{
							"expression" : ""
						}
,
						"activetextcolor" : 						{
							"expression" : ""
						}
,
						"activetextoncolor" : 						{
							"expression" : ""
						}
,
						"bgcolor" : 						{
							"expression" : ""
						}
,
						"bordercolor" : 						{
							"expression" : ""
						}
,
						"focusbordercolor" : 						{
							"expression" : ""
						}
,
						"inactivelcdcolor" : 						{
							"expression" : ""
						}
,
						"lcdbgcolor" : 						{
							"expression" : ""
						}
,
						"lcdcolor" : 						{
							"expression" : ""
						}
,
						"valueof" : 						{
							"parameter_enum" : [ "val1", "val2" ],
							"parameter_longname" : "live.text[11]",
							"parameter_mmax" : 1.0,
							"parameter_shortname" : "live.text",
							"parameter_type" : 1
						}

					}
,
					"text" : "P",
					"texton" : "P",
					"varname" : "live.text[11]"
				}

			}
, 			{
				"box" : 				{
					"channels" : 1,
					"id" : "obj-56",
					"lastchannelcount" : 0,
					"maxclass" : "live.gain~",
					"numinlets" : 1,
					"numoutlets" : 4,
					"outlettype" : [ "signal", "", "float", "list" ],
					"parameter_enable" : 1,
					"patching_rect" : [ 660.0, 112.218427419662476, 48.0, 205.0 ],
					"presentation" : 1,
					"presentation_rect" : [ 188.5, 20.718427419662476, 31.0, 176.0 ],
					"saved_attribute_attributes" : 					{
						"valueof" : 						{
							"parameter_initial" : [ "-inf" ],
							"parameter_initial_enable" : 1,
							"parameter_linknames" : 1,
							"parameter_longname" : "FX6",
							"parameter_mmax" : 6.0,
							"parameter_mmin" : -70.0,
							"parameter_shortname" : "FX6",
							"parameter_type" : 0,
							"parameter_unitstyle" : 4
						}

					}
,
					"varname" : "FX6"
				}

			}
, 			{
				"box" : 				{
					"id" : "obj-57",
					"maxclass" : "newobj",
					"numinlets" : 1,
					"numoutlets" : 1,
					"outlettype" : [ "signal" ],
					"patching_rect" : [ 629.0, 4.0, 123.0, 22.0 ],
					"text" : "receive~ fromFXbus6"
				}

			}
, 			{
				"box" : 				{
					"id" : "obj-42",
					"maxclass" : "message",
					"numinlets" : 2,
					"numoutlets" : 1,
					"outlettype" : [ "" ],
					"patching_rect" : [ 543.77777773141861, 68.129691123962402, 57.0, 22.0 ],
					"text" : "active $1"
				}

			}
, 			{
				"box" : 				{
					"id" : "obj-43",
					"maxclass" : "meter~",
					"numinlets" : 1,
					"numoutlets" : 1,
					"outlettype" : [ "float" ],
					"patching_rect" : [ 507.5, 157.218427419662476, 12.0, 160.0 ],
					"presentation" : 1,
					"presentation_rect" : [ 151.5, 73.968427419662476, 12.0, 69.5 ]
				}

			}
, 			{
				"box" : 				{
					"id" : "obj-44",
					"maxclass" : "newobj",
					"numinlets" : 2,
					"numoutlets" : 1,
					"outlettype" : [ "signal" ],
					"patching_rect" : [ 504.0, 112.218427419662476, 39.0, 22.0 ],
					"text" : "gate~"
				}

			}
, 			{
				"box" : 				{
					"id" : "obj-45",
					"maxclass" : "newobj",
					"numinlets" : 2,
					"numoutlets" : 1,
					"outlettype" : [ "signal" ],
					"patching_rect" : [ 543.77777773141861, 324.218427419662476, 39.0, 22.0 ],
					"text" : "gate~"
				}

			}
, 			{
				"box" : 				{
					"activebgcolor" : [ 1.0, 1.0, 1.0, 1.0 ],
					"activetextcolor" : [ 0.501960784313725, 0.501960784313725, 0.501960784313725, 1.0 ],
					"activetextoncolor" : [ 0.501960784313725, 0.501960784313725, 0.501960784313725, 1.0 ],
					"bgcolor" : [ 1.0, 1.0, 1.0, 1.0 ],
					"bordercolor" : [ 0.501960784313725, 0.501960784313725, 0.501960784313725, 0.0 ],
					"focusbordercolor" : [ 0.501960784313725, 0.501960784313725, 0.501960784313725, 0.0 ],
					"fontface" : 1,
					"fontsize" : 12.0,
					"id" : "obj-46",
					"inactivelcdcolor" : [ 0.501960784313725, 0.501960784313725, 0.501960784313725, 1.0 ],
					"lcdbgcolor" : [ 1.0, 1.0, 1.0, 1.0 ],
					"lcdcolor" : [ 0.501960784313725, 0.501960784313725, 0.501960784313725, 1.0 ],
					"maxclass" : "live.text",
					"numinlets" : 1,
					"numoutlets" : 2,
					"outlettype" : [ "", "" ],
					"parameter_enable" : 1,
					"patching_rect" : [ 543.77777773141861, 40.484641313552856, 37.77777773141861, 22.0 ],
					"presentation" : 1,
					"presentation_rect" : [ 152.736111134290695, 1.218427419662476, 28.52777773141861, 17.5 ],
					"saved_attribute_attributes" : 					{
						"activebgcolor" : 						{
							"expression" : ""
						}
,
						"activetextcolor" : 						{
							"expression" : ""
						}
,
						"activetextoncolor" : 						{
							"expression" : ""
						}
,
						"bgcolor" : 						{
							"expression" : ""
						}
,
						"bordercolor" : 						{
							"expression" : ""
						}
,
						"focusbordercolor" : 						{
							"expression" : ""
						}
,
						"inactivelcdcolor" : 						{
							"expression" : ""
						}
,
						"lcdbgcolor" : 						{
							"expression" : ""
						}
,
						"lcdcolor" : 						{
							"expression" : ""
						}
,
						"valueof" : 						{
							"parameter_enum" : [ "val1", "val2" ],
							"parameter_longname" : "live.text[8]",
							"parameter_mmax" : 1.0,
							"parameter_shortname" : "live.text",
							"parameter_type" : 1
						}

					}
,
					"text" : "ON",
					"texton" : "ON",
					"varname" : "live.text[8]"
				}

			}
, 			{
				"box" : 				{
					"activebgcolor" : [ 1.0, 1.0, 1.0, 1.0 ],
					"activetextcolor" : [ 0.501960784313725, 0.501960784313725, 0.501960784313725, 1.0 ],
					"activetextoncolor" : [ 0.501960784313725, 0.501960784313725, 0.501960784313725, 1.0 ],
					"bgcolor" : [ 1.0, 1.0, 1.0, 1.0 ],
					"bordercolor" : [ 0.501960784313725, 0.501960784313725, 0.501960784313725, 0.0 ],
					"focusbordercolor" : [ 0.501960784313725, 0.501960784313725, 0.501960784313725, 0.0 ],
					"fontface" : 1,
					"fontsize" : 9.0,
					"id" : "obj-47",
					"inactivelcdcolor" : [ 0.501960784313725, 0.501960784313725, 0.501960784313725, 1.0 ],
					"lcdbgcolor" : [ 1.0, 1.0, 1.0, 1.0 ],
					"lcdcolor" : [ 0.501960784313725, 0.501960784313725, 0.501960784313725, 1.0 ],
					"maxclass" : "live.text",
					"numinlets" : 1,
					"numoutlets" : 2,
					"outlettype" : [ "", "" ],
					"parameter_enable" : 1,
					"patching_rect" : [ 504.0, 40.484641313552856, 37.77777773141861, 22.0 ],
					"presentation" : 1,
					"presentation_rect" : [ 149.5, 57.968427419662476, 16.0, 16.0 ],
					"saved_attribute_attributes" : 					{
						"activebgcolor" : 						{
							"expression" : ""
						}
,
						"activetextcolor" : 						{
							"expression" : ""
						}
,
						"activetextoncolor" : 						{
							"expression" : ""
						}
,
						"bgcolor" : 						{
							"expression" : ""
						}
,
						"bordercolor" : 						{
							"expression" : ""
						}
,
						"focusbordercolor" : 						{
							"expression" : ""
						}
,
						"inactivelcdcolor" : 						{
							"expression" : ""
						}
,
						"lcdbgcolor" : 						{
							"expression" : ""
						}
,
						"lcdcolor" : 						{
							"expression" : ""
						}
,
						"valueof" : 						{
							"parameter_enum" : [ "val1", "val2" ],
							"parameter_longname" : "live.text[9]",
							"parameter_mmax" : 1.0,
							"parameter_shortname" : "live.text",
							"parameter_type" : 1
						}

					}
,
					"text" : "P",
					"texton" : "P",
					"varname" : "live.text[9]"
				}

			}
, 			{
				"box" : 				{
					"channels" : 1,
					"id" : "obj-48",
					"lastchannelcount" : 0,
					"maxclass" : "live.gain~",
					"numinlets" : 1,
					"numoutlets" : 4,
					"outlettype" : [ "signal", "", "float", "list" ],
					"parameter_enable" : 1,
					"patching_rect" : [ 535.0, 112.218427419662476, 48.0, 205.0 ],
					"presentation" : 1,
					"presentation_rect" : [ 151.5, 20.718427419662476, 31.0, 176.0 ],
					"saved_attribute_attributes" : 					{
						"valueof" : 						{
							"parameter_initial" : [ "-inf" ],
							"parameter_initial_enable" : 1,
							"parameter_linknames" : 1,
							"parameter_longname" : "FX5",
							"parameter_mmax" : 6.0,
							"parameter_mmin" : -70.0,
							"parameter_shortname" : "FX5",
							"parameter_type" : 0,
							"parameter_unitstyle" : 4
						}

					}
,
					"varname" : "FX5"
				}

			}
, 			{
				"box" : 				{
					"id" : "obj-49",
					"maxclass" : "newobj",
					"numinlets" : 1,
					"numoutlets" : 1,
					"outlettype" : [ "signal" ],
					"patching_rect" : [ 504.0, 4.0, 123.0, 22.0 ],
					"text" : "receive~ fromFXbus5"
				}

			}
, 			{
				"box" : 				{
					"id" : "obj-34",
					"maxclass" : "message",
					"numinlets" : 2,
					"numoutlets" : 1,
					"outlettype" : [ "" ],
					"patching_rect" : [ 418.77777773141861, 68.129691123962402, 57.0, 22.0 ],
					"text" : "active $1"
				}

			}
, 			{
				"box" : 				{
					"id" : "obj-35",
					"maxclass" : "meter~",
					"numinlets" : 1,
					"numoutlets" : 1,
					"outlettype" : [ "float" ],
					"patching_rect" : [ 382.5, 157.218427419662476, 12.0, 160.0 ],
					"presentation" : 1,
					"presentation_rect" : [ 114.5, 73.968427419662476, 12.0, 69.5 ]
				}

			}
, 			{
				"box" : 				{
					"id" : "obj-36",
					"maxclass" : "newobj",
					"numinlets" : 2,
					"numoutlets" : 1,
					"outlettype" : [ "signal" ],
					"patching_rect" : [ 379.0, 112.218427419662476, 39.0, 22.0 ],
					"text" : "gate~"
				}

			}
, 			{
				"box" : 				{
					"id" : "obj-37",
					"maxclass" : "newobj",
					"numinlets" : 2,
					"numoutlets" : 1,
					"outlettype" : [ "signal" ],
					"patching_rect" : [ 418.77777773141861, 324.218427419662476, 39.0, 22.0 ],
					"text" : "gate~"
				}

			}
, 			{
				"box" : 				{
					"activebgcolor" : [ 1.0, 1.0, 1.0, 1.0 ],
					"activetextcolor" : [ 0.501960784313725, 0.501960784313725, 0.501960784313725, 1.0 ],
					"activetextoncolor" : [ 0.501960784313725, 0.501960784313725, 0.501960784313725, 1.0 ],
					"bgcolor" : [ 1.0, 1.0, 1.0, 1.0 ],
					"bordercolor" : [ 0.501960784313725, 0.501960784313725, 0.501960784313725, 0.0 ],
					"focusbordercolor" : [ 0.501960784313725, 0.501960784313725, 0.501960784313725, 0.0 ],
					"fontface" : 1,
					"fontsize" : 12.0,
					"id" : "obj-38",
					"inactivelcdcolor" : [ 0.501960784313725, 0.501960784313725, 0.501960784313725, 1.0 ],
					"lcdbgcolor" : [ 1.0, 1.0, 1.0, 1.0 ],
					"lcdcolor" : [ 0.501960784313725, 0.501960784313725, 0.501960784313725, 1.0 ],
					"maxclass" : "live.text",
					"numinlets" : 1,
					"numoutlets" : 2,
					"outlettype" : [ "", "" ],
					"parameter_enable" : 1,
					"patching_rect" : [ 418.77777773141861, 40.484641313552856, 37.77777773141861, 22.0 ],
					"presentation" : 1,
					"presentation_rect" : [ 115.736111134290695, 1.218427419662476, 28.52777773141861, 17.5 ],
					"saved_attribute_attributes" : 					{
						"activebgcolor" : 						{
							"expression" : ""
						}
,
						"activetextcolor" : 						{
							"expression" : ""
						}
,
						"activetextoncolor" : 						{
							"expression" : ""
						}
,
						"bgcolor" : 						{
							"expression" : ""
						}
,
						"bordercolor" : 						{
							"expression" : ""
						}
,
						"focusbordercolor" : 						{
							"expression" : ""
						}
,
						"inactivelcdcolor" : 						{
							"expression" : ""
						}
,
						"lcdbgcolor" : 						{
							"expression" : ""
						}
,
						"lcdcolor" : 						{
							"expression" : ""
						}
,
						"valueof" : 						{
							"parameter_enum" : [ "val1", "val2" ],
							"parameter_longname" : "live.text[6]",
							"parameter_mmax" : 1.0,
							"parameter_shortname" : "live.text",
							"parameter_type" : 1
						}

					}
,
					"text" : "ON",
					"texton" : "ON",
					"varname" : "live.text[6]"
				}

			}
, 			{
				"box" : 				{
					"activebgcolor" : [ 1.0, 1.0, 1.0, 1.0 ],
					"activetextcolor" : [ 0.501960784313725, 0.501960784313725, 0.501960784313725, 1.0 ],
					"activetextoncolor" : [ 0.501960784313725, 0.501960784313725, 0.501960784313725, 1.0 ],
					"bgcolor" : [ 1.0, 1.0, 1.0, 1.0 ],
					"bordercolor" : [ 0.501960784313725, 0.501960784313725, 0.501960784313725, 0.0 ],
					"focusbordercolor" : [ 0.501960784313725, 0.501960784313725, 0.501960784313725, 0.0 ],
					"fontface" : 1,
					"fontsize" : 9.0,
					"id" : "obj-39",
					"inactivelcdcolor" : [ 0.501960784313725, 0.501960784313725, 0.501960784313725, 1.0 ],
					"lcdbgcolor" : [ 1.0, 1.0, 1.0, 1.0 ],
					"lcdcolor" : [ 0.501960784313725, 0.501960784313725, 0.501960784313725, 1.0 ],
					"maxclass" : "live.text",
					"numinlets" : 1,
					"numoutlets" : 2,
					"outlettype" : [ "", "" ],
					"parameter_enable" : 1,
					"patching_rect" : [ 379.0, 40.484641313552856, 37.77777773141861, 22.0 ],
					"presentation" : 1,
					"presentation_rect" : [ 112.5, 57.968427419662476, 16.0, 16.0 ],
					"saved_attribute_attributes" : 					{
						"activebgcolor" : 						{
							"expression" : ""
						}
,
						"activetextcolor" : 						{
							"expression" : ""
						}
,
						"activetextoncolor" : 						{
							"expression" : ""
						}
,
						"bgcolor" : 						{
							"expression" : ""
						}
,
						"bordercolor" : 						{
							"expression" : ""
						}
,
						"focusbordercolor" : 						{
							"expression" : ""
						}
,
						"inactivelcdcolor" : 						{
							"expression" : ""
						}
,
						"lcdbgcolor" : 						{
							"expression" : ""
						}
,
						"lcdcolor" : 						{
							"expression" : ""
						}
,
						"valueof" : 						{
							"parameter_enum" : [ "val1", "val2" ],
							"parameter_longname" : "live.text[7]",
							"parameter_mmax" : 1.0,
							"parameter_shortname" : "live.text",
							"parameter_type" : 1
						}

					}
,
					"text" : "P",
					"texton" : "P",
					"varname" : "live.text[7]"
				}

			}
, 			{
				"box" : 				{
					"channels" : 1,
					"id" : "obj-40",
					"lastchannelcount" : 0,
					"maxclass" : "live.gain~",
					"numinlets" : 1,
					"numoutlets" : 4,
					"outlettype" : [ "signal", "", "float", "list" ],
					"parameter_enable" : 1,
					"patching_rect" : [ 410.0, 112.218427419662476, 48.0, 205.0 ],
					"presentation" : 1,
					"presentation_rect" : [ 114.5, 20.718427419662476, 31.0, 176.0 ],
					"saved_attribute_attributes" : 					{
						"valueof" : 						{
							"parameter_initial" : [ "-inf" ],
							"parameter_initial_enable" : 1,
							"parameter_linknames" : 1,
							"parameter_longname" : "FX4",
							"parameter_mmax" : 6.0,
							"parameter_mmin" : -70.0,
							"parameter_shortname" : "FX4",
							"parameter_type" : 0,
							"parameter_unitstyle" : 4
						}

					}
,
					"varname" : "FX4"
				}

			}
, 			{
				"box" : 				{
					"id" : "obj-41",
					"maxclass" : "newobj",
					"numinlets" : 1,
					"numoutlets" : 1,
					"outlettype" : [ "signal" ],
					"patching_rect" : [ 379.0, 4.0, 123.0, 22.0 ],
					"text" : "receive~ fromFXbus4"
				}

			}
, 			{
				"box" : 				{
					"id" : "obj-26",
					"maxclass" : "message",
					"numinlets" : 2,
					"numoutlets" : 1,
					"outlettype" : [ "" ],
					"patching_rect" : [ 293.77777773141861, 68.129691123962402, 57.0, 22.0 ],
					"text" : "active $1"
				}

			}
, 			{
				"box" : 				{
					"id" : "obj-27",
					"maxclass" : "meter~",
					"numinlets" : 1,
					"numoutlets" : 1,
					"outlettype" : [ "float" ],
					"patching_rect" : [ 257.5, 157.218427419662476, 12.0, 160.0 ],
					"presentation" : 1,
					"presentation_rect" : [ 77.5, 73.968427419662476, 12.0, 69.5 ]
				}

			}
, 			{
				"box" : 				{
					"id" : "obj-28",
					"maxclass" : "newobj",
					"numinlets" : 2,
					"numoutlets" : 1,
					"outlettype" : [ "signal" ],
					"patching_rect" : [ 254.0, 112.218427419662476, 39.0, 22.0 ],
					"text" : "gate~"
				}

			}
, 			{
				"box" : 				{
					"id" : "obj-29",
					"maxclass" : "newobj",
					"numinlets" : 2,
					"numoutlets" : 1,
					"outlettype" : [ "signal" ],
					"patching_rect" : [ 293.77777773141861, 324.218427419662476, 39.0, 22.0 ],
					"text" : "gate~"
				}

			}
, 			{
				"box" : 				{
					"activebgcolor" : [ 1.0, 1.0, 1.0, 1.0 ],
					"activetextcolor" : [ 0.501960784313725, 0.501960784313725, 0.501960784313725, 1.0 ],
					"activetextoncolor" : [ 0.501960784313725, 0.501960784313725, 0.501960784313725, 1.0 ],
					"bgcolor" : [ 1.0, 1.0, 1.0, 1.0 ],
					"bordercolor" : [ 0.501960784313725, 0.501960784313725, 0.501960784313725, 0.0 ],
					"focusbordercolor" : [ 0.501960784313725, 0.501960784313725, 0.501960784313725, 0.0 ],
					"fontface" : 1,
					"fontsize" : 12.0,
					"id" : "obj-30",
					"inactivelcdcolor" : [ 0.501960784313725, 0.501960784313725, 0.501960784313725, 1.0 ],
					"lcdbgcolor" : [ 1.0, 1.0, 1.0, 1.0 ],
					"lcdcolor" : [ 0.501960784313725, 0.501960784313725, 0.501960784313725, 1.0 ],
					"maxclass" : "live.text",
					"numinlets" : 1,
					"numoutlets" : 2,
					"outlettype" : [ "", "" ],
					"parameter_enable" : 1,
					"patching_rect" : [ 293.77777773141861, 40.484641313552856, 37.77777773141861, 22.0 ],
					"presentation" : 1,
					"presentation_rect" : [ 78.5, 1.218427419662476, 28.52777773141861, 17.5 ],
					"saved_attribute_attributes" : 					{
						"activebgcolor" : 						{
							"expression" : ""
						}
,
						"activetextcolor" : 						{
							"expression" : ""
						}
,
						"activetextoncolor" : 						{
							"expression" : ""
						}
,
						"bgcolor" : 						{
							"expression" : ""
						}
,
						"bordercolor" : 						{
							"expression" : ""
						}
,
						"focusbordercolor" : 						{
							"expression" : ""
						}
,
						"inactivelcdcolor" : 						{
							"expression" : ""
						}
,
						"lcdbgcolor" : 						{
							"expression" : ""
						}
,
						"lcdcolor" : 						{
							"expression" : ""
						}
,
						"valueof" : 						{
							"parameter_enum" : [ "val1", "val2" ],
							"parameter_longname" : "live.text[4]",
							"parameter_mmax" : 1.0,
							"parameter_shortname" : "live.text",
							"parameter_type" : 1
						}

					}
,
					"text" : "ON",
					"texton" : "ON",
					"varname" : "live.text[4]"
				}

			}
, 			{
				"box" : 				{
					"activebgcolor" : [ 1.0, 1.0, 1.0, 1.0 ],
					"activetextcolor" : [ 0.501960784313725, 0.501960784313725, 0.501960784313725, 1.0 ],
					"activetextoncolor" : [ 0.501960784313725, 0.501960784313725, 0.501960784313725, 1.0 ],
					"bgcolor" : [ 1.0, 1.0, 1.0, 1.0 ],
					"bordercolor" : [ 0.501960784313725, 0.501960784313725, 0.501960784313725, 0.0 ],
					"focusbordercolor" : [ 0.501960784313725, 0.501960784313725, 0.501960784313725, 0.0 ],
					"fontface" : 1,
					"fontsize" : 9.0,
					"id" : "obj-31",
					"inactivelcdcolor" : [ 0.501960784313725, 0.501960784313725, 0.501960784313725, 1.0 ],
					"lcdbgcolor" : [ 1.0, 1.0, 1.0, 1.0 ],
					"lcdcolor" : [ 0.501960784313725, 0.501960784313725, 0.501960784313725, 1.0 ],
					"maxclass" : "live.text",
					"numinlets" : 1,
					"numoutlets" : 2,
					"outlettype" : [ "", "" ],
					"parameter_enable" : 1,
					"patching_rect" : [ 254.0, 40.484641313552856, 37.77777773141861, 22.0 ],
					"presentation" : 1,
					"presentation_rect" : [ 75.5, 57.968427419662476, 16.0, 16.0 ],
					"saved_attribute_attributes" : 					{
						"activebgcolor" : 						{
							"expression" : ""
						}
,
						"activetextcolor" : 						{
							"expression" : ""
						}
,
						"activetextoncolor" : 						{
							"expression" : ""
						}
,
						"bgcolor" : 						{
							"expression" : ""
						}
,
						"bordercolor" : 						{
							"expression" : ""
						}
,
						"focusbordercolor" : 						{
							"expression" : ""
						}
,
						"inactivelcdcolor" : 						{
							"expression" : ""
						}
,
						"lcdbgcolor" : 						{
							"expression" : ""
						}
,
						"lcdcolor" : 						{
							"expression" : ""
						}
,
						"valueof" : 						{
							"parameter_enum" : [ "val1", "val2" ],
							"parameter_longname" : "live.text[5]",
							"parameter_mmax" : 1.0,
							"parameter_shortname" : "live.text",
							"parameter_type" : 1
						}

					}
,
					"text" : "P",
					"texton" : "P",
					"varname" : "live.text[5]"
				}

			}
, 			{
				"box" : 				{
					"channels" : 1,
					"id" : "obj-32",
					"lastchannelcount" : 0,
					"maxclass" : "live.gain~",
					"numinlets" : 1,
					"numoutlets" : 4,
					"outlettype" : [ "signal", "", "float", "list" ],
					"parameter_enable" : 1,
					"patching_rect" : [ 285.0, 112.218427419662476, 48.0, 205.0 ],
					"presentation" : 1,
					"presentation_rect" : [ 77.5, 20.718427419662476, 31.0, 176.0 ],
					"saved_attribute_attributes" : 					{
						"valueof" : 						{
							"parameter_initial" : [ "-inf" ],
							"parameter_initial_enable" : 1,
							"parameter_linknames" : 1,
							"parameter_longname" : "FX3",
							"parameter_mmax" : 6.0,
							"parameter_mmin" : -70.0,
							"parameter_shortname" : "FX3",
							"parameter_type" : 0,
							"parameter_unitstyle" : 4
						}

					}
,
					"varname" : "FX3"
				}

			}
, 			{
				"box" : 				{
					"id" : "obj-33",
					"maxclass" : "newobj",
					"numinlets" : 1,
					"numoutlets" : 1,
					"outlettype" : [ "signal" ],
					"patching_rect" : [ 254.0, 4.0, 123.0, 22.0 ],
					"text" : "receive~ fromFXbus3"
				}

			}
, 			{
				"box" : 				{
					"id" : "obj-18",
					"maxclass" : "message",
					"numinlets" : 2,
					"numoutlets" : 1,
					"outlettype" : [ "" ],
					"patching_rect" : [ 168.77777773141861, 68.129691123962402, 57.0, 22.0 ],
					"text" : "active $1"
				}

			}
, 			{
				"box" : 				{
					"id" : "obj-19",
					"maxclass" : "meter~",
					"numinlets" : 1,
					"numoutlets" : 1,
					"outlettype" : [ "float" ],
					"patching_rect" : [ 132.5, 157.218427419662476, 12.0, 160.0 ],
					"presentation" : 1,
					"presentation_rect" : [ 40.5, 73.968427419662476, 12.0, 69.5 ]
				}

			}
, 			{
				"box" : 				{
					"id" : "obj-20",
					"maxclass" : "newobj",
					"numinlets" : 2,
					"numoutlets" : 1,
					"outlettype" : [ "signal" ],
					"patching_rect" : [ 129.0, 112.218427419662476, 39.0, 22.0 ],
					"text" : "gate~"
				}

			}
, 			{
				"box" : 				{
					"id" : "obj-21",
					"maxclass" : "newobj",
					"numinlets" : 2,
					"numoutlets" : 1,
					"outlettype" : [ "signal" ],
					"patching_rect" : [ 168.77777773141861, 324.218427419662476, 39.0, 22.0 ],
					"text" : "gate~"
				}

			}
, 			{
				"box" : 				{
					"activebgcolor" : [ 1.0, 1.0, 1.0, 1.0 ],
					"activetextcolor" : [ 0.501960784313725, 0.501960784313725, 0.501960784313725, 1.0 ],
					"activetextoncolor" : [ 0.501960784313725, 0.501960784313725, 0.501960784313725, 1.0 ],
					"bgcolor" : [ 1.0, 1.0, 1.0, 1.0 ],
					"bordercolor" : [ 0.501960784313725, 0.501960784313725, 0.501960784313725, 0.0 ],
					"focusbordercolor" : [ 0.501960784313725, 0.501960784313725, 0.501960784313725, 0.0 ],
					"fontface" : 1,
					"fontsize" : 12.0,
					"id" : "obj-22",
					"inactivelcdcolor" : [ 0.501960784313725, 0.501960784313725, 0.501960784313725, 1.0 ],
					"lcdbgcolor" : [ 1.0, 1.0, 1.0, 1.0 ],
					"lcdcolor" : [ 0.501960784313725, 0.501960784313725, 0.501960784313725, 1.0 ],
					"maxclass" : "live.text",
					"numinlets" : 1,
					"numoutlets" : 2,
					"outlettype" : [ "", "" ],
					"parameter_enable" : 1,
					"patching_rect" : [ 168.77777773141861, 40.484641313552856, 37.77777773141861, 22.0 ],
					"presentation" : 1,
					"presentation_rect" : [ 41.736111134290695, 1.218427419662476, 28.52777773141861, 17.5 ],
					"saved_attribute_attributes" : 					{
						"activebgcolor" : 						{
							"expression" : ""
						}
,
						"activetextcolor" : 						{
							"expression" : ""
						}
,
						"activetextoncolor" : 						{
							"expression" : ""
						}
,
						"bgcolor" : 						{
							"expression" : ""
						}
,
						"bordercolor" : 						{
							"expression" : ""
						}
,
						"focusbordercolor" : 						{
							"expression" : ""
						}
,
						"inactivelcdcolor" : 						{
							"expression" : ""
						}
,
						"lcdbgcolor" : 						{
							"expression" : ""
						}
,
						"lcdcolor" : 						{
							"expression" : ""
						}
,
						"valueof" : 						{
							"parameter_enum" : [ "val1", "val2" ],
							"parameter_longname" : "live.text[2]",
							"parameter_mmax" : 1.0,
							"parameter_shortname" : "live.text",
							"parameter_type" : 1
						}

					}
,
					"text" : "ON",
					"texton" : "ON",
					"varname" : "live.text[2]"
				}

			}
, 			{
				"box" : 				{
					"activebgcolor" : [ 1.0, 1.0, 1.0, 1.0 ],
					"activetextcolor" : [ 0.501960784313725, 0.501960784313725, 0.501960784313725, 1.0 ],
					"activetextoncolor" : [ 0.501960784313725, 0.501960784313725, 0.501960784313725, 1.0 ],
					"bgcolor" : [ 1.0, 1.0, 1.0, 1.0 ],
					"bordercolor" : [ 0.501960784313725, 0.501960784313725, 0.501960784313725, 0.0 ],
					"focusbordercolor" : [ 0.501960784313725, 0.501960784313725, 0.501960784313725, 0.0 ],
					"fontface" : 1,
					"fontsize" : 9.0,
					"id" : "obj-23",
					"inactivelcdcolor" : [ 0.501960784313725, 0.501960784313725, 0.501960784313725, 1.0 ],
					"lcdbgcolor" : [ 1.0, 1.0, 1.0, 1.0 ],
					"lcdcolor" : [ 0.501960784313725, 0.501960784313725, 0.501960784313725, 1.0 ],
					"maxclass" : "live.text",
					"numinlets" : 1,
					"numoutlets" : 2,
					"outlettype" : [ "", "" ],
					"parameter_enable" : 1,
					"patching_rect" : [ 129.0, 40.484641313552856, 37.77777773141861, 22.0 ],
					"presentation" : 1,
					"presentation_rect" : [ 38.5, 57.968427419662476, 16.0, 16.0 ],
					"saved_attribute_attributes" : 					{
						"activebgcolor" : 						{
							"expression" : ""
						}
,
						"activetextcolor" : 						{
							"expression" : ""
						}
,
						"activetextoncolor" : 						{
							"expression" : ""
						}
,
						"bgcolor" : 						{
							"expression" : ""
						}
,
						"bordercolor" : 						{
							"expression" : ""
						}
,
						"focusbordercolor" : 						{
							"expression" : ""
						}
,
						"inactivelcdcolor" : 						{
							"expression" : ""
						}
,
						"lcdbgcolor" : 						{
							"expression" : ""
						}
,
						"lcdcolor" : 						{
							"expression" : ""
						}
,
						"valueof" : 						{
							"parameter_enum" : [ "val1", "val2" ],
							"parameter_longname" : "live.text[3]",
							"parameter_mmax" : 1.0,
							"parameter_shortname" : "live.text",
							"parameter_type" : 1
						}

					}
,
					"text" : "P",
					"texton" : "P",
					"varname" : "live.text[3]"
				}

			}
, 			{
				"box" : 				{
					"channels" : 1,
					"id" : "obj-24",
					"lastchannelcount" : 0,
					"maxclass" : "live.gain~",
					"numinlets" : 1,
					"numoutlets" : 4,
					"outlettype" : [ "signal", "", "float", "list" ],
					"parameter_enable" : 1,
					"patching_rect" : [ 160.0, 112.218427419662476, 48.0, 205.0 ],
					"presentation" : 1,
					"presentation_rect" : [ 40.5, 20.718427419662476, 31.0, 176.0 ],
					"saved_attribute_attributes" : 					{
						"valueof" : 						{
							"parameter_initial" : [ "-inf" ],
							"parameter_initial_enable" : 1,
							"parameter_linknames" : 1,
							"parameter_longname" : "FX2",
							"parameter_mmax" : 6.0,
							"parameter_mmin" : -70.0,
							"parameter_shortname" : "FX2",
							"parameter_type" : 0,
							"parameter_unitstyle" : 4
						}

					}
,
					"varname" : "FX2"
				}

			}
, 			{
				"box" : 				{
					"id" : "obj-25",
					"maxclass" : "newobj",
					"numinlets" : 1,
					"numoutlets" : 1,
					"outlettype" : [ "signal" ],
					"patching_rect" : [ 129.0, 4.0, 123.0, 22.0 ],
					"text" : "receive~ fromFXbus2"
				}

			}
, 			{
				"box" : 				{
					"id" : "obj-14",
					"maxclass" : "message",
					"numinlets" : 2,
					"numoutlets" : 1,
					"outlettype" : [ "" ],
					"patching_rect" : [ 43.77777773141861, 68.129691123962402, 57.0, 22.0 ],
					"text" : "active $1"
				}

			}
, 			{
				"box" : 				{
					"id" : "obj-8",
					"maxclass" : "meter~",
					"numinlets" : 1,
					"numoutlets" : 1,
					"outlettype" : [ "float" ],
					"patching_rect" : [ 7.5, 157.218427419662476, 12.0, 160.0 ],
					"presentation" : 1,
					"presentation_rect" : [ 3.5, 73.968427419662476, 12.0, 69.5 ]
				}

			}
, 			{
				"box" : 				{
					"id" : "obj-7",
					"maxclass" : "newobj",
					"numinlets" : 2,
					"numoutlets" : 1,
					"outlettype" : [ "signal" ],
					"patching_rect" : [ 4.0, 112.218427419662476, 39.0, 22.0 ],
					"text" : "gate~"
				}

			}
, 			{
				"box" : 				{
					"id" : "obj-4",
					"maxclass" : "newobj",
					"numinlets" : 2,
					"numoutlets" : 1,
					"outlettype" : [ "signal" ],
					"patching_rect" : [ 43.77777773141861, 324.218427419662476, 39.0, 22.0 ],
					"text" : "gate~"
				}

			}
, 			{
				"box" : 				{
					"activebgcolor" : [ 1.0, 1.0, 1.0, 1.0 ],
					"activetextcolor" : [ 0.501960784313725, 0.501960784313725, 0.501960784313725, 1.0 ],
					"activetextoncolor" : [ 0.501960784313725, 0.501960784313725, 0.501960784313725, 1.0 ],
					"bgcolor" : [ 1.0, 1.0, 1.0, 1.0 ],
					"bordercolor" : [ 0.501960784313725, 0.501960784313725, 0.501960784313725, 0.0 ],
					"focusbordercolor" : [ 0.501960784313725, 0.501960784313725, 0.501960784313725, 0.0 ],
					"fontface" : 1,
					"fontsize" : 12.0,
					"id" : "obj-3",
					"inactivelcdcolor" : [ 0.501960784313725, 0.501960784313725, 0.501960784313725, 1.0 ],
					"lcdbgcolor" : [ 1.0, 1.0, 1.0, 1.0 ],
					"lcdcolor" : [ 0.501960784313725, 0.501960784313725, 0.501960784313725, 1.0 ],
					"maxclass" : "live.text",
					"numinlets" : 1,
					"numoutlets" : 2,
					"outlettype" : [ "", "" ],
					"parameter_enable" : 1,
					"patching_rect" : [ 43.77777773141861, 40.484641313552856, 37.77777773141861, 22.0 ],
					"presentation" : 1,
					"presentation_rect" : [ 4.5, 1.218427419662476, 28.52777773141861, 17.5 ],
					"saved_attribute_attributes" : 					{
						"activebgcolor" : 						{
							"expression" : ""
						}
,
						"activetextcolor" : 						{
							"expression" : ""
						}
,
						"activetextoncolor" : 						{
							"expression" : ""
						}
,
						"bgcolor" : 						{
							"expression" : ""
						}
,
						"bordercolor" : 						{
							"expression" : ""
						}
,
						"focusbordercolor" : 						{
							"expression" : ""
						}
,
						"inactivelcdcolor" : 						{
							"expression" : ""
						}
,
						"lcdbgcolor" : 						{
							"expression" : ""
						}
,
						"lcdcolor" : 						{
							"expression" : ""
						}
,
						"valueof" : 						{
							"parameter_enum" : [ "val1", "val2" ],
							"parameter_longname" : "live.text[1]",
							"parameter_mmax" : 1.0,
							"parameter_shortname" : "live.text",
							"parameter_type" : 1
						}

					}
,
					"text" : "ON",
					"texton" : "ON",
					"varname" : "live.text[1]"
				}

			}
, 			{
				"box" : 				{
					"activebgcolor" : [ 1.0, 1.0, 1.0, 1.0 ],
					"activetextcolor" : [ 0.501960784313725, 0.501960784313725, 0.501960784313725, 1.0 ],
					"activetextoncolor" : [ 0.501960784313725, 0.501960784313725, 0.501960784313725, 1.0 ],
					"bgcolor" : [ 1.0, 1.0, 1.0, 1.0 ],
					"bordercolor" : [ 0.501960784313725, 0.501960784313725, 0.501960784313725, 0.0 ],
					"focusbordercolor" : [ 0.501960784313725, 0.501960784313725, 0.501960784313725, 0.0 ],
					"fontface" : 1,
					"fontsize" : 9.0,
					"id" : "obj-68",
					"inactivelcdcolor" : [ 0.501960784313725, 0.501960784313725, 0.501960784313725, 1.0 ],
					"lcdbgcolor" : [ 1.0, 1.0, 1.0, 1.0 ],
					"lcdcolor" : [ 0.501960784313725, 0.501960784313725, 0.501960784313725, 1.0 ],
					"maxclass" : "live.text",
					"numinlets" : 1,
					"numoutlets" : 2,
					"outlettype" : [ "", "" ],
					"parameter_enable" : 1,
					"patching_rect" : [ 4.0, 40.484641313552856, 37.77777773141861, 22.0 ],
					"presentation" : 1,
					"presentation_rect" : [ 1.5, 57.968427419662476, 16.0, 16.0 ],
					"saved_attribute_attributes" : 					{
						"activebgcolor" : 						{
							"expression" : ""
						}
,
						"activetextcolor" : 						{
							"expression" : ""
						}
,
						"activetextoncolor" : 						{
							"expression" : ""
						}
,
						"bgcolor" : 						{
							"expression" : ""
						}
,
						"bordercolor" : 						{
							"expression" : ""
						}
,
						"focusbordercolor" : 						{
							"expression" : ""
						}
,
						"inactivelcdcolor" : 						{
							"expression" : ""
						}
,
						"lcdbgcolor" : 						{
							"expression" : ""
						}
,
						"lcdcolor" : 						{
							"expression" : ""
						}
,
						"valueof" : 						{
							"parameter_enum" : [ "val1", "val2" ],
							"parameter_longname" : "live.text[296]",
							"parameter_mmax" : 1.0,
							"parameter_shortname" : "live.text",
							"parameter_type" : 1
						}

					}
,
					"text" : "P",
					"texton" : "P",
					"varname" : "live.text"
				}

			}
, 			{
				"box" : 				{
					"channels" : 1,
					"id" : "obj-2",
					"lastchannelcount" : 0,
					"maxclass" : "live.gain~",
					"numinlets" : 1,
					"numoutlets" : 4,
					"outlettype" : [ "signal", "", "float", "list" ],
					"parameter_enable" : 1,
					"patching_rect" : [ 35.0, 112.218427419662476, 48.0, 205.0 ],
					"presentation" : 1,
					"presentation_rect" : [ 3.5, 20.718427419662476, 31.0, 176.0 ],
					"saved_attribute_attributes" : 					{
						"valueof" : 						{
							"parameter_initial" : [ "-inf" ],
							"parameter_initial_enable" : 1,
							"parameter_linknames" : 1,
							"parameter_longname" : "FX1",
							"parameter_mmax" : 6.0,
							"parameter_mmin" : -70.0,
							"parameter_shortname" : "FX1",
							"parameter_type" : 0,
							"parameter_unitstyle" : 4
						}

					}
,
					"varname" : "FX1"
				}

			}
, 			{
				"box" : 				{
					"id" : "obj-1",
					"maxclass" : "newobj",
					"numinlets" : 1,
					"numoutlets" : 1,
					"outlettype" : [ "signal" ],
					"patching_rect" : [ 4.0, 4.0, 123.0, 22.0 ],
					"text" : "receive~ fromFXbus1"
				}

			}
 ],
		"lines" : [ 			{
				"patchline" : 				{
					"destination" : [ "obj-2", 0 ],
					"order" : 0,
					"source" : [ "obj-1", 0 ]
				}

			}
, 			{
				"patchline" : 				{
					"destination" : [ "obj-7", 1 ],
					"order" : 1,
					"source" : [ "obj-1", 0 ]
				}

			}
, 			{
				"patchline" : 				{
					"destination" : [ "obj-97", 0 ],
					"order" : 1,
					"source" : [ "obj-100", 1 ]
				}

			}
, 			{
				"patchline" : 				{
					"destination" : [ "obj-98", 1 ],
					"order" : 0,
					"source" : [ "obj-100", 1 ]
				}

			}
, 			{
				"patchline" : 				{
					"destination" : [ "obj-104", 1 ],
					"source" : [ "obj-101", 0 ]
				}

			}
, 			{
				"patchline" : 				{
					"destination" : [ "obj-101", 0 ],
					"source" : [ "obj-102", 0 ]
				}

			}
, 			{
				"patchline" : 				{
					"destination" : [ "obj-12", 1 ],
					"source" : [ "obj-103", 0 ]
				}

			}
, 			{
				"patchline" : 				{
					"destination" : [ "obj-12", 0 ],
					"source" : [ "obj-104", 0 ]
				}

			}
, 			{
				"patchline" : 				{
					"destination" : [ "obj-102", 0 ],
					"order" : 1,
					"source" : [ "obj-105", 1 ]
				}

			}
, 			{
				"patchline" : 				{
					"destination" : [ "obj-103", 1 ],
					"order" : 0,
					"source" : [ "obj-105", 1 ]
				}

			}
, 			{
				"patchline" : 				{
					"destination" : [ "obj-109", 1 ],
					"source" : [ "obj-106", 0 ]
				}

			}
, 			{
				"patchline" : 				{
					"destination" : [ "obj-106", 0 ],
					"source" : [ "obj-107", 0 ]
				}

			}
, 			{
				"patchline" : 				{
					"destination" : [ "obj-12", 1 ],
					"source" : [ "obj-108", 0 ]
				}

			}
, 			{
				"patchline" : 				{
					"destination" : [ "obj-12", 0 ],
					"source" : [ "obj-109", 0 ]
				}

			}
, 			{
				"patchline" : 				{
					"destination" : [ "obj-117", 1 ],
					"order" : 0,
					"source" : [ "obj-11", 0 ]
				}

			}
, 			{
				"patchline" : 				{
					"destination" : [ "obj-117", 0 ],
					"order" : 1,
					"source" : [ "obj-11", 0 ]
				}

			}
, 			{
				"patchline" : 				{
					"destination" : [ "obj-107", 0 ],
					"order" : 1,
					"source" : [ "obj-110", 1 ]
				}

			}
, 			{
				"patchline" : 				{
					"destination" : [ "obj-108", 1 ],
					"order" : 0,
					"source" : [ "obj-110", 1 ]
				}

			}
, 			{
				"patchline" : 				{
					"destination" : [ "obj-114", 1 ],
					"source" : [ "obj-111", 0 ]
				}

			}
, 			{
				"patchline" : 				{
					"destination" : [ "obj-111", 0 ],
					"source" : [ "obj-112", 0 ]
				}

			}
, 			{
				"patchline" : 				{
					"destination" : [ "obj-12", 1 ],
					"source" : [ "obj-113", 0 ]
				}

			}
, 			{
				"patchline" : 				{
					"destination" : [ "obj-12", 0 ],
					"source" : [ "obj-114", 0 ]
				}

			}
, 			{
				"patchline" : 				{
					"destination" : [ "obj-112", 0 ],
					"order" : 1,
					"source" : [ "obj-115", 1 ]
				}

			}
, 			{
				"patchline" : 				{
					"destination" : [ "obj-113", 1 ],
					"order" : 0,
					"source" : [ "obj-115", 1 ]
				}

			}
, 			{
				"patchline" : 				{
					"destination" : [ "obj-116", 1 ],
					"source" : [ "obj-12", 1 ]
				}

			}
, 			{
				"patchline" : 				{
					"destination" : [ "obj-116", 0 ],
					"source" : [ "obj-12", 0 ]
				}

			}
, 			{
				"patchline" : 				{
					"destination" : [ "obj-2", 0 ],
					"source" : [ "obj-14", 0 ]
				}

			}
, 			{
				"patchline" : 				{
					"destination" : [ "obj-17", 1 ],
					"order" : 0,
					"source" : [ "obj-15", 1 ]
				}

			}
, 			{
				"patchline" : 				{
					"destination" : [ "obj-75", 0 ],
					"order" : 1,
					"source" : [ "obj-15", 1 ]
				}

			}
, 			{
				"patchline" : 				{
					"destination" : [ "obj-12", 0 ],
					"source" : [ "obj-16", 0 ]
				}

			}
, 			{
				"patchline" : 				{
					"destination" : [ "obj-12", 1 ],
					"source" : [ "obj-17", 0 ]
				}

			}
, 			{
				"patchline" : 				{
					"destination" : [ "obj-24", 0 ],
					"source" : [ "obj-18", 0 ]
				}

			}
, 			{
				"patchline" : 				{
					"destination" : [ "obj-4", 1 ],
					"source" : [ "obj-2", 0 ]
				}

			}
, 			{
				"patchline" : 				{
					"destination" : [ "obj-11", 0 ],
					"order" : 0,
					"source" : [ "obj-20", 0 ]
				}

			}
, 			{
				"patchline" : 				{
					"destination" : [ "obj-19", 0 ],
					"order" : 1,
					"source" : [ "obj-20", 0 ]
				}

			}
, 			{
				"patchline" : 				{
					"destination" : [ "obj-83", 0 ],
					"order" : 0,
					"source" : [ "obj-21", 0 ]
				}

			}
, 			{
				"patchline" : 				{
					"destination" : [ "obj-84", 0 ],
					"order" : 1,
					"source" : [ "obj-21", 0 ]
				}

			}
, 			{
				"patchline" : 				{
					"destination" : [ "obj-18", 0 ],
					"order" : 1,
					"source" : [ "obj-22", 0 ]
				}

			}
, 			{
				"patchline" : 				{
					"destination" : [ "obj-21", 0 ],
					"order" : 0,
					"source" : [ "obj-22", 0 ]
				}

			}
, 			{
				"patchline" : 				{
					"destination" : [ "obj-20", 0 ],
					"source" : [ "obj-23", 0 ]
				}

			}
, 			{
				"patchline" : 				{
					"destination" : [ "obj-21", 1 ],
					"source" : [ "obj-24", 0 ]
				}

			}
, 			{
				"patchline" : 				{
					"destination" : [ "obj-20", 1 ],
					"order" : 1,
					"source" : [ "obj-25", 0 ]
				}

			}
, 			{
				"patchline" : 				{
					"destination" : [ "obj-24", 0 ],
					"order" : 0,
					"source" : [ "obj-25", 0 ]
				}

			}
, 			{
				"patchline" : 				{
					"destination" : [ "obj-32", 0 ],
					"source" : [ "obj-26", 0 ]
				}

			}
, 			{
				"patchline" : 				{
					"destination" : [ "obj-11", 0 ],
					"order" : 0,
					"source" : [ "obj-28", 0 ]
				}

			}
, 			{
				"patchline" : 				{
					"destination" : [ "obj-27", 0 ],
					"order" : 1,
					"source" : [ "obj-28", 0 ]
				}

			}
, 			{
				"patchline" : 				{
					"destination" : [ "obj-88", 0 ],
					"order" : 0,
					"source" : [ "obj-29", 0 ]
				}

			}
, 			{
				"patchline" : 				{
					"destination" : [ "obj-89", 0 ],
					"order" : 1,
					"source" : [ "obj-29", 0 ]
				}

			}
, 			{
				"patchline" : 				{
					"destination" : [ "obj-14", 0 ],
					"order" : 1,
					"source" : [ "obj-3", 0 ]
				}

			}
, 			{
				"patchline" : 				{
					"destination" : [ "obj-4", 0 ],
					"order" : 0,
					"source" : [ "obj-3", 0 ]
				}

			}
, 			{
				"patchline" : 				{
					"destination" : [ "obj-26", 0 ],
					"order" : 1,
					"source" : [ "obj-30", 0 ]
				}

			}
, 			{
				"patchline" : 				{
					"destination" : [ "obj-29", 0 ],
					"order" : 0,
					"source" : [ "obj-30", 0 ]
				}

			}
, 			{
				"patchline" : 				{
					"destination" : [ "obj-28", 0 ],
					"source" : [ "obj-31", 0 ]
				}

			}
, 			{
				"patchline" : 				{
					"destination" : [ "obj-29", 1 ],
					"source" : [ "obj-32", 0 ]
				}

			}
, 			{
				"patchline" : 				{
					"destination" : [ "obj-28", 1 ],
					"order" : 1,
					"source" : [ "obj-33", 0 ]
				}

			}
, 			{
				"patchline" : 				{
					"destination" : [ "obj-32", 0 ],
					"order" : 0,
					"source" : [ "obj-33", 0 ]
				}

			}
, 			{
				"patchline" : 				{
					"destination" : [ "obj-40", 0 ],
					"source" : [ "obj-34", 0 ]
				}

			}
, 			{
				"patchline" : 				{
					"destination" : [ "obj-11", 0 ],
					"order" : 0,
					"source" : [ "obj-36", 0 ]
				}

			}
, 			{
				"patchline" : 				{
					"destination" : [ "obj-35", 0 ],
					"order" : 1,
					"source" : [ "obj-36", 0 ]
				}

			}
, 			{
				"patchline" : 				{
					"destination" : [ "obj-93", 0 ],
					"order" : 0,
					"source" : [ "obj-37", 0 ]
				}

			}
, 			{
				"patchline" : 				{
					"destination" : [ "obj-94", 0 ],
					"order" : 1,
					"source" : [ "obj-37", 0 ]
				}

			}
, 			{
				"patchline" : 				{
					"destination" : [ "obj-34", 0 ],
					"order" : 1,
					"source" : [ "obj-38", 0 ]
				}

			}
, 			{
				"patchline" : 				{
					"destination" : [ "obj-37", 0 ],
					"order" : 0,
					"source" : [ "obj-38", 0 ]
				}

			}
, 			{
				"patchline" : 				{
					"destination" : [ "obj-36", 0 ],
					"source" : [ "obj-39", 0 ]
				}

			}
, 			{
				"patchline" : 				{
					"destination" : [ "obj-16", 0 ],
					"order" : 1,
					"source" : [ "obj-4", 0 ]
				}

			}
, 			{
				"patchline" : 				{
					"destination" : [ "obj-17", 0 ],
					"order" : 0,
					"source" : [ "obj-4", 0 ]
				}

			}
, 			{
				"patchline" : 				{
					"destination" : [ "obj-37", 1 ],
					"source" : [ "obj-40", 0 ]
				}

			}
, 			{
				"patchline" : 				{
					"destination" : [ "obj-36", 1 ],
					"order" : 1,
					"source" : [ "obj-41", 0 ]
				}

			}
, 			{
				"patchline" : 				{
					"destination" : [ "obj-40", 0 ],
					"order" : 0,
					"source" : [ "obj-41", 0 ]
				}

			}
, 			{
				"patchline" : 				{
					"destination" : [ "obj-48", 0 ],
					"source" : [ "obj-42", 0 ]
				}

			}
, 			{
				"patchline" : 				{
					"destination" : [ "obj-11", 0 ],
					"order" : 0,
					"source" : [ "obj-44", 0 ]
				}

			}
, 			{
				"patchline" : 				{
					"destination" : [ "obj-43", 0 ],
					"order" : 1,
					"source" : [ "obj-44", 0 ]
				}

			}
, 			{
				"patchline" : 				{
					"destination" : [ "obj-98", 0 ],
					"order" : 0,
					"source" : [ "obj-45", 0 ]
				}

			}
, 			{
				"patchline" : 				{
					"destination" : [ "obj-99", 0 ],
					"order" : 1,
					"source" : [ "obj-45", 0 ]
				}

			}
, 			{
				"patchline" : 				{
					"destination" : [ "obj-42", 0 ],
					"order" : 1,
					"source" : [ "obj-46", 0 ]
				}

			}
, 			{
				"patchline" : 				{
					"destination" : [ "obj-45", 0 ],
					"order" : 0,
					"source" : [ "obj-46", 0 ]
				}

			}
, 			{
				"patchline" : 				{
					"destination" : [ "obj-44", 0 ],
					"source" : [ "obj-47", 0 ]
				}

			}
, 			{
				"patchline" : 				{
					"destination" : [ "obj-45", 1 ],
					"source" : [ "obj-48", 0 ]
				}

			}
, 			{
				"patchline" : 				{
					"destination" : [ "obj-44", 1 ],
					"order" : 1,
					"source" : [ "obj-49", 0 ]
				}

			}
, 			{
				"patchline" : 				{
					"destination" : [ "obj-48", 0 ],
					"order" : 0,
					"source" : [ "obj-49", 0 ]
				}

			}
, 			{
				"patchline" : 				{
					"destination" : [ "obj-11", 1 ],
					"source" : [ "obj-5", 1 ]
				}

			}
, 			{
				"patchline" : 				{
					"destination" : [ "obj-56", 0 ],
					"source" : [ "obj-50", 0 ]
				}

			}
, 			{
				"patchline" : 				{
					"destination" : [ "obj-11", 0 ],
					"order" : 0,
					"source" : [ "obj-52", 0 ]
				}

			}
, 			{
				"patchline" : 				{
					"destination" : [ "obj-51", 0 ],
					"order" : 1,
					"source" : [ "obj-52", 0 ]
				}

			}
, 			{
				"patchline" : 				{
					"destination" : [ "obj-103", 0 ],
					"order" : 0,
					"source" : [ "obj-53", 0 ]
				}

			}
, 			{
				"patchline" : 				{
					"destination" : [ "obj-104", 0 ],
					"order" : 1,
					"source" : [ "obj-53", 0 ]
				}

			}
, 			{
				"patchline" : 				{
					"destination" : [ "obj-50", 0 ],
					"order" : 1,
					"source" : [ "obj-54", 0 ]
				}

			}
, 			{
				"patchline" : 				{
					"destination" : [ "obj-53", 0 ],
					"order" : 0,
					"source" : [ "obj-54", 0 ]
				}

			}
, 			{
				"patchline" : 				{
					"destination" : [ "obj-52", 0 ],
					"source" : [ "obj-55", 0 ]
				}

			}
, 			{
				"patchline" : 				{
					"destination" : [ "obj-53", 1 ],
					"source" : [ "obj-56", 0 ]
				}

			}
, 			{
				"patchline" : 				{
					"destination" : [ "obj-52", 1 ],
					"order" : 1,
					"source" : [ "obj-57", 0 ]
				}

			}
, 			{
				"patchline" : 				{
					"destination" : [ "obj-56", 0 ],
					"order" : 0,
					"source" : [ "obj-57", 0 ]
				}

			}
, 			{
				"patchline" : 				{
					"destination" : [ "obj-64", 0 ],
					"source" : [ "obj-58", 0 ]
				}

			}
, 			{
				"patchline" : 				{
					"destination" : [ "obj-11", 0 ],
					"order" : 0,
					"source" : [ "obj-60", 0 ]
				}

			}
, 			{
				"patchline" : 				{
					"destination" : [ "obj-59", 0 ],
					"order" : 1,
					"source" : [ "obj-60", 0 ]
				}

			}
, 			{
				"patchline" : 				{
					"destination" : [ "obj-108", 0 ],
					"order" : 0,
					"source" : [ "obj-61", 0 ]
				}

			}
, 			{
				"patchline" : 				{
					"destination" : [ "obj-109", 0 ],
					"order" : 1,
					"source" : [ "obj-61", 0 ]
				}

			}
, 			{
				"patchline" : 				{
					"destination" : [ "obj-58", 0 ],
					"order" : 1,
					"source" : [ "obj-62", 0 ]
				}

			}
, 			{
				"patchline" : 				{
					"destination" : [ "obj-61", 0 ],
					"order" : 0,
					"source" : [ "obj-62", 0 ]
				}

			}
, 			{
				"patchline" : 				{
					"destination" : [ "obj-60", 0 ],
					"source" : [ "obj-63", 0 ]
				}

			}
, 			{
				"patchline" : 				{
					"destination" : [ "obj-61", 1 ],
					"source" : [ "obj-64", 0 ]
				}

			}
, 			{
				"patchline" : 				{
					"destination" : [ "obj-60", 1 ],
					"order" : 1,
					"source" : [ "obj-65", 0 ]
				}

			}
, 			{
				"patchline" : 				{
					"destination" : [ "obj-64", 0 ],
					"order" : 0,
					"source" : [ "obj-65", 0 ]
				}

			}
, 			{
				"patchline" : 				{
					"destination" : [ "obj-73", 0 ],
					"source" : [ "obj-66", 0 ]
				}

			}
, 			{
				"patchline" : 				{
					"destination" : [ "obj-7", 0 ],
					"source" : [ "obj-68", 0 ]
				}

			}
, 			{
				"patchline" : 				{
					"destination" : [ "obj-11", 0 ],
					"order" : 0,
					"source" : [ "obj-69", 0 ]
				}

			}
, 			{
				"patchline" : 				{
					"destination" : [ "obj-67", 0 ],
					"order" : 1,
					"source" : [ "obj-69", 0 ]
				}

			}
, 			{
				"patchline" : 				{
					"destination" : [ "obj-11", 0 ],
					"order" : 0,
					"source" : [ "obj-7", 0 ]
				}

			}
, 			{
				"patchline" : 				{
					"destination" : [ "obj-8", 0 ],
					"order" : 1,
					"source" : [ "obj-7", 0 ]
				}

			}
, 			{
				"patchline" : 				{
					"destination" : [ "obj-113", 0 ],
					"order" : 0,
					"source" : [ "obj-70", 0 ]
				}

			}
, 			{
				"patchline" : 				{
					"destination" : [ "obj-114", 0 ],
					"order" : 1,
					"source" : [ "obj-70", 0 ]
				}

			}
, 			{
				"patchline" : 				{
					"destination" : [ "obj-66", 0 ],
					"order" : 1,
					"source" : [ "obj-71", 0 ]
				}

			}
, 			{
				"patchline" : 				{
					"destination" : [ "obj-70", 0 ],
					"order" : 0,
					"source" : [ "obj-71", 0 ]
				}

			}
, 			{
				"patchline" : 				{
					"destination" : [ "obj-69", 0 ],
					"source" : [ "obj-72", 0 ]
				}

			}
, 			{
				"patchline" : 				{
					"destination" : [ "obj-70", 1 ],
					"source" : [ "obj-73", 0 ]
				}

			}
, 			{
				"patchline" : 				{
					"destination" : [ "obj-69", 1 ],
					"order" : 1,
					"source" : [ "obj-74", 0 ]
				}

			}
, 			{
				"patchline" : 				{
					"destination" : [ "obj-73", 0 ],
					"order" : 0,
					"source" : [ "obj-74", 0 ]
				}

			}
, 			{
				"patchline" : 				{
					"destination" : [ "obj-76", 0 ],
					"source" : [ "obj-75", 0 ]
				}

			}
, 			{
				"patchline" : 				{
					"destination" : [ "obj-16", 1 ],
					"source" : [ "obj-76", 0 ]
				}

			}
, 			{
				"patchline" : 				{
					"destination" : [ "obj-84", 1 ],
					"source" : [ "obj-80", 0 ]
				}

			}
, 			{
				"patchline" : 				{
					"destination" : [ "obj-80", 0 ],
					"source" : [ "obj-81", 0 ]
				}

			}
, 			{
				"patchline" : 				{
					"destination" : [ "obj-12", 1 ],
					"source" : [ "obj-83", 0 ]
				}

			}
, 			{
				"patchline" : 				{
					"destination" : [ "obj-12", 0 ],
					"source" : [ "obj-84", 0 ]
				}

			}
, 			{
				"patchline" : 				{
					"destination" : [ "obj-81", 0 ],
					"order" : 1,
					"source" : [ "obj-85", 1 ]
				}

			}
, 			{
				"patchline" : 				{
					"destination" : [ "obj-83", 1 ],
					"order" : 0,
					"source" : [ "obj-85", 1 ]
				}

			}
, 			{
				"patchline" : 				{
					"destination" : [ "obj-89", 1 ],
					"source" : [ "obj-86", 0 ]
				}

			}
, 			{
				"patchline" : 				{
					"destination" : [ "obj-86", 0 ],
					"source" : [ "obj-87", 0 ]
				}

			}
, 			{
				"patchline" : 				{
					"destination" : [ "obj-12", 1 ],
					"source" : [ "obj-88", 0 ]
				}

			}
, 			{
				"patchline" : 				{
					"destination" : [ "obj-12", 0 ],
					"source" : [ "obj-89", 0 ]
				}

			}
, 			{
				"patchline" : 				{
					"destination" : [ "obj-87", 0 ],
					"order" : 1,
					"source" : [ "obj-90", 1 ]
				}

			}
, 			{
				"patchline" : 				{
					"destination" : [ "obj-88", 1 ],
					"order" : 0,
					"source" : [ "obj-90", 1 ]
				}

			}
, 			{
				"patchline" : 				{
					"destination" : [ "obj-94", 1 ],
					"source" : [ "obj-91", 0 ]
				}

			}
, 			{
				"patchline" : 				{
					"destination" : [ "obj-91", 0 ],
					"source" : [ "obj-92", 0 ]
				}

			}
, 			{
				"patchline" : 				{
					"destination" : [ "obj-12", 1 ],
					"source" : [ "obj-93", 0 ]
				}

			}
, 			{
				"patchline" : 				{
					"destination" : [ "obj-12", 0 ],
					"source" : [ "obj-94", 0 ]
				}

			}
, 			{
				"patchline" : 				{
					"destination" : [ "obj-92", 0 ],
					"order" : 1,
					"source" : [ "obj-95", 1 ]
				}

			}
, 			{
				"patchline" : 				{
					"destination" : [ "obj-93", 1 ],
					"order" : 0,
					"source" : [ "obj-95", 1 ]
				}

			}
, 			{
				"patchline" : 				{
					"destination" : [ "obj-99", 1 ],
					"source" : [ "obj-96", 0 ]
				}

			}
, 			{
				"patchline" : 				{
					"destination" : [ "obj-96", 0 ],
					"source" : [ "obj-97", 0 ]
				}

			}
, 			{
				"patchline" : 				{
					"destination" : [ "obj-12", 1 ],
					"source" : [ "obj-98", 0 ]
				}

			}
, 			{
				"patchline" : 				{
					"destination" : [ "obj-12", 0 ],
					"source" : [ "obj-99", 0 ]
				}

			}
 ],
		"parameters" : 		{
			"obj-100" : [ "pan1[4]", "pan", 0 ],
			"obj-105" : [ "pan1[5]", "pan", 0 ],
			"obj-110" : [ "pan1[6]", "pan", 0 ],
			"obj-115" : [ "pan1[7]", "pan", 0 ],
			"obj-12" : [ "master", "master", 0 ],
			"obj-15" : [ "pan1", "pan", 0 ],
			"obj-2" : [ "FX1", "FX1", 0 ],
			"obj-22" : [ "live.text[2]", "live.text", 0 ],
			"obj-23" : [ "live.text[3]", "live.text", 0 ],
			"obj-24" : [ "FX2", "FX2", 0 ],
			"obj-3" : [ "live.text[1]", "live.text", 0 ],
			"obj-30" : [ "live.text[4]", "live.text", 0 ],
			"obj-31" : [ "live.text[5]", "live.text", 0 ],
			"obj-32" : [ "FX3", "FX3", 0 ],
			"obj-38" : [ "live.text[6]", "live.text", 0 ],
			"obj-39" : [ "live.text[7]", "live.text", 0 ],
			"obj-40" : [ "FX4", "FX4", 0 ],
			"obj-46" : [ "live.text[8]", "live.text", 0 ],
			"obj-47" : [ "live.text[9]", "live.text", 0 ],
			"obj-48" : [ "FX5", "FX5", 0 ],
			"obj-5" : [ "phones", "phones", 0 ],
			"obj-54" : [ "live.text[10]", "live.text", 0 ],
			"obj-55" : [ "live.text[11]", "live.text", 0 ],
			"obj-56" : [ "FX6", "FX6", 0 ],
			"obj-62" : [ "live.text[12]", "live.text", 0 ],
			"obj-63" : [ "live.text[13]", "live.text", 0 ],
			"obj-64" : [ "FX7", "FX7", 0 ],
			"obj-68" : [ "live.text[296]", "live.text", 0 ],
			"obj-71" : [ "live.text[14]", "live.text", 0 ],
			"obj-72" : [ "live.text[15]", "live.text", 0 ],
			"obj-73" : [ "FX8", "FX8", 0 ],
			"obj-85" : [ "pan1[1]", "pan", 0 ],
			"obj-90" : [ "pan1[2]", "pan", 0 ],
			"obj-95" : [ "pan1[3]", "pan", 0 ],
			"parameterbanks" : 			{
				"0" : 				{
					"index" : 0,
					"name" : "",
					"parameters" : [ "-", "-", "-", "-", "-", "-", "-", "-" ]
				}

			}
,
			"inherited_shortname" : 1
		}
,
		"dependency_cache" : [  ],
		"autosave" : 0
	}

}
