{
	"patcher" : 	{
		"fileversion" : 1,
		"appversion" : 		{
			"major" : 8,
			"minor" : 2,
			"revision" : 2,
			"architecture" : "x64",
			"modernui" : 1
		}
,
		"classnamespace" : "box",
		"rect" : [ 2059.0, 116.0, 834.0, 212.0 ],
		"bglocked" : 0,
		"openinpresentation" : 1,
		"default_fontsize" : 12.0,
		"default_fontface" : 0,
		"default_fontname" : "Arial",
		"gridonopen" : 1,
		"gridsize" : [ 15.0, 15.0 ],
		"gridsnaponopen" : 1,
		"objectsnaponopen" : 1,
		"statusbarvisible" : 2,
		"toolbarvisible" : 1,
		"lefttoolbarpinned" : 0,
		"toptoolbarpinned" : 0,
		"righttoolbarpinned" : 0,
		"bottomtoolbarpinned" : 0,
		"toolbars_unpinned_last_save" : 0,
		"tallnewobj" : 0,
		"boxanimatetime" : 200,
		"enablehscroll" : 1,
		"enablevscroll" : 1,
		"devicewidth" : 0.0,
		"description" : "",
		"digest" : "",
		"tags" : "",
		"style" : "",
		"subpatcher_template" : "",
		"assistshowspatchername" : 0,
		"boxes" : [ 			{
				"box" : 				{
					"id" : "obj-78",
					"maxclass" : "comment",
					"numinlets" : 1,
					"numoutlets" : 0,
					"patching_rect" : [ 27.0, 74.0, 48.0, 20.0 ],
					"presentation" : 1,
					"presentation_rect" : [ 33.294090330600739, 23.248364567756653, 48.0, 20.0 ],
					"text" : "send to"
				}

			}
, 			{
				"box" : 				{
					"id" : "obj-76",
					"maxclass" : "comment",
					"numinlets" : 1,
					"numoutlets" : 0,
					"patching_rect" : [ 842.509878933429718, 74.0, 47.0, 20.0 ],
					"presentation" : 1,
					"presentation_rect" : [ 453.509787321090698, 23.248364567756653, 47.0, 20.0 ],
					"text" : "dac   fx"
				}

			}
, 			{
				"box" : 				{
					"id" : "obj-77",
					"maxclass" : "comment",
					"numinlets" : 1,
					"numoutlets" : 0,
					"patching_rect" : [ 856.509878933429718, 47.0, 19.0, 20.0 ],
					"presentation" : 1,
					"presentation_rect" : [ 467.509787321090698, 1.248364567756653, 19.0, 20.0 ],
					"text" : "8",
					"textjustification" : 1
				}

			}
, 			{
				"box" : 				{
					"id" : "obj-74",
					"maxclass" : "comment",
					"numinlets" : 1,
					"numoutlets" : 0,
					"patching_rect" : [ 733.093140125274658, 74.0, 47.0, 20.0 ],
					"presentation" : 1,
					"presentation_rect" : [ 400.509787321090698, 23.248364567756653, 47.0, 20.0 ],
					"text" : "dac   fx"
				}

			}
, 			{
				"box" : 				{
					"id" : "obj-75",
					"maxclass" : "comment",
					"numinlets" : 1,
					"numoutlets" : 0,
					"patching_rect" : [ 747.093140125274658, 47.0, 19.0, 20.0 ],
					"presentation" : 1,
					"presentation_rect" : [ 414.509787321090698, 1.248364567756653, 19.0, 20.0 ],
					"text" : "7",
					"textjustification" : 1
				}

			}
, 			{
				"box" : 				{
					"id" : "obj-72",
					"maxclass" : "comment",
					"numinlets" : 1,
					"numoutlets" : 0,
					"patching_rect" : [ 624.078484952449799, 74.0, 47.0, 20.0 ],
					"presentation" : 1,
					"presentation_rect" : [ 347.509787321090698, 23.248364567756653, 47.0, 20.0 ],
					"text" : "dac   fx"
				}

			}
, 			{
				"box" : 				{
					"id" : "obj-73",
					"maxclass" : "comment",
					"numinlets" : 1,
					"numoutlets" : 0,
					"patching_rect" : [ 638.078484952449799, 47.0, 19.0, 20.0 ],
					"presentation" : 1,
					"presentation_rect" : [ 361.509787321090698, 1.248364567756653, 19.0, 20.0 ],
					"text" : "6",
					"textjustification" : 1
				}

			}
, 			{
				"box" : 				{
					"id" : "obj-70",
					"maxclass" : "comment",
					"numinlets" : 1,
					"numoutlets" : 0,
					"patching_rect" : [ 514.0, 74.0, 47.0, 20.0 ],
					"presentation" : 1,
					"presentation_rect" : [ 294.509787321090698, 23.248364567756653, 47.0, 20.0 ],
					"text" : "dac   fx"
				}

			}
, 			{
				"box" : 				{
					"id" : "obj-71",
					"maxclass" : "comment",
					"numinlets" : 1,
					"numoutlets" : 0,
					"patching_rect" : [ 528.0, 47.0, 19.0, 20.0 ],
					"presentation" : 1,
					"presentation_rect" : [ 308.509787321090698, 1.248364567756653, 19.0, 20.0 ],
					"text" : "5",
					"textjustification" : 1
				}

			}
, 			{
				"box" : 				{
					"id" : "obj-68",
					"maxclass" : "comment",
					"numinlets" : 1,
					"numoutlets" : 0,
					"patching_rect" : [ 405.647090971469879, 74.0, 47.0, 20.0 ],
					"presentation" : 1,
					"presentation_rect" : [ 241.509787321090698, 23.248364567756653, 47.0, 20.0 ],
					"text" : "dac   fx"
				}

			}
, 			{
				"box" : 				{
					"id" : "obj-69",
					"maxclass" : "comment",
					"numinlets" : 1,
					"numoutlets" : 0,
					"patching_rect" : [ 419.647090971469879, 47.0, 19.0, 20.0 ],
					"presentation" : 1,
					"presentation_rect" : [ 255.509787321090698, 1.248364567756653, 19.0, 20.0 ],
					"text" : "4",
					"textjustification" : 1
				}

			}
, 			{
				"box" : 				{
					"id" : "obj-66",
					"maxclass" : "comment",
					"numinlets" : 1,
					"numoutlets" : 0,
					"patching_rect" : [ 296.431393980979919, 74.0, 47.0, 20.0 ],
					"presentation" : 1,
					"presentation_rect" : [ 187.294090330600739, 23.248364567756653, 47.0, 20.0 ],
					"text" : "dac   fx"
				}

			}
, 			{
				"box" : 				{
					"id" : "obj-67",
					"maxclass" : "comment",
					"numinlets" : 1,
					"numoutlets" : 0,
					"patching_rect" : [ 310.431393980979919, 47.0, 19.0, 20.0 ],
					"presentation" : 1,
					"presentation_rect" : [ 201.294090330600739, 1.248364567756653, 19.0, 20.0 ],
					"text" : "3",
					"textjustification" : 1
				}

			}
, 			{
				"box" : 				{
					"id" : "obj-64",
					"maxclass" : "comment",
					"numinlets" : 1,
					"numoutlets" : 0,
					"patching_rect" : [ 187.21569699048996, 74.0, 47.0, 20.0 ],
					"presentation" : 1,
					"presentation_rect" : [ 134.294090330600739, 23.248364567756653, 47.0, 20.0 ],
					"text" : "dac   fx"
				}

			}
, 			{
				"box" : 				{
					"id" : "obj-65",
					"maxclass" : "comment",
					"numinlets" : 1,
					"numoutlets" : 0,
					"patching_rect" : [ 201.21569699048996, 47.0, 19.0, 20.0 ],
					"presentation" : 1,
					"presentation_rect" : [ 148.294090330600739, 1.248364567756653, 19.0, 20.0 ],
					"text" : "2",
					"textjustification" : 1
				}

			}
, 			{
				"box" : 				{
					"id" : "obj-61",
					"maxclass" : "comment",
					"numinlets" : 1,
					"numoutlets" : 0,
					"patching_rect" : [ 78.0, 74.0, 47.0, 20.0 ],
					"presentation" : 1,
					"presentation_rect" : [ 81.294090330600739, 23.248364567756653, 47.0, 20.0 ],
					"text" : "dac   fx"
				}

			}
, 			{
				"box" : 				{
					"id" : "obj-59",
					"maxclass" : "comment",
					"numinlets" : 1,
					"numoutlets" : 0,
					"patching_rect" : [ 92.0, 47.0, 19.0, 20.0 ],
					"presentation" : 1,
					"presentation_rect" : [ 95.294090330600739, 1.248364567756653, 19.0, 20.0 ],
					"text" : "1",
					"textjustification" : 1
				}

			}
, 			{
				"box" : 				{
					"id" : "obj-57",
					"maxclass" : "comment",
					"numinlets" : 1,
					"numoutlets" : 0,
					"patching_rect" : [ 27.0, 47.0, 51.0, 20.0 ],
					"presentation" : 1,
					"presentation_rect" : [ 30.294090330600739, 1.248364567756653, 51.0, 20.0 ],
					"text" : "channel"
				}

			}
, 			{
				"box" : 				{
					"id" : "obj-55",
					"maxclass" : "comment",
					"numinlets" : 1,
					"numoutlets" : 0,
					"patching_rect" : [ 950.0, 74.0, 70.0, 20.0 ],
					"presentation" : 1,
					"presentation_rect" : [ 11.294090330600739, 80.575163543224335, 70.0, 20.0 ],
					"text" : "phone level"
				}

			}
, 			{
				"box" : 				{
					"id" : "obj-52",
					"maxclass" : "newobj",
					"numinlets" : 2,
					"numoutlets" : 0,
					"patching_rect" : [ 842.509878933429718, 157.087271928787231, 89.0, 22.0 ],
					"text" : "sendMx @ch 8"
				}

			}
, 			{
				"box" : 				{
					"columns" : 2,
					"id" : "obj-53",
					"maxclass" : "matrixctrl",
					"numinlets" : 1,
					"numoutlets" : 2,
					"outlettype" : [ "list", "list" ],
					"parameter_enable" : 0,
					"patching_rect" : [ 842.509878933429718, 92.228755176067352, 51.0, 26.0 ],
					"presentation" : 1,
					"presentation_rect" : [ 451.509787321090698, 45.248364567756653, 51.0, 26.0 ],
					"rows" : 1
				}

			}
, 			{
				"box" : 				{
					"id" : "obj-50",
					"maxclass" : "newobj",
					"numinlets" : 2,
					"numoutlets" : 0,
					"patching_rect" : [ 733.294181942939758, 157.087271928787231, 89.0, 22.0 ],
					"text" : "sendMx @ch 7"
				}

			}
, 			{
				"box" : 				{
					"columns" : 2,
					"id" : "obj-51",
					"maxclass" : "matrixctrl",
					"numinlets" : 1,
					"numoutlets" : 2,
					"outlettype" : [ "list", "list" ],
					"parameter_enable" : 0,
					"patching_rect" : [ 733.294181942939758, 92.228755176067352, 51.0, 26.0 ],
					"presentation" : 1,
					"presentation_rect" : [ 398.509787321090698, 45.248364567756653, 51.0, 26.0 ],
					"rows" : 1
				}

			}
, 			{
				"box" : 				{
					"id" : "obj-48",
					"maxclass" : "newobj",
					"numinlets" : 2,
					"numoutlets" : 0,
					"patching_rect" : [ 624.078484952449799, 157.087271928787231, 89.0, 22.0 ],
					"text" : "sendMx @ch 6"
				}

			}
, 			{
				"box" : 				{
					"columns" : 2,
					"id" : "obj-49",
					"maxclass" : "matrixctrl",
					"numinlets" : 1,
					"numoutlets" : 2,
					"outlettype" : [ "list", "list" ],
					"parameter_enable" : 0,
					"patching_rect" : [ 624.078484952449799, 92.228755176067352, 51.0, 26.0 ],
					"presentation" : 1,
					"presentation_rect" : [ 345.509787321090698, 45.248364567756653, 51.0, 26.0 ],
					"rows" : 1
				}

			}
, 			{
				"box" : 				{
					"id" : "obj-46",
					"maxclass" : "newobj",
					"numinlets" : 2,
					"numoutlets" : 0,
					"patching_rect" : [ 514.862787961959839, 157.087271928787231, 89.0, 22.0 ],
					"text" : "sendMx @ch 5"
				}

			}
, 			{
				"box" : 				{
					"columns" : 2,
					"id" : "obj-47",
					"maxclass" : "matrixctrl",
					"numinlets" : 1,
					"numoutlets" : 2,
					"outlettype" : [ "list", "list" ],
					"parameter_enable" : 0,
					"patching_rect" : [ 514.862787961959839, 92.228755176067352, 51.0, 26.0 ],
					"presentation" : 1,
					"presentation_rect" : [ 292.509787321090698, 45.248364567756653, 51.0, 26.0 ],
					"rows" : 1
				}

			}
, 			{
				"box" : 				{
					"id" : "obj-44",
					"maxclass" : "newobj",
					"numinlets" : 2,
					"numoutlets" : 0,
					"patching_rect" : [ 405.647090971469879, 157.087271928787231, 89.0, 22.0 ],
					"text" : "sendMx @ch 4"
				}

			}
, 			{
				"box" : 				{
					"columns" : 2,
					"id" : "obj-45",
					"maxclass" : "matrixctrl",
					"numinlets" : 1,
					"numoutlets" : 2,
					"outlettype" : [ "list", "list" ],
					"parameter_enable" : 0,
					"patching_rect" : [ 405.647090971469879, 92.228755176067352, 51.0, 26.0 ],
					"presentation" : 1,
					"presentation_rect" : [ 239.509787321090698, 45.248364567756653, 51.0, 26.0 ],
					"rows" : 1
				}

			}
, 			{
				"box" : 				{
					"id" : "obj-42",
					"maxclass" : "newobj",
					"numinlets" : 2,
					"numoutlets" : 0,
					"patching_rect" : [ 296.431393980979919, 157.087271928787231, 89.0, 22.0 ],
					"text" : "sendMx @ch 3"
				}

			}
, 			{
				"box" : 				{
					"columns" : 2,
					"id" : "obj-43",
					"maxclass" : "matrixctrl",
					"numinlets" : 1,
					"numoutlets" : 2,
					"outlettype" : [ "list", "list" ],
					"parameter_enable" : 0,
					"patching_rect" : [ 296.431393980979919, 92.228755176067352, 51.0, 26.0 ],
					"presentation" : 1,
					"presentation_rect" : [ 185.294090330600739, 45.248364567756653, 51.0, 26.0 ],
					"rows" : 1
				}

			}
, 			{
				"box" : 				{
					"id" : "obj-40",
					"maxclass" : "newobj",
					"numinlets" : 2,
					"numoutlets" : 0,
					"patching_rect" : [ 187.21569699048996, 157.087271928787231, 89.0, 22.0 ],
					"text" : "sendMx @ch 2"
				}

			}
, 			{
				"box" : 				{
					"columns" : 2,
					"id" : "obj-41",
					"maxclass" : "matrixctrl",
					"numinlets" : 1,
					"numoutlets" : 2,
					"outlettype" : [ "list", "list" ],
					"parameter_enable" : 0,
					"patching_rect" : [ 187.21569699048996, 92.228755176067352, 51.0, 26.0 ],
					"presentation" : 1,
					"presentation_rect" : [ 132.294090330600739, 45.248364567756653, 51.0, 26.0 ],
					"rows" : 1
				}

			}
, 			{
				"box" : 				{
					"id" : "obj-36",
					"maxclass" : "newobj",
					"numinlets" : 2,
					"numoutlets" : 0,
					"patching_rect" : [ 78.0, 157.087271928787231, 89.0, 22.0 ],
					"text" : "sendMx @ch 1"
				}

			}
, 			{
				"box" : 				{
					"columns" : 2,
					"id" : "obj-12",
					"maxclass" : "matrixctrl",
					"numinlets" : 1,
					"numoutlets" : 2,
					"outlettype" : [ "list", "list" ],
					"parameter_enable" : 0,
					"patching_rect" : [ 78.0, 92.228755176067352, 51.0, 26.0 ],
					"presentation" : 1,
					"presentation_rect" : [ 79.294090330600739, 45.248364567756653, 51.0, 26.0 ],
					"rows" : 1
				}

			}
, 			{
				"box" : 				{
					"id" : "obj-7",
					"maxclass" : "newobj",
					"numinlets" : 1,
					"numoutlets" : 1,
					"outlettype" : [ "signal" ],
					"patching_rect" : [ 841.0, 5.0, 107.0, 22.0 ],
					"text" : "receive~ to_aux_8"
				}

			}
, 			{
				"box" : 				{
					"id" : "obj-6",
					"maxclass" : "newobj",
					"numinlets" : 1,
					"numoutlets" : 1,
					"outlettype" : [ "signal" ],
					"patching_rect" : [ 732.0, 5.0, 107.0, 22.0 ],
					"text" : "receive~ to_aux_7"
				}

			}
, 			{
				"box" : 				{
					"id" : "obj-5",
					"maxclass" : "newobj",
					"numinlets" : 1,
					"numoutlets" : 1,
					"outlettype" : [ "signal" ],
					"patching_rect" : [ 623.0, 5.0, 107.0, 22.0 ],
					"text" : "receive~ to_aux_6"
				}

			}
, 			{
				"box" : 				{
					"id" : "obj-4",
					"maxclass" : "newobj",
					"numinlets" : 1,
					"numoutlets" : 1,
					"outlettype" : [ "signal" ],
					"patching_rect" : [ 514.0, 5.0, 107.0, 22.0 ],
					"text" : "receive~ to_aux_5"
				}

			}
, 			{
				"box" : 				{
					"id" : "obj-3",
					"maxclass" : "newobj",
					"numinlets" : 1,
					"numoutlets" : 1,
					"outlettype" : [ "signal" ],
					"patching_rect" : [ 405.0, 5.0, 107.0, 22.0 ],
					"text" : "receive~ to_aux_4"
				}

			}
, 			{
				"box" : 				{
					"id" : "obj-2",
					"maxclass" : "newobj",
					"numinlets" : 1,
					"numoutlets" : 1,
					"outlettype" : [ "signal" ],
					"patching_rect" : [ 296.0, 5.0, 107.0, 22.0 ],
					"text" : "receive~ to_aux_3"
				}

			}
, 			{
				"box" : 				{
					"id" : "obj-1",
					"maxclass" : "newobj",
					"numinlets" : 1,
					"numoutlets" : 1,
					"outlettype" : [ "signal" ],
					"patching_rect" : [ 187.0, 5.0, 107.0, 22.0 ],
					"text" : "receive~ to_aux_2"
				}

			}
, 			{
				"box" : 				{
					"id" : "obj-18",
					"maxclass" : "newobj",
					"numinlets" : 1,
					"numoutlets" : 1,
					"outlettype" : [ "signal" ],
					"patching_rect" : [ 78.0, 5.0, 107.0, 22.0 ],
					"text" : "receive~ to_aux_1"
				}

			}
, 			{
				"box" : 				{
					"channels" : 1,
					"id" : "obj-17",
					"lastchannelcount" : 0,
					"maxclass" : "live.gain~",
					"numinlets" : 1,
					"numoutlets" : 4,
					"orientation" : 1,
					"outlettype" : [ "signal", "", "float", "list" ],
					"parameter_enable" : 1,
					"patching_rect" : [ 950.0, 95.228755176067352, 114.0, 20.0 ],
					"presentation" : 1,
					"presentation_rect" : [ 79.294090330600739, 84.542480170726776, 114.0, 20.0 ],
					"saved_attribute_attributes" : 					{
						"valueof" : 						{
							"parameter_longname" : "live.gain~[16]",
							"parameter_mmax" : 6.0,
							"parameter_mmin" : -70.0,
							"parameter_shortname" : "live.gain~[16]",
							"parameter_type" : 0,
							"parameter_unitstyle" : 4
						}

					}
,
					"showname" : 0,
					"shownumber" : 0,
					"varname" : "live.gain~"
				}

			}
, 			{
				"box" : 				{
					"id" : "obj-16",
					"maxclass" : "newobj",
					"numinlets" : 2,
					"numoutlets" : 0,
					"patching_rect" : [ 950.21569699048996, 157.087271928787231, 62.0, 22.0 ],
					"text" : "dac~ 9 10"
				}

			}
, 			{
				"box" : 				{
					"id" : "obj-15",
					"maxclass" : "newobj",
					"numinlets" : 1,
					"numoutlets" : 1,
					"outlettype" : [ "signal" ],
					"patching_rect" : [ 950.0, 5.0, 114.0, 22.0 ],
					"text" : "receive~ to_phones"
				}

			}
 ],
		"lines" : [ 			{
				"patchline" : 				{
					"destination" : [ "obj-40", 1 ],
					"source" : [ "obj-1", 0 ]
				}

			}
, 			{
				"patchline" : 				{
					"destination" : [ "obj-36", 0 ],
					"source" : [ "obj-12", 0 ]
				}

			}
, 			{
				"patchline" : 				{
					"destination" : [ "obj-17", 0 ],
					"source" : [ "obj-15", 0 ]
				}

			}
, 			{
				"patchline" : 				{
					"destination" : [ "obj-16", 1 ],
					"order" : 0,
					"source" : [ "obj-17", 0 ]
				}

			}
, 			{
				"patchline" : 				{
					"destination" : [ "obj-16", 0 ],
					"order" : 1,
					"source" : [ "obj-17", 0 ]
				}

			}
, 			{
				"patchline" : 				{
					"destination" : [ "obj-36", 1 ],
					"source" : [ "obj-18", 0 ]
				}

			}
, 			{
				"patchline" : 				{
					"destination" : [ "obj-42", 1 ],
					"source" : [ "obj-2", 0 ]
				}

			}
, 			{
				"patchline" : 				{
					"destination" : [ "obj-44", 1 ],
					"source" : [ "obj-3", 0 ]
				}

			}
, 			{
				"patchline" : 				{
					"destination" : [ "obj-46", 1 ],
					"source" : [ "obj-4", 0 ]
				}

			}
, 			{
				"patchline" : 				{
					"destination" : [ "obj-40", 0 ],
					"source" : [ "obj-41", 0 ]
				}

			}
, 			{
				"patchline" : 				{
					"destination" : [ "obj-42", 0 ],
					"source" : [ "obj-43", 0 ]
				}

			}
, 			{
				"patchline" : 				{
					"destination" : [ "obj-44", 0 ],
					"source" : [ "obj-45", 0 ]
				}

			}
, 			{
				"patchline" : 				{
					"destination" : [ "obj-46", 0 ],
					"source" : [ "obj-47", 0 ]
				}

			}
, 			{
				"patchline" : 				{
					"destination" : [ "obj-48", 0 ],
					"source" : [ "obj-49", 0 ]
				}

			}
, 			{
				"patchline" : 				{
					"destination" : [ "obj-48", 1 ],
					"source" : [ "obj-5", 0 ]
				}

			}
, 			{
				"patchline" : 				{
					"destination" : [ "obj-50", 0 ],
					"source" : [ "obj-51", 0 ]
				}

			}
, 			{
				"patchline" : 				{
					"destination" : [ "obj-52", 0 ],
					"source" : [ "obj-53", 0 ]
				}

			}
, 			{
				"patchline" : 				{
					"destination" : [ "obj-50", 1 ],
					"source" : [ "obj-6", 0 ]
				}

			}
, 			{
				"patchline" : 				{
					"destination" : [ "obj-52", 1 ],
					"source" : [ "obj-7", 0 ]
				}

			}
 ]
	}

}
